<mxfile host="app.diagrams.net" modified="2023-09-05T14:11:25.663Z" agent="Mozilla/5.0 (X11; Linux x86_64) AppleWebKit/537.36 (KHTML, like Gecko) Chrome/116.0.0.0 Safari/537.36" etag="INcwF0S1HYh__wvUB9t7" version="21.7.2" type="github">
  <diagram name="Page-1" id="aFspRiF8XCNKQEMM-J5c">
    <mxGraphModel dx="1366" dy="792" grid="1" gridSize="10" guides="1" tooltips="1" connect="1" arrows="1" fold="1" page="1" pageScale="1" pageWidth="850" pageHeight="1100" math="0" shadow="0">
      <root>
        <mxCell id="0" />
        <object label="white background" id="30KggWmX4pOPK8MYpUQ7-163">
          <mxCell parent="0" visible="0" />
        </object>
        <mxCell id="30KggWmX4pOPK8MYpUQ7-165" value="" style="rounded=0;whiteSpace=wrap;html=1;fillColor=#000000;" vertex="1" parent="30KggWmX4pOPK8MYpUQ7-163">
          <mxGeometry x="-370" y="-90" width="3220" height="1660" as="geometry" />
        </mxCell>
        <mxCell id="30KggWmX4pOPK8MYpUQ7-164" value="Untitled Layer" parent="0" visible="0" />
        <mxCell id="1" style="locked=1;" parent="0" />
        <mxCell id="30KggWmX4pOPK8MYpUQ7-12" value="" style="rounded=1;whiteSpace=wrap;html=1;fillColor=none;movable=1;resizable=1;rotatable=1;deletable=1;editable=1;locked=0;connectable=1;" vertex="1" parent="1">
          <mxGeometry x="52" y="140" width="760" height="390" as="geometry" />
        </mxCell>
        <mxCell id="30KggWmX4pOPK8MYpUQ7-10" value="" style="group;movable=1;resizable=1;rotatable=1;deletable=1;editable=1;locked=0;connectable=1;rounded=1;" vertex="1" connectable="0" parent="1">
          <mxGeometry x="260" y="750" width="100" height="70" as="geometry" />
        </mxCell>
        <mxCell id="30KggWmX4pOPK8MYpUQ7-1" value="Android / IOS Devices" style="text;html=1;strokeColor=none;fillColor=none;align=center;verticalAlign=middle;whiteSpace=wrap;rounded=1;" vertex="1" parent="30KggWmX4pOPK8MYpUQ7-10">
          <mxGeometry y="30" width="100" height="30" as="geometry" />
        </mxCell>
        <mxCell id="30KggWmX4pOPK8MYpUQ7-7" value="" style="shape=image;verticalLabelPosition=bottom;labelBackgroundColor=default;verticalAlign=top;aspect=fixed;imageAspect=0;image=data:image/png,iVBORw0KGgoAAAANSUhEUgAAACQAAAAkCAYAAADhAJiYAAAACXBIWXMAAAsTAAALEwEAmpwYAAAAAXNSR0IArs4c6QAAAARnQU1BAACxjwv8YQUAAADfSURBVHgB7dixDcIwEIXhd8AAjAASA1BSUCQTMEOGoEbUDMEMbJAiRQoKD4AEI6SH6DDpcy8CCyjuqyKdE/1xZwuI5WqdicouPmZ4l6KBIKjci1DXN2upwIzJZqLtFQlpq3k4V2XffGS9HGOOSEzG3W73MoPiVi+RXmYN7SDBFF82GbJosT0hhcthQ9eM8Gc8iPEgxoMYD2I8iPEgxoMYD2I8iPEgxoMYD2IGnVyHnDhT+cUONdaQBZVITKHBmptBKrpHavIorLEZFOqqVBnP41+V3bXcB17fiD+Ysyu9J9JCOChLf767AAAAAElFTkSuQmCC;rounded=1;" vertex="1" parent="30KggWmX4pOPK8MYpUQ7-10">
          <mxGeometry x="35" width="30" height="30" as="geometry" />
        </mxCell>
        <mxCell id="30KggWmX4pOPK8MYpUQ7-11" style="edgeStyle=orthogonalEdgeStyle;rounded=1;orthogonalLoop=1;jettySize=auto;html=1;" edge="1" parent="1" source="30KggWmX4pOPK8MYpUQ7-7" target="30KggWmX4pOPK8MYpUQ7-3">
          <mxGeometry relative="1" as="geometry" />
        </mxCell>
        <mxCell id="30KggWmX4pOPK8MYpUQ7-26" value="" style="group;rounded=1;" vertex="1" connectable="0" parent="1">
          <mxGeometry x="106" y="760" width="100" height="90" as="geometry" />
        </mxCell>
        <mxCell id="30KggWmX4pOPK8MYpUQ7-19" value="" style="shape=image;verticalLabelPosition=bottom;labelBackgroundColor=default;verticalAlign=top;aspect=fixed;imageAspect=0;image=data:image/png,iVBORw0KGgoAAAANSUhEUgAAAG8AAABvCAYAAADixZ5gAAAACXBIWXMAAAsTAAALEwEAmpwYAAAAAXNSR0IArs4c6QAAAARnQU1BAACxjwv8YQUAAATRSURBVHgB7d3PbhtVFMfxc+7YTlqVyhUgqChiLFEkUCGxBF0nT1B4gqRPkPQJ4rxBWbIibNk0EQ8QZ1UJkMZIVbNA1UwFKCBAcaso/+y5h3sHxTIex61RsOeI32dTdzxJnHwzd27uODHTCFEUV9MZWmKx88S0IEQhwX9MWkScBGw26Zh26vVact6ePGyjj2ZnaUWsXXV7VAmmQ6jNxtw3x+3P6/V6e/DuXLxvH8XzgbEPcJQVh2uRiE0/u33rvVb/dtP/n2g3XjJstxGuWNwRFhoTRL7PwPa/+SPOGBsRFFnb2nTx7AjMjjx/jvNDJUHRVdkED6IoyuYhWTw7a1cwVOrgh9Bu5epqdvthFIflihsuMavUpB2cPK+ZcjldQDh1qt2ZK8uGmO8QqGPYzLlznoQE+ggt+CNvnkAdP8Es0Zgetyv0y2FAcLHeutylD6qdsd5m7Hg/u3C7zyoEF2/ceIZALcRTDPEUQzzFEE8xxFMM8RRDPMUQTzHEUwzxFEM8xRBPMcRTDPEUQzzFEE8xxFMM8RRDPMUQTzHEUwzxFEM8xRBPMcRTDPEUQzzFEE8xxFMM8RRDPMUQTzHEUwzxFEM8xRBPMcRTDPEUQzzFEE8xxFMM8RRDPMUQTzHEUwzxFEM8xRBPMcRTDPEUQzzFEE+xsf+6+0wg9ErZElysyr94tQP+/vETIVDJMFFCoI7vZkSoRaCOEGfxdgjUCZg3TKljNgg02jH1eq1tSb4iUIOZNurv15Ls57zySbDqX1CdoPD8a6YbMuv+dhYvO/pE7hEUXolNwx91/nZvheX2rXc3ROw6QWG5yeW6C9c7xfHgDt89erLqxtQ1vAhwgfhTmhsZP3YHWP9mHrbvw904DCRtGOIlgimTZsDB3bOhsh+PerNeRKE5vLbs5PjVE7GyJSKbn3x4szliv5cXRXFIE/bD0x+33ZAR0oQxc/LROzcXafLafgL5MjuOdVXBvdOEJuyLr79x32FjfY9dEJnK5zsOXM9TDPEUQzzFEE+xsZ8GMWnhjRtu7jD5p1242SYVXeHjvVa9StN4nkbx02HYVA3xFEM8xRBPsXMnLHG8X6XZ9FM31Qtpio6OT6dzacpdEov3fm/QNFlukQlatevXkmF35yZV7gEvuEsQa0KyQFAILtJGKmZ9MOI/4v302/6aFdsgKCTDpvH2G9d6z3boxUM4HfoDZvHivT+WDfOXBCq49aZ7tTdfvZ/Fe/rrn7H7JyTQgaltD02t5I86ekG4SrnkDtf8gtFpt0vW5hevjDFUKeV/Zym1ljrdNP9Y3PueKQ+f+J50uu5CuuAx9ROq0qXOcilgsyQvWD28NFOh8pAPcnB4RMen3dx2/4CuXJ7Nbe+4T+LZwVFuu/9CDdvfO31+QEO+Tv/Lx9QvoNIdIyx4YpFCvpvJDkHQx3XD8phiLh4nBPqwtErWpltu1rMyaj8/+wlsfhZlz5nnWHc2tzZ/9VtGzIuG7Y/HdD4WbrFfy3Q/tW8TqGLF1Ezt+utNJm4SqOEXqv0idTZhSYXvEv4qhBaJv8Lgb/QG6HhvPzRs/fAZEhRV4obLxbNLQ70fFfwGf4c7ieL30wvIrYI1+8N5Q5/h5o9CN5g23ArRnDsfYgVmehI3G91ylTb93GTwzr8AKLXSw3RHkJ4AAAAASUVORK5CYII=;rounded=1;" vertex="1" parent="30KggWmX4pOPK8MYpUQ7-26">
          <mxGeometry x="25" width="50" height="50" as="geometry" />
        </mxCell>
        <mxCell id="30KggWmX4pOPK8MYpUQ7-24" value="Web&amp;nbsp;&lt;br&gt;(dev only)" style="text;html=1;strokeColor=none;fillColor=none;align=center;verticalAlign=middle;whiteSpace=wrap;rounded=1;" vertex="1" parent="30KggWmX4pOPK8MYpUQ7-26">
          <mxGeometry y="60" width="100" height="30" as="geometry" />
        </mxCell>
        <mxCell id="30KggWmX4pOPK8MYpUQ7-6" value="" style="group;movable=1;resizable=1;rotatable=1;deletable=1;editable=1;locked=0;connectable=1;rounded=1;" vertex="1" connectable="0" parent="1">
          <mxGeometry x="278" y="280" width="64" height="90" as="geometry" />
        </mxCell>
        <mxCell id="30KggWmX4pOPK8MYpUQ7-2" value="" style="shape=image;verticalLabelPosition=bottom;labelBackgroundColor=default;verticalAlign=top;aspect=fixed;imageAspect=0;image=data:image/png,iVBORw0KGgoAAAANSUhEUgAAAGgAAABoCAYAAAAdHLWhAAAACXBIWXMAAAsTAAALEwEAmpwYAAAAAXNSR0IArs4c6QAAAARnQU1BAACxjwv8YQUAACqoSURBVHgBhX1N0GZXcV73O4OQhGYkDSgCUkAV3gXBxnZVKkjeBLOIwIssIBFVcSobS8oGXKSi8corJG8C2UhikaqQKpTIqUqVscUCexWJFfYiIGcVqJKEQYDQzEggDUj6Ovfc08/TT5/3lX3h0/d+9733nD798/TTfX/Gf/jFC2fmZmHmHhbh46/tj/w8vor919hCD93+69uXMY7ev82/8pzcaRhknLsdMU5fNh0Tc4+Dg9/NA+r4OQ5/5wQl2DxXxhKhx87tYwTnTpkp2X742Hs4eM6OxUKEKephjoNzOVbk8RjH3VQvbieUIGuEXsdxh5irpGSqtfzgfjRQnrCNMrUauR+HjnOcw0AZahzXP1Zx9yl9+buMtc87Fz/9Kb1k/3yoc32K5DAAjIP5oI05vHPGcXykEaeY+Gz4cZN1jY9OG9k07FTrPo6JUXRV+FMNI+vbd5z3aH7Bg7bdc9Ah9xlOwMhUiu1RRneOVEi047zZOJ3I56pjfuIQObc1kaIMNcMq+HceWxOkXD6PKpvi9Iiy0zg0undMmc8gdKhBoYLIdcvfXKLPMQM7ZS1ptG6n8sQpUMk9xzqE04U4qYhDKJjf7d7pmB3HByDFEcUUPYzgeKTUFpyAKxjKVRxEaqjxnFDscMZ0u8g/5hiM56BnJhj5ahj+cXCg4vxungdpcGTifC7bWkjNSMa6jCA65c1dU5HpRYG00OY6OMxNsaPhOxRZURPENxNF7tHQsDJnN29rL3hOxUvU+Ap2TBRqyISg1EhhaNCA64IzO7kx9qjI8IpbrMvq3DnsmQSOaZ6Yy8b0IfCTUTS/WBHHGJ0FcXGEfnP/Qb8IyR39wCnAxOV0VZ44I2ISCjeFlflFhDrWPv5ZCdsdwiC4EQYZic5VOr0uo0XEgfYAO8DTNJNVSmh5G/vKJSXV1C7AVPOSsjQIk5djUh+VR0Gl4CylmwlQOG+3/oFKE9MjL3mpFG4wol+OjiUKVHmGdU9Nh1WENV/x5fPUaiZnEw6iJ1nnLp7GCIplqQgqMWSJmZEKEuc6DgVflUuBHiSzIf7N9coUQSGIkQmvpuksJDfi1LN0ZgDDNvWBK8nctTuGK6cMuGrgUAuxiiO5OYGNXovokggjE4+CyjJeSadwl95J6g70iMT0VLCorey45wL6PubJfCcIukczvbqggEyO1NxLvRLV69ZcXuSeKcFIeBnKSlwriGyPB2jXiwFZ4blzxlppRkWG+wpVXeF5OjRyEEgEZC9YDBIki+0Znfu9DF/SlWGhFRkbblTyFwqUqp2OpvrAqC62gfN6i3O3gtPa6csaMazPCONUUyfTIw4TvXItTj9jkZo0uQvbFp9ekWxqX9aBeK6cex5wBklIT1wVrv/DPq64HWOc2xhPlRrSUw3K4FknDM1zPD3NhEki9QixOBMFF/xn4o8yokWIrGVAr6BmBMGEJMIJNIcUx1UtrG2QhOGF5HjRjtuPcaGVFL6ircKYpHQeEwhgF2+numkWHFvfGdTRIg2GSdm5P1etaG5HzPEsJFIlDSu8zkgQm7BlYA2bYBTFRWsAieFM8pQV+Zw6OyD5BycRMxsSWwGmEgIVOAQUFBbbFrKQlUI3/m3KtmpHDUuniCbD1JqJsRPv0U0IFYcswBh2LobFOAmjJrAoSogGjNFlKcNwodOmIgjFdkUAnHUoYSfUNQoUVuQzbQ2nJYnwsiZRmQAb3eNpp5Doy0O9CFfhe/RzrKg8rCoO4zgO43F/DnNG72dMpC7nQEGFiX0MDudWrryswwhsRBRNG65jsT5KtVeUCqRiCWkgpwXLTSM7Baw8XIw3waEgLZVHBXqP9ZZTCGnW8xzRO/K8BQrNOxypJ9f3AGlED+Wr8JNoojLSwQoo5lrPymmVTNSY0IY4BwfJrpSTiOwHnVkrSsOpzxznrCHLrIMqRLuHVBvF6L0uYrXaxpAjZIF0uuBPMT6BArelzVRgXFkPhqs8lYcGlVBVR66l8gwji0iatJl+QNwBtrJPWEYDdsbwbBHdJKlEL2AjGKZlkD0ycn2YsozAPiHqICaBUChS/wwrpbDmSS+VwY2K8eJZNiMxFytrVsBtG/LLqfEh1a6Y7dxz7/6Q3/hP7rVzN94ahNSEq5vu+pS988P3tHOaIp0ymhV9iOAacresCfvPrBxNXIPIkJOq7++/C4PkeCvWWXqc35znuYxOUvvEAHgAWaRn9JCr5zqXJJ4mAeQMiQ5JeUMdc4laeGo2lDtxqe/9xtv8lnsesAv3PGh+4632i2ces6vf+I9c4zDOu//NE/vn1/76CXvlLx+2t64+v+OO1MhrUjf4rwmgVIstFN7mMaH5i4aV3pWLZWa3WpazztfDBxDHOLQJzIAppJ05aeUJekl6q0ZCcTkTWqw4mShxBhgLekyLShYEZXmM887fuMfu/MIzdvF3L+/GGds73neXK1Iecv/Ybv6t++y9l79nF/75QwbdsfChVbxBIXYry0S8NYNK2aBRoE5ANDaSB5kkfSQRVsjnHhQH9GmiAWFhMibfDefVoFKlAsao3iz4QALKoDKDN65ppN+6Kgmhcfr52z9k77n/m37HHzxl527/oLXNCzEpyrJd/ORlu/Pys7vBzL1V83sfjBGtEREaRl5qMcReCb4YIo9r7PQsFRSIPgJOdijolXPph7bCHB5FY2uNFzILT0AsqkdGFnyzHiFGI5rGGYcEUzEgvBfH7+di9JtutQu/+9AeBe/88N2U+NUNtt688rysoKBIt188/ai9deW5/fP5zbC3f+ax/ef8pQ+VUpL2o2TXcZyqbz5WQF6+KVIAI20dy4qpVV5DpcUomxFrh4Kj4MUtM4aNMRcJDkOaEq7oHiLHljZQtAwFAKdwa1I1QOrNv3mf3fn5CWfYfvWDp+3Fh++ya5uBSll5nqASttf/71/YT//zPXsewrbD3kMb7A2YvOlWlgfUfK6lyE6YwjFmRU5KETRnurmyXoNKFE1AEJhmihvNVHPIKOTg2r0daptCDmUlIw4MOhXoS22AqBDP8modTcVTUoua1AANU/Z3vP9j/p4Hvum3f/YxwtmIgpe++i/ipcfujbeuvNCMgFVaCP6L8c5euxpbxMWLD390Iw1f51fD8Hd+/tsT9qyfy+JZLR4VCa47rMeX05eXdpLXuYmZ1iwYwVw0pj1U18+5mPTtJFxVvU1YqjwE+rx6Vyk6SuxDFXD7L5CKZASMwBsv2m2/94j9oy1qAGdx/eru/T/98t1x/fvPOFe/brFASdsm7r+1QeKVP30gth/C3rmEvTu/8O0d9tpZ5pW5l7SJohMQzayc31mp1AudKl1l3DGlAdoxyt78nx4foTDLDJhD1QgTBnEN161QQaOoFCUozBA1luzVpp/ROCjz+/7oWbvl7gephet/+xf2ky/fM/JNvHX9GmDSzewIygpE1/0KQ3M9g3pv0TSiioe9430f3WHv9s887mWoHXp8L0ylsyB1QpTSG6EwdB7KpOXKBwFlECS3BqWREYQJnGrGQWBpE9ZY0ggul0pCIcub+zSczqNn2yrZzA0fvmeHs1s//Qhp8/D0lx6/11762n0bEXjOgLlcuPtJKJPuxlGINaTKr7fIjB9v+ey1v3mCxw+4e8/GFN/1W5+zVL7USZUyZEqrXG5hy3fpTYZ0e6gU3y5cNhmzPDqwMFLebkUIQrCvEnpqiIIK21GklKj3NuaMwMPGzga03HH/Uw3Orn7jIXvxS3fF9Y0MNKHP0jBe13hE46atGVGopHRr7SvsOrvyfLz85P3+880ZVrY3mOO5Sx9yaC+sG7oQJMfzoui6Sf/YZq3pLqWIHmiI1vHngdnIJ5M7OgHKp1tKJOy0tPfr6DaG9oUj+aEi24/dYMzH4qeXzm148Y+/9LGtK/Bo1+JZukHWLgWNsvmiiaMV5DEHcBhiEyHq+t8+tcPetc1B3kr6PvLTgL1Lm7HOXfqgKaR3ffhiOP7ubQkKme5uFlJbFbbl2eeTEqNs8ZZmq8Egl5Z3zPPKRQABSCQ3IUbyEUTR9sUNH757Z2bnpdD81feftlf/6pGNADztffEgJsE7DpUVhvoqAKBqK+rJczVFuNqty6kjT6br/urmIK9vxrq41V43pwON3zdsHYxRUw0HSr04fiP31uLREHXvAG9Umanv7FXptFQwoUTS7BoiXBO790WTzSQ1Zn6K48Q8KbeTBZ7bugCX/u0TPuAMxonr13Y4e+mr9+7GScUSC3hRnGMKWonDHG++dEaW/aD1UehQgTc/vPXyczvT+8nDdwWiacg9GOZ7t27EjXd9ymVMU7kA+mcG+CgjuCgXiJOeyFuNXZLoDncevLNGHCA4IZQTXjd8sF3hFb4M/+A1n60ndjH2WmPrnd30kU9xIcMTR5755dbkZFKyvKGC4WCM4LXtsxIPmsCk+Cu1hY7LKJOE3GA6Bxp/vnHleR8kQmn5MNRoxF76zOM7BALK25gpZ1QU8zoH/l/6jTYtomR8Me/NJu2dyR9WXPtnvGaHXDD5OUWKRZej1X/ps4+59s1GF+Dan1+2N/7uu/NU5ECTxihyIThrYk8luwBT7PKdkPnYgG5kQhENkjAGW1ZWyPDLrbj91fefWWDvvv1nY4K+QfTMCNXFOeFAUFckvKQnxYSiFhip10O/xpo5SxYKb8VJqoC6AhtF12Im1jv+4Js7O6suwFYgPvmA/ezxT9kbP/wum4TKMKh8ymP9/jlETha3Y985dK0r6YQOt2/bpYmuKGkoStbVcRQm8f0WQfHyFkmjzfTGj7/HU3aEeKgTHmOnJfOhC7xWrT8j6uDieH4McVB3peWStAonJ4bCyRzOKCoZwu5Nzd+opuboAvzkyx8fLI1MMc+gAgLNVUaKExa02w6Hv2Eb/47Pf3tvpEJ8HOeL677n95+YlyY0uFp7qVnIsSih0LyqMn6PNtPW1bCNmh/R8gF743OUb3tA99ZLhILypBKY8OBsQPsLX7xw5tRENJrHgEt/d8aoC9erG0lGuA86im2ws6tbW+XNKy8sOkvqaB1OC96qqtYzxneHm26zC5+87Lfc/UDpequdfrYVtb/+0fcoz6ix7rj/m3t3ANvofI/OwS+zF7fPordasZdTlaY2gTM8K6eME266OC4axoVPXKb1N7oeL33tXzcduuDbHK5FuwuLhPdMiGPoWXogYI6hAZOIRiFwGFmHpxdhG0Xfz766wdmWZI9TeWTAZio4yi2LcZJlblHjd3zhmWacQXlH7fTG332v1Ubx+iv20//08R2SVi9/9+//9/3aEi5nkE0ZECPJisI5YZV23FVy9vo1e+VbDze2txlNjFjRJ6ufSDLdXsgPNGpMyodsNZHjIctFQ/UoOEKl7oIYfoQqidEydo41T2qtfTpmQV9GJzB8yzPv3mBqRMR56WyPqLn2Zw/FoOusIayuZw25Xt9g9SdfubtdarjpI/fuMDyMde72D8gyl4hdPpMdHsOjD0d882W9NlWs1EiAJIf4gUi0r/sM/s8DZgQlgQqlzgmcGNSKLImgAX1mrl/6D34mvQ2aBthemnAJ9PpcRrzld2bHQSn6zGn37IyQlwSqC5I9EiKmxWvX4tVvHV9qGEl9GH2wMq57ocl0TwOcr5tU+NiijOdLhmvnexvG+xxhiCChtKFB5jpOUcCwNQIKu0UQibQQlzZrl4x7X298k4zmfDLB0UDF/QXDID/9ysd3A51teUcVacp1LKtn7DtMojEgaEDey//tvtBLDSNvvm8rPt/x/o8aWkk5GHNuwo+QBWsOqBDGT6muUKwpCSkfPSx/VTsxcxCg0AizlfjDisdRHaEsuQsqJrIeH4buKvMXR2zjbEzwEw/thS2YIDoOJAIshAVn3cl1YDROclY3vIxvXn/2KX/x4Y/Z2nMb16AuffbxvTlaAE9dOFJDy3UuHWvZkKwq+qwyeli7SdK8rivNAwu8Dq3NKvCDq6XqDgz41HtozPtx0Zhg6KxfMt8UFAVuAtgHGIXtHePy9ifrbp09ar788RhkgEDpdZGQ7iNdoTUh6oVFEwAZPbdhdIW9cYl9vwNoc5IwvQkliCxholBjbqmQgEatX03dIU+L0zR8QGaHE6TY7rj1N9olaii8ASimBz/PPEVlLQEUS9GBaCOcZrsBwTxuChmF7Q3vn7R4RM3P/+t9uwIHTZ+KhxVYYNCZhIFSJtRtPdqkRNg+jGtNV/70wVF8xlp8vneHvY+ZmfYgDephNISZ3jVCfSEIZz+tLv9H8yF0a/knrvDs8TFpdqTSqmi3AnEJRQthZMZFpm2XjedNWVc6b9Tc6BK73hSyU+ctoY+bPTRJa63Ev1u0hPVc4E0ZGkEl5TTYVnz6KKbXntvFjCQ4V/QoMckuLQdhjeOPs4wBfhWtaQq9OHyvljdeZJFjJ4sz5A0qgyGeBWpW9qqkaJKa6ms6dPQwx5cyDLdRUwzqPOoLzpt0G0NSJxmJJau3qAE8wTga+XCqbrzZcxu0HNF0uPnWdJKF5UUVs87EsRgvD2S0YfXClpm/EqdFj/uCDlkwWSlNPbMeIWdSE6yP7ALPbvgxSdD2BRSkhiJGi23fuvo8us2mkVPJvyBsrb8I1ch+1p0acqiD0aBCPOL6K+MuICzDVJms9tO+xVD7ZKVmqWoZ30FZqCx+wPgzoA6VZ5DIc6mClYSk/OzSvzYRxFffUQWbZQO3qDY80xbTJpy2NIYcWqRD6pNIwiE5IX+LErx1Bsx1H5w7rPKpy3FmClFg3zQKo6jUwiWdnZVseSjkk8MzsI3hiXUd3KyyfA+m/ttwE0mHMjXg37d14wEd3O1ovLkfwipmzxrlqIpnbiITysjlPXtAgzgqSaKUX/T8SKB5eDmUK2QST2I16kQjjLt4L485jnIz522Ih4CslVvQbsWCjewn4GPWWBrYWAPQoGPMc4negfVx1GO5s4EKYcW7wpWnKMaF1EBzZjJMr94aYDVMCEWDyuNLSojQQgnneZSpp1f8oWsLGATjSw7SFSk8x4HnoYB0Z+vfmD3Kczl4FG53paU06cFgTo0OhEmyteMtxAFazjRqGIujI1lBlOYX/a3TGyOr4JPyeBcMERqSRZiTgI8qrHMOtTQnUGLiGnrIV3MR+56DyBQajiAlZEEM8UR2J6cXhUu45qqF4+rqa5f7Eaq4BCNaL+w2aFtInFZl5ffeWYSLUUAoAKF6vSYbl7aqFWOkDlAlROuoyFwkQdbExL7W+di3fCQnWd5+0IHF4t4NbmkV3VhKWbG/atTVCrKVEhqJcFztzby3nFaXPAqqLAkGsR9e5v0WZCdGOY1ECioN1XSpMl6YtCKWrshqeLNydBeioWuQ4zyXpM6aBnAgczFeuSvKeD0I9NEKRBlw0QTFwc5oz6mOIE65PkHDC+qqsra32yJCMdo59jQYjoGCc72p8KKy3Csv2Ag6ceUTP3KVEgTrn7+1V9xbZaW+47Xws1f7S1G5RWGWNu1lSlrwTVUC7U3LW3cUh9GfulskEjjICc2KLlmcOCflXy7khclKzNq4lNkLZNl+yaP5+awzOUAVSUKLnNBPmglzbNwJVVYzOQhyehoEzui25Eq+V86ikMXT92N/Pog4T6GTyU1PCTY1W3IL9L9OCFhKMkHc9FaFi+PaaSodzSjoRgiCLaCuC06XSp3kzFHnetU7hJVKR1bQEtHyqSmhqPqNOYwnuFoUsBLMo+bMQcBjyG/mel2TznLQyEDsgzDk++FKIwLRIA1U4lH8iIxu5TG67AjWFUdnW7CjkGadecxRCzC2q3WTyCz+XoYW3ZGRAZ3Ec+PEQsrwWoOVJ4TZCZheLqX3FMSn3qEoJRTVC7U4zxeKlo4zzwYLi2ExelB3VKtaYE2sjJvmju2uHicl60sjllVvNOliVEh1lgQQr2Na/E6lRj05DgSYx9QFLrcOaathTVCEs5XMPK9DsPGenBX228KBsiQzPh7DN2ltpB+lanEjoyXEYdBeHWPSvuUEAZYSuc+s5rJjf002UNfmgx4opCBlgxFRjWCVPcfsYmS9Vmy48m1Ua8irLD/Sm8DsSWJzwtNo0ChYjQb8FbkO66BJkB/rCbtUnAsrmQJDHupj7kuMAD09FQkzlJ1e6hQsIH7D4lqoiYJloQZAZIx41SDBNSAnad4w6W/hhyNab+rqNu7+wcNcsb8N+Ng4hVQ9bxEfy2Mk4sVoOmuyCuDXwVx7UEkGMoOCpUCdzFcxFT9JglSaInpVw0HVwsS6tHW5LmfMBBxcUE2QCmHXo/KRQlt1rUEGpjYhtxxLpSIfxHa5Y2x4/GRcUIRO3JbLFitUFdS2vFE2snm7zpjorIrcNBTruTHEAVY0NtoiYyJ1iakT2uR41kTHQDUlUkpbiqjD6cFyekIbn+oLM94H7hItLLBNc0LCBV2ymqY0WjuXjikJZRr86p8/xBscx4YrrDf/9ud4OUPzk4kstdMzrlwVL1MZI8bLxZQV+gEpMuhAMhkOA9tCrop60s0IDX3blUuHlOSYQxBgwnrkmee5zuCZMFD3Auzju5Ee9yIzjs1tlTsoN4+IBnMYZtyHffXJ/WHjOHrHwmcfd9zeS8q+WCxDIL1Qo0TXOYUPghwMiapuvBJTKthcbFrR4wi+UrEQjJ5yIoRA3tIlo6OAG8vKpRIqL+t9rALGsmbLGy4wMimsNh2nHNHlWGeGDqDbAUNbFPm4/P7qXz3MY+erZZ7douqPjA7ua6unHGkaPmPFrN7OJctprSYr1DxMrHaJ86kNxPoKr8YCsAwDMrEKyDyeq2blHVIR2NvBd3q+V4hqTgKUgQVxqIB3RkVJ1mxFq+EyCS0h6wGpE740tmvfesRfXB42vphvPxk3QE65jtYS+plRA8gFacsw1EABNT1kcMf0OTFD+pq3PmhzEgsJsLClDprKY6U9DeVuUuGTui4sfVp9BjpJpYVpU5IML41ET/UqSbTOof+mA9TlEGvRN7YRIbd9+k92BldoGNvl+BfsypP3540l9dRdvlrGx4393UKloMpBoqaz4OUaHMNUkKeeN6oosiCNaAgtpnMoT8rPie1LfBvdhZ1ljAeBmBO232evXePp407Sc7d90MejKnwPTwSDILS83J+VTaly9ZSHRhCaS1hBbQe7zLprGObWT17mM0033nXv/iTgL595NEKS9Wvf+XqMe+nG/Xt4quHm9mwQMnX4us8k7wryeCNrVuic7+qZNAmL2oN19s5MVT/PBKVw5qPjG0Ywv6GnZy1iBGzHfG9efY63Oo3HRsbC33P/fIjXmbxr4DI2aEsxIGvOIp90TuuN2hs+fPcOVZfktTNjwzOpd15+1sf9cXsUMEmZX/vWwxP2hO2JBlznTglnLmoietVygGgpl/O1zEhozF6VUthGnz/6uCSid8Xr1AJhRwvayHm0Gz5usXrxSx+Nl59c7kkbT64B40MSk8CGOEwxPMJfdT0sDUmdbL/Ge+fwJGA92DxfO3PlyQ5j44VO+8NZW9EKwjG+e3N/tcyDDfbGb6HzbCFgH5mfVUMNEAhY5xp++B8uHjWEKvkjbxFGrGE5PWRG3lAobkAcTxLsEAUotGIuDFmrNpEbUWq//fbiJx/anwzHNhb9Ch++cspZLZslLzliPBmQHD8Mc/ETl9tTgMMwrz79mP3y6Uf3V86Mc7f5XZ9JhUF+8b8ftV98+zEr+ev3eCHHGz/6np1dv0aniIp2NhfXjoTuZ1YYf76wGchObMw3zXa4YumEU0w8hh2LoYG+dJe9efV5Gclbo7TnCvbZmu1H5IzxFHaGgsbNja//zdcz1os0tEWGeG4aa7xyZoynhhnbyDPD+HH9muoQatty4gfijgee8tVhxmtq3vjRd5u2ThlEHdPsuHPusvLV4Of+8OM3/LGyGysqmiQOcDYZmMG8sF5eAhhTDM8cP/uin3ksvUgysSOwq1XjveUSKuUbP37Wx9s/xn3aA1pGfho/432km1f7tt/H0+LwOvRRKddU2x4x4wVJI7edv1TGHtF45Wv3xWv/53+5vXG9HCYXijy3QbCP9bz18vN2wz/+GOW45Z/+ux3+3vzRd+dDZKl975YwsKz0JFPM7V31bpzx+9wf/rN3/rE6uYvy992uSU0SPUhAzjn+fufmoWWgR/c7NNGncUOHuiId2FaXF4wW81RyvH41rv/g27uhxrE3fPC390N3Q33kU3vrZUDKePEE/TjXMZL/pX/1+B6FapjxBq2X/su/tNf/+okNzl7p3CIdsC5NIEWYbw6znzseXL5hv6l+f6/dcJj9uF8//x0EXYpPm4mb0jhTJzCOTm+ocLb/7RAXpJ+VWIneME3lGhIJ2m0ee0Eg7qdfuTuf5YnKZ2kbGl8itkGhVT6xrDhB18/f/oH9LYnvWmjteIfBgKlf/eCZ3RhDjpHL2jE/eHo75hH79f97OhQadVP6X1AJJywI3SInNnLRYO/NfEPXcBZLmU+Nt17qsBMbwqRykKAgARhG40IKWTVDIQI2xe0wgm3kilHP7AJPb1RknlR/zWdgDSmKL5kJgp9K4DDUmmNgmF9thtG2HUnEkrSRv+IECVBHGk/+DQb4jvfXk+TDScaPIHdubG57M8OaO/l1tjRe+OIFdE9NC9CW+Jr1nS0gYAMiYX9scX95RfeqUSeMZ0QjM4OytnTNOBa8jJmcjymmDF10fDUUDPPqXz4y39JoZt0Q3cmsoLsplZdCzeoi3/b3Lff8e7+wMU19/fOY78r/eCDenO/n5jk5bvn4Qh5EgkDugr63CLoQkvBLdGVsUVVu0IwFWdUymYu5aUvgty40me8o+M7XKUz3Upk3y7GVidmRCuuYwfQGxA7o2yPmW4/sv7n4If9ZtItnNaIfs0Dtk41nXM+mQwwafdvv/UmLmreSWW6O2CMRaOT9ji5fGF7raSppGEeMf4m47hqtrgBZllX+wUqP/A5FpFe0jT9HDngbQ8XoEp9qy2B85Cg/NZ+tkFtKPtx4m529frU5QBnEJW461e2G4iGMgPF45krRUTsNmn62ESKFKyjcrMO0d4L3tvQaxyKCihFUZTsPovd2QkBGJnkEszIUUxkXd8++73REoU2iWvsH4Kd7XRWiHKdFxmIMhgrWJ5FcJT4RZOa6y3wrMLaNdscWNT6fNj8d1UpONX8dEQ9lT7qWccbIQYnz5a2K/aZeHUEbtf1SDuJ80egQ6NxWx2yLbI86jm0k9Sv/8wF78+XnxByioUK8DAKXZ5tdYNFOMKLV0LZ4aGvV20oAxhtNbvmdB4/zzJPj9TbPu8paNdTcubI26GElI0c1UNtn8109zCpLzgmh2tHEN8BaJxYJI+pF01xBOBs0+VRSH5G0JfQ9sipS8r8CT3NPdOWTAQoMcLcaJw0teYj5VMYcbx2+VZ40h2F2ir45VAXhMU0+BZuS+3suPwFrq7yVg5hHGAVhvhABz08QKhqO0naNqUXhKftj22kjoi5mUtdtML5X0lBWeSZq4FNMzFtj1KW9QxvKGklC0gmxjTyzvq5zEICrf/bQ/kAzIUogyxcSsEaFMQ2UPNUnPOFA3u+f64VqywFmLlzajiwteWF8m/8gewvrwKRpSzW0sK9bP/3w3r7RjRE1oA911xJJU+DuHadgIoCN1vEdJ00C8BDbVPtXRQBiv8NncQ5XnmKdNq9QZs2ZbDnmeH9ZK+ugsqcfk4J1k+NwXmUscx3rqI7RheTiYKiNHcXtn3nUT9VQ4yXkgL6mBJuKl+BdIt9s8adGaUek3Lpd79H3AI2e2qvjxbGbcUabqbHLKNSOghpO0JKCQIfCquMEiZRueC9FjyXMTsJxkvQySKx3ddJQOWFB48JgNCeZqxrb0jQ6b/7Nz7WrmmOrSw1PVJSIQXrr5BRdKBl2uLxp/uNQt9zTCcBwhvEPdsx/FyLEm0H1e+451Q7ijCejSMjAAnHqzsZMMCJo0GyeauXdU7A+TFQuaTC4KH1CnYuwUifZUoRaOZvO93aXGgY1HxGlxjE1glbwOQdQYdRIpwyzdxxGYfv9pwM+dSr5q4cqlB6hgilalGGj/S6ITC+2lSjsJIGtnkYUsGAru+ZnNyHRav8miKmIrUjrC9c5TK1MxY5u9cgP67WYa3JNiPmO5ZtW7lOdpww+rt5eefLBYSCyvqL4hRpH3YHxV/tHccsZTXMsdvmJSBHjMlqW6Nx1sOegZA/dM/w4PDvcGQxrFXXSeYZyrLEqYrcaMGzhNUqp5+23o9C9sNFfvqPU5ksDx1uwRi11smaLes1M7wDMtyS+ur+gaVGdmbI78GJrzM243COlTyVUXiRYGbKAOOxCFE7R7eM6qCTEedZqooXOdoGauEYhFyiS+wt6clJohRM4M3IcLn1wV/a7jmqoJ8aNhfbmz59jsT3epDjeA9eZGQjAZGanWNQpAyj8N89HgcoIsBPK79sRS8tDWqdBDHX6knczuQmoVb2B5BFrbegt3HmesSVgel2pGdLMFuWIYqzaT9XB7u2XkZuGAUa0jTyj26Dt175xeX8R4NoDpPKo4BnZKQXheQ+S5qjHXFX8yf6hTeF0LW6bgTQSoBAdf1+KMUKxr/xGjQGD4COM2CARm+YJO4K40H2VUHnuO7aLZuMa1KlLDdhmZ/th+/UPnumjr9RWHK85iCy4wZq2BSSn6NwgAh1hrJ2vhKFT8Tl2GShdoBJ7aXJhWUzgKW6mHStGcgR9fgJITJZr6n8zrlxpeTB3rZgxjhmXANZCUy85AMlwyaBqKMH/tWk6toOLalblYX7F576qo94bSUDpr0GdllGMoC9egIesirK2H3qyXpS2FotlDnxbgtGpJ0S2xh7NOtxFvw2shzAPHyePyxvjbtDXn31qu5KrNxOWEXpzcspxLFM0j1bg7QYKgE2vA/VA5qyen7py5oJO1kfrPQmYt8HJCmX+NpCkucrUu6wRA3e9xpPHNGIhc1t5xDEELswnjDDqIiyVHzVgyz9zakGEU3JopJitRouj4AYk2XIp25h640ydudsM24HnJHyhuev7bVfRC9EcD7fzdj4QMn+QZwiiTz/yvJ9rHBCMooDS9sMrMKzGQrHe51MnaOUIJMG56Z5T/RF6c8L85353uRx5x3EwTxMVL7qMNG9qrXsLQEL+B9TYNbILWJ2RPkYZyOt34mMqD08klDCzRQQ9puB5KzeiZVkCUIlWDIsedlNmd6aL/lWaSuj9PNTz9tpiEhI9aTOcOzHEc4nsbI9pzsr/eX865I2UNuYfdVGy8gzkCZ0Q3x2Z080KTYCX6t2tsD2o6yO/h8uFuxqWn1zxIiebjhDEsDJqeTfhQyAFEWVlu3lcZmdG61KZNx+I/pvRw9zobdwIDVE4hVvzUygqHYHs033pEri8JyhdKv0PVuuGCtNOg1MvOI9q2f+eDxET3mQgSfwSkh15jYsm/MCD9amGNGTZqsCygANJ1hlCDsX0gHT+BBWUTpg+Sb2n1we+G8qQcU3yVwDOJQKpsLEWxXBNKCbEIMQAFog9tqJKYV6GJhuOumZkwJjtAqd0EBxBD4PoPmrECpKUMOxRPhOGyE47lHpFCb1fZun1ARrs9Y8ewS0AqpmrGiV1fr/WcTUHmFyId2ltVqhA7zQXhWvDU47nFM5QJXOjQyj4drYHrE9lulmRn0PJaaps0uhFAHlKjqUJ17+HusszMIrHWpkDZsIW9M2vMTfNLYxr7nSB4XC4mBl/7xpVOMJIRbODyTOJRM01ZS/3UyUZ/ZTLI3AjOhKuEt7YIiKyOoEgiHbgqtGsfoCMWAQ9HKyKDF6jelZ1uvASEREKrIevOcgTsX1GuoWskpVhzumlG685vMShoYiULoYPCSw3E6WZRJ0fyo+wLjGXQfCVmcIkwfOy/s3aB/kpNU0YDoNhEC1wkckkE1/2sQ5a/NEUSKPiISAASrVNjvFobiiMrBY0h4kQzJ4uANYYFUKSrwywNtkSgD3ULiY5cUrp4tdlZgekafhHKIUvKAUQwLodMZqY3JBLoBMW2YEoSvPodwo1eTAC9oA/3IuphOYYAxy41B66BEL1HMQVCKr6s2SHu9xOSPcqIRAkXlCcC04/T7bkVThJ9mENBXtCCvIwb2o8YVhPnwomEviC5CbkBzpsG9UqTOAfTZZKyIkijjJBbEL9j0MOEIpmNozLfMHfVgswNZSErAgu/4VOMX7nubLlrAKNSJZzXGekKUQFFk+UcUaut8iq/BBtnnKG+f8GHZYuGrWSyNo0UmeFEkCgHM1tqYWUIFS0OcrJRRcD4iLKYizqgOs9pGEsUPiubAO1Ru8J3YL6PpWIiJEIVMm4EjUkeJ8bA9HqvxXZGFcYMuMACgxYiiedAitjR8GNk0Yw1qKKXjPWPsZjaWNX81ARcnzTUTnDvp03umF4FEpjHm+aE/jKiCAyw4vhwQWcpvDGcXI/NOCiVECyF2KlCkPCv/KkG0EnMF3pG3qitMUPA/Y1Z9O3XlnGVUU5sAJfk3mOmwSrBRihjDnbKUfO2eer/47fB9Y4wuQwEEL5eEvmwhJ3DQBEPbyXZ+E1ZkXl56FRDMmoBgsV2KRDEfisGc9bnkmiCewIpf0obt3J6AKZjdOFsWQIBIJCHxw/YdN8QaKZM6HGyeq0/Mn6inkqROxS+v8HnvUiFb/sxc0AAAAASUVORK5CYII=;container=0;rounded=1;" vertex="1" parent="30KggWmX4pOPK8MYpUQ7-6">
          <mxGeometry width="64" height="64" as="geometry" />
        </mxCell>
        <mxCell id="30KggWmX4pOPK8MYpUQ7-3" value="N1-API" style="text;html=1;strokeColor=none;fillColor=none;align=center;verticalAlign=middle;whiteSpace=wrap;rounded=1;container=0;" vertex="1" parent="30KggWmX4pOPK8MYpUQ7-6">
          <mxGeometry x="8" y="70" width="48" height="20" as="geometry" />
        </mxCell>
        <mxCell id="30KggWmX4pOPK8MYpUQ7-13" value="AWS Fargate Instances" style="text;html=1;strokeColor=none;fillColor=none;align=center;verticalAlign=middle;whiteSpace=wrap;rounded=1;fontStyle=1;fontSize=18;" vertex="1" parent="1">
          <mxGeometry x="310" y="160" width="250" height="36" as="geometry" />
        </mxCell>
        <mxCell id="30KggWmX4pOPK8MYpUQ7-28" value="" style="group;rounded=1;" vertex="1" connectable="0" parent="1">
          <mxGeometry x="330" y="840" width="64" height="90" as="geometry" />
        </mxCell>
        <mxCell id="30KggWmX4pOPK8MYpUQ7-16" value="" style="shape=image;verticalLabelPosition=bottom;labelBackgroundColor=default;verticalAlign=top;aspect=fixed;imageAspect=0;image=data:image/png,iVBORw0KGgoAAAANSUhEUgAAAGgAAABoCAYAAAAdHLWhAAAACXBIWXMAAAsTAAALEwEAmpwYAAAAAXNSR0IArs4c6QAAAARnQU1BAACxjwv8YQUAACqoSURBVHgBhX1N0GZXcV73O4OQhGYkDSgCUkAV3gXBxnZVKkjeBLOIwIssIBFVcSobS8oGXKSi8corJG8C2UhikaqQKpTIqUqVscUCexWJFfYiIGcVqJKEQYDQzEggDUj6Ovfc08/TT5/3lX3h0/d+9733nD798/TTfX/Gf/jFC2fmZmHmHhbh46/tj/w8vor919hCD93+69uXMY7ev82/8pzcaRhknLsdMU5fNh0Tc4+Dg9/NA+r4OQ5/5wQl2DxXxhKhx87tYwTnTpkp2X742Hs4eM6OxUKEKephjoNzOVbk8RjH3VQvbieUIGuEXsdxh5irpGSqtfzgfjRQnrCNMrUauR+HjnOcw0AZahzXP1Zx9yl9+buMtc87Fz/9Kb1k/3yoc32K5DAAjIP5oI05vHPGcXykEaeY+Gz4cZN1jY9OG9k07FTrPo6JUXRV+FMNI+vbd5z3aH7Bg7bdc9Ah9xlOwMhUiu1RRneOVEi047zZOJ3I56pjfuIQObc1kaIMNcMq+HceWxOkXD6PKpvi9Iiy0zg0undMmc8gdKhBoYLIdcvfXKLPMQM7ZS1ptG6n8sQpUMk9xzqE04U4qYhDKJjf7d7pmB3HByDFEcUUPYzgeKTUFpyAKxjKVRxEaqjxnFDscMZ0u8g/5hiM56BnJhj5ahj+cXCg4vxungdpcGTifC7bWkjNSMa6jCA65c1dU5HpRYG00OY6OMxNsaPhOxRZURPENxNF7tHQsDJnN29rL3hOxUvU+Ap2TBRqyISg1EhhaNCA64IzO7kx9qjI8IpbrMvq3DnsmQSOaZ6Yy8b0IfCTUTS/WBHHGJ0FcXGEfnP/Qb8IyR39wCnAxOV0VZ44I2ISCjeFlflFhDrWPv5ZCdsdwiC4EQYZic5VOr0uo0XEgfYAO8DTNJNVSmh5G/vKJSXV1C7AVPOSsjQIk5djUh+VR0Gl4CylmwlQOG+3/oFKE9MjL3mpFG4wol+OjiUKVHmGdU9Nh1WENV/x5fPUaiZnEw6iJ1nnLp7GCIplqQgqMWSJmZEKEuc6DgVflUuBHiSzIf7N9coUQSGIkQmvpuksJDfi1LN0ZgDDNvWBK8nctTuGK6cMuGrgUAuxiiO5OYGNXovokggjE4+CyjJeSadwl95J6g70iMT0VLCorey45wL6PubJfCcIukczvbqggEyO1NxLvRLV69ZcXuSeKcFIeBnKSlwriGyPB2jXiwFZ4blzxlppRkWG+wpVXeF5OjRyEEgEZC9YDBIki+0Znfu9DF/SlWGhFRkbblTyFwqUqp2OpvrAqC62gfN6i3O3gtPa6csaMazPCONUUyfTIw4TvXItTj9jkZo0uQvbFp9ekWxqX9aBeK6cex5wBklIT1wVrv/DPq64HWOc2xhPlRrSUw3K4FknDM1zPD3NhEki9QixOBMFF/xn4o8yokWIrGVAr6BmBMGEJMIJNIcUx1UtrG2QhOGF5HjRjtuPcaGVFL6ircKYpHQeEwhgF2+numkWHFvfGdTRIg2GSdm5P1etaG5HzPEsJFIlDSu8zkgQm7BlYA2bYBTFRWsAieFM8pQV+Zw6OyD5BycRMxsSWwGmEgIVOAQUFBbbFrKQlUI3/m3KtmpHDUuniCbD1JqJsRPv0U0IFYcswBh2LobFOAmjJrAoSogGjNFlKcNwodOmIgjFdkUAnHUoYSfUNQoUVuQzbQ2nJYnwsiZRmQAb3eNpp5Doy0O9CFfhe/RzrKg8rCoO4zgO43F/DnNG72dMpC7nQEGFiX0MDudWrryswwhsRBRNG65jsT5KtVeUCqRiCWkgpwXLTSM7Baw8XIw3waEgLZVHBXqP9ZZTCGnW8xzRO/K8BQrNOxypJ9f3AGlED+Wr8JNoojLSwQoo5lrPymmVTNSY0IY4BwfJrpSTiOwHnVkrSsOpzxznrCHLrIMqRLuHVBvF6L0uYrXaxpAjZIF0uuBPMT6BArelzVRgXFkPhqs8lYcGlVBVR66l8gwji0iatJl+QNwBtrJPWEYDdsbwbBHdJKlEL2AjGKZlkD0ycn2YsozAPiHqICaBUChS/wwrpbDmSS+VwY2K8eJZNiMxFytrVsBtG/LLqfEh1a6Y7dxz7/6Q3/hP7rVzN94ahNSEq5vu+pS988P3tHOaIp0ymhV9iOAacresCfvPrBxNXIPIkJOq7++/C4PkeCvWWXqc35znuYxOUvvEAHgAWaRn9JCr5zqXJJ4mAeQMiQ5JeUMdc4laeGo2lDtxqe/9xtv8lnsesAv3PGh+4632i2ces6vf+I9c4zDOu//NE/vn1/76CXvlLx+2t64+v+OO1MhrUjf4rwmgVIstFN7mMaH5i4aV3pWLZWa3WpazztfDBxDHOLQJzIAppJ05aeUJekl6q0ZCcTkTWqw4mShxBhgLekyLShYEZXmM887fuMfu/MIzdvF3L+/GGds73neXK1Iecv/Ybv6t++y9l79nF/75QwbdsfChVbxBIXYry0S8NYNK2aBRoE5ANDaSB5kkfSQRVsjnHhQH9GmiAWFhMibfDefVoFKlAsao3iz4QALKoDKDN65ppN+6Kgmhcfr52z9k77n/m37HHzxl527/oLXNCzEpyrJd/ORlu/Pys7vBzL1V83sfjBGtEREaRl5qMcReCb4YIo9r7PQsFRSIPgJOdijolXPph7bCHB5FY2uNFzILT0AsqkdGFnyzHiFGI5rGGYcEUzEgvBfH7+di9JtutQu/+9AeBe/88N2U+NUNtt688rysoKBIt188/ai9deW5/fP5zbC3f+ax/ef8pQ+VUpL2o2TXcZyqbz5WQF6+KVIAI20dy4qpVV5DpcUomxFrh4Kj4MUtM4aNMRcJDkOaEq7oHiLHljZQtAwFAKdwa1I1QOrNv3mf3fn5CWfYfvWDp+3Fh++ya5uBSll5nqASttf/71/YT//zPXsewrbD3kMb7A2YvOlWlgfUfK6lyE6YwjFmRU5KETRnurmyXoNKFE1AEJhmihvNVHPIKOTg2r0daptCDmUlIw4MOhXoS22AqBDP8modTcVTUoua1AANU/Z3vP9j/p4Hvum3f/YxwtmIgpe++i/ipcfujbeuvNCMgFVaCP6L8c5euxpbxMWLD390Iw1f51fD8Hd+/tsT9qyfy+JZLR4VCa47rMeX05eXdpLXuYmZ1iwYwVw0pj1U18+5mPTtJFxVvU1YqjwE+rx6Vyk6SuxDFXD7L5CKZASMwBsv2m2/94j9oy1qAGdx/eru/T/98t1x/fvPOFe/brFASdsm7r+1QeKVP30gth/C3rmEvTu/8O0d9tpZ5pW5l7SJohMQzayc31mp1AudKl1l3DGlAdoxyt78nx4foTDLDJhD1QgTBnEN161QQaOoFCUozBA1luzVpp/ROCjz+/7oWbvl7gephet/+xf2ky/fM/JNvHX9GmDSzewIygpE1/0KQ3M9g3pv0TSiioe9430f3WHv9s887mWoHXp8L0ylsyB1QpTSG6EwdB7KpOXKBwFlECS3BqWREYQJnGrGQWBpE9ZY0ggul0pCIcub+zSczqNn2yrZzA0fvmeHs1s//Qhp8/D0lx6/11762n0bEXjOgLlcuPtJKJPuxlGINaTKr7fIjB9v+ey1v3mCxw+4e8/GFN/1W5+zVL7USZUyZEqrXG5hy3fpTYZ0e6gU3y5cNhmzPDqwMFLebkUIQrCvEnpqiIIK21GklKj3NuaMwMPGzga03HH/Uw3Orn7jIXvxS3fF9Y0MNKHP0jBe13hE46atGVGopHRr7SvsOrvyfLz85P3+880ZVrY3mOO5Sx9yaC+sG7oQJMfzoui6Sf/YZq3pLqWIHmiI1vHngdnIJ5M7OgHKp1tKJOy0tPfr6DaG9oUj+aEi24/dYMzH4qeXzm148Y+/9LGtK/Bo1+JZukHWLgWNsvmiiaMV5DEHcBhiEyHq+t8+tcPetc1B3kr6PvLTgL1Lm7HOXfqgKaR3ffhiOP7ubQkKme5uFlJbFbbl2eeTEqNs8ZZmq8Egl5Z3zPPKRQABSCQ3IUbyEUTR9sUNH757Z2bnpdD81feftlf/6pGNADztffEgJsE7DpUVhvoqAKBqK+rJczVFuNqty6kjT6br/urmIK9vxrq41V43pwON3zdsHYxRUw0HSr04fiP31uLREHXvAG9Umanv7FXptFQwoUTS7BoiXBO790WTzSQ1Zn6K48Q8KbeTBZ7bugCX/u0TPuAMxonr13Y4e+mr9+7GScUSC3hRnGMKWonDHG++dEaW/aD1UehQgTc/vPXyczvT+8nDdwWiacg9GOZ7t27EjXd9ymVMU7kA+mcG+CgjuCgXiJOeyFuNXZLoDncevLNGHCA4IZQTXjd8sF3hFb4M/+A1n60ndjH2WmPrnd30kU9xIcMTR5755dbkZFKyvKGC4WCM4LXtsxIPmsCk+Cu1hY7LKJOE3GA6Bxp/vnHleR8kQmn5MNRoxF76zOM7BALK25gpZ1QU8zoH/l/6jTYtomR8Me/NJu2dyR9WXPtnvGaHXDD5OUWKRZej1X/ps4+59s1GF+Dan1+2N/7uu/NU5ECTxihyIThrYk8luwBT7PKdkPnYgG5kQhENkjAGW1ZWyPDLrbj91fefWWDvvv1nY4K+QfTMCNXFOeFAUFckvKQnxYSiFhip10O/xpo5SxYKb8VJqoC6AhtF12Im1jv+4Js7O6suwFYgPvmA/ezxT9kbP/wum4TKMKh8ymP9/jlETha3Y985dK0r6YQOt2/bpYmuKGkoStbVcRQm8f0WQfHyFkmjzfTGj7/HU3aEeKgTHmOnJfOhC7xWrT8j6uDieH4McVB3peWStAonJ4bCyRzOKCoZwu5Nzd+opuboAvzkyx8fLI1MMc+gAgLNVUaKExa02w6Hv2Eb/47Pf3tvpEJ8HOeL677n95+YlyY0uFp7qVnIsSih0LyqMn6PNtPW1bCNmh/R8gF743OUb3tA99ZLhILypBKY8OBsQPsLX7xw5tRENJrHgEt/d8aoC9erG0lGuA86im2ws6tbW+XNKy8sOkvqaB1OC96qqtYzxneHm26zC5+87Lfc/UDpequdfrYVtb/+0fcoz6ix7rj/m3t3ANvofI/OwS+zF7fPordasZdTlaY2gTM8K6eME266OC4axoVPXKb1N7oeL33tXzcduuDbHK5FuwuLhPdMiGPoWXogYI6hAZOIRiFwGFmHpxdhG0Xfz766wdmWZI9TeWTAZio4yi2LcZJlblHjd3zhmWacQXlH7fTG332v1Ubx+iv20//08R2SVi9/9+//9/3aEi5nkE0ZECPJisI5YZV23FVy9vo1e+VbDze2txlNjFjRJ6ufSDLdXsgPNGpMyodsNZHjIctFQ/UoOEKl7oIYfoQqidEydo41T2qtfTpmQV9GJzB8yzPv3mBqRMR56WyPqLn2Zw/FoOusIayuZw25Xt9g9SdfubtdarjpI/fuMDyMde72D8gyl4hdPpMdHsOjD0d882W9NlWs1EiAJIf4gUi0r/sM/s8DZgQlgQqlzgmcGNSKLImgAX1mrl/6D34mvQ2aBthemnAJ9PpcRrzld2bHQSn6zGn37IyQlwSqC5I9EiKmxWvX4tVvHV9qGEl9GH2wMq57ocl0TwOcr5tU+NiijOdLhmvnexvG+xxhiCChtKFB5jpOUcCwNQIKu0UQibQQlzZrl4x7X298k4zmfDLB0UDF/QXDID/9ysd3A51teUcVacp1LKtn7DtMojEgaEDey//tvtBLDSNvvm8rPt/x/o8aWkk5GHNuwo+QBWsOqBDGT6muUKwpCSkfPSx/VTsxcxCg0AizlfjDisdRHaEsuQsqJrIeH4buKvMXR2zjbEzwEw/thS2YIDoOJAIshAVn3cl1YDROclY3vIxvXn/2KX/x4Y/Z2nMb16AuffbxvTlaAE9dOFJDy3UuHWvZkKwq+qwyeli7SdK8rivNAwu8Dq3NKvCDq6XqDgz41HtozPtx0Zhg6KxfMt8UFAVuAtgHGIXtHePy9ifrbp09ar788RhkgEDpdZGQ7iNdoTUh6oVFEwAZPbdhdIW9cYl9vwNoc5IwvQkliCxholBjbqmQgEatX03dIU+L0zR8QGaHE6TY7rj1N9olaii8ASimBz/PPEVlLQEUS9GBaCOcZrsBwTxuChmF7Q3vn7R4RM3P/+t9uwIHTZ+KhxVYYNCZhIFSJtRtPdqkRNg+jGtNV/70wVF8xlp8vneHvY+ZmfYgDephNISZ3jVCfSEIZz+tLv9H8yF0a/knrvDs8TFpdqTSqmi3AnEJRQthZMZFpm2XjedNWVc6b9Tc6BK73hSyU+ctoY+bPTRJa63Ev1u0hPVc4E0ZGkEl5TTYVnz6KKbXntvFjCQ4V/QoMckuLQdhjeOPs4wBfhWtaQq9OHyvljdeZJFjJ4sz5A0qgyGeBWpW9qqkaJKa6ms6dPQwx5cyDLdRUwzqPOoLzpt0G0NSJxmJJau3qAE8wTga+XCqbrzZcxu0HNF0uPnWdJKF5UUVs87EsRgvD2S0YfXClpm/EqdFj/uCDlkwWSlNPbMeIWdSE6yP7ALPbvgxSdD2BRSkhiJGi23fuvo8us2mkVPJvyBsrb8I1ch+1p0acqiD0aBCPOL6K+MuICzDVJms9tO+xVD7ZKVmqWoZ30FZqCx+wPgzoA6VZ5DIc6mClYSk/OzSvzYRxFffUQWbZQO3qDY80xbTJpy2NIYcWqRD6pNIwiE5IX+LErx1Bsx1H5w7rPKpy3FmClFg3zQKo6jUwiWdnZVseSjkk8MzsI3hiXUd3KyyfA+m/ttwE0mHMjXg37d14wEd3O1ovLkfwipmzxrlqIpnbiITysjlPXtAgzgqSaKUX/T8SKB5eDmUK2QST2I16kQjjLt4L485jnIz522Ih4CslVvQbsWCjewn4GPWWBrYWAPQoGPMc4negfVx1GO5s4EKYcW7wpWnKMaF1EBzZjJMr94aYDVMCEWDyuNLSojQQgnneZSpp1f8oWsLGATjSw7SFSk8x4HnoYB0Z+vfmD3Kczl4FG53paU06cFgTo0OhEmyteMtxAFazjRqGIujI1lBlOYX/a3TGyOr4JPyeBcMERqSRZiTgI8qrHMOtTQnUGLiGnrIV3MR+56DyBQajiAlZEEM8UR2J6cXhUu45qqF4+rqa5f7Eaq4BCNaL+w2aFtInFZl5ffeWYSLUUAoAKF6vSYbl7aqFWOkDlAlROuoyFwkQdbExL7W+di3fCQnWd5+0IHF4t4NbmkV3VhKWbG/atTVCrKVEhqJcFztzby3nFaXPAqqLAkGsR9e5v0WZCdGOY1ECioN1XSpMl6YtCKWrshqeLNydBeioWuQ4zyXpM6aBnAgczFeuSvKeD0I9NEKRBlw0QTFwc5oz6mOIE65PkHDC+qqsra32yJCMdo59jQYjoGCc72p8KKy3Csv2Ag6ceUTP3KVEgTrn7+1V9xbZaW+47Xws1f7S1G5RWGWNu1lSlrwTVUC7U3LW3cUh9GfulskEjjICc2KLlmcOCflXy7khclKzNq4lNkLZNl+yaP5+awzOUAVSUKLnNBPmglzbNwJVVYzOQhyehoEzui25Eq+V86ikMXT92N/Pog4T6GTyU1PCTY1W3IL9L9OCFhKMkHc9FaFi+PaaSodzSjoRgiCLaCuC06XSp3kzFHnetU7hJVKR1bQEtHyqSmhqPqNOYwnuFoUsBLMo+bMQcBjyG/mel2TznLQyEDsgzDk++FKIwLRIA1U4lH8iIxu5TG67AjWFUdnW7CjkGadecxRCzC2q3WTyCz+XoYW3ZGRAZ3Ec+PEQsrwWoOVJ4TZCZheLqX3FMSn3qEoJRTVC7U4zxeKlo4zzwYLi2ExelB3VKtaYE2sjJvmju2uHicl60sjllVvNOliVEh1lgQQr2Na/E6lRj05DgSYx9QFLrcOaathTVCEs5XMPK9DsPGenBX228KBsiQzPh7DN2ltpB+lanEjoyXEYdBeHWPSvuUEAZYSuc+s5rJjf002UNfmgx4opCBlgxFRjWCVPcfsYmS9Vmy48m1Ua8irLD/Sm8DsSWJzwtNo0ChYjQb8FbkO66BJkB/rCbtUnAsrmQJDHupj7kuMAD09FQkzlJ1e6hQsIH7D4lqoiYJloQZAZIx41SDBNSAnad4w6W/hhyNab+rqNu7+wcNcsb8N+Ng4hVQ9bxEfy2Mk4sVoOmuyCuDXwVx7UEkGMoOCpUCdzFcxFT9JglSaInpVw0HVwsS6tHW5LmfMBBxcUE2QCmHXo/KRQlt1rUEGpjYhtxxLpSIfxHa5Y2x4/GRcUIRO3JbLFitUFdS2vFE2snm7zpjorIrcNBTruTHEAVY0NtoiYyJ1iakT2uR41kTHQDUlUkpbiqjD6cFyekIbn+oLM94H7hItLLBNc0LCBV2ymqY0WjuXjikJZRr86p8/xBscx4YrrDf/9ud4OUPzk4kstdMzrlwVL1MZI8bLxZQV+gEpMuhAMhkOA9tCrop60s0IDX3blUuHlOSYQxBgwnrkmee5zuCZMFD3Auzju5Ee9yIzjs1tlTsoN4+IBnMYZtyHffXJ/WHjOHrHwmcfd9zeS8q+WCxDIL1Qo0TXOYUPghwMiapuvBJTKthcbFrR4wi+UrEQjJ5yIoRA3tIlo6OAG8vKpRIqL+t9rALGsmbLGy4wMimsNh2nHNHlWGeGDqDbAUNbFPm4/P7qXz3MY+erZZ7douqPjA7ua6unHGkaPmPFrN7OJctprSYr1DxMrHaJ86kNxPoKr8YCsAwDMrEKyDyeq2blHVIR2NvBd3q+V4hqTgKUgQVxqIB3RkVJ1mxFq+EyCS0h6wGpE740tmvfesRfXB42vphvPxk3QE65jtYS+plRA8gFacsw1EABNT1kcMf0OTFD+pq3PmhzEgsJsLClDprKY6U9DeVuUuGTui4sfVp9BjpJpYVpU5IML41ET/UqSbTOof+mA9TlEGvRN7YRIbd9+k92BldoGNvl+BfsypP3540l9dRdvlrGx4393UKloMpBoqaz4OUaHMNUkKeeN6oosiCNaAgtpnMoT8rPie1LfBvdhZ1ljAeBmBO232evXePp407Sc7d90MejKnwPTwSDILS83J+VTaly9ZSHRhCaS1hBbQe7zLprGObWT17mM0033nXv/iTgL595NEKS9Wvf+XqMe+nG/Xt4quHm9mwQMnX4us8k7wryeCNrVuic7+qZNAmL2oN19s5MVT/PBKVw5qPjG0Ywv6GnZy1iBGzHfG9efY63Oo3HRsbC33P/fIjXmbxr4DI2aEsxIGvOIp90TuuN2hs+fPcOVZfktTNjwzOpd15+1sf9cXsUMEmZX/vWwxP2hO2JBlznTglnLmoietVygGgpl/O1zEhozF6VUthGnz/6uCSid8Xr1AJhRwvayHm0Gz5usXrxSx+Nl59c7kkbT64B40MSk8CGOEwxPMJfdT0sDUmdbL/Ge+fwJGA92DxfO3PlyQ5j44VO+8NZW9EKwjG+e3N/tcyDDfbGb6HzbCFgH5mfVUMNEAhY5xp++B8uHjWEKvkjbxFGrGE5PWRG3lAobkAcTxLsEAUotGIuDFmrNpEbUWq//fbiJx/anwzHNhb9Ch++cspZLZslLzliPBmQHD8Mc/ETl9tTgMMwrz79mP3y6Uf3V86Mc7f5XZ9JhUF+8b8ftV98+zEr+ev3eCHHGz/6np1dv0aniIp2NhfXjoTuZ1YYf76wGchObMw3zXa4YumEU0w8hh2LoYG+dJe9efV5Gclbo7TnCvbZmu1H5IzxFHaGgsbNja//zdcz1os0tEWGeG4aa7xyZoynhhnbyDPD+HH9muoQatty4gfijgee8tVhxmtq3vjRd5u2ThlEHdPsuHPusvLV4Of+8OM3/LGyGysqmiQOcDYZmMG8sF5eAhhTDM8cP/uin3ksvUgysSOwq1XjveUSKuUbP37Wx9s/xn3aA1pGfho/432km1f7tt/H0+LwOvRRKddU2x4x4wVJI7edv1TGHtF45Wv3xWv/53+5vXG9HCYXijy3QbCP9bz18vN2wz/+GOW45Z/+ux3+3vzRd+dDZKl975YwsKz0JFPM7V31bpzx+9wf/rN3/rE6uYvy992uSU0SPUhAzjn+fufmoWWgR/c7NNGncUOHuiId2FaXF4wW81RyvH41rv/g27uhxrE3fPC390N3Q33kU3vrZUDKePEE/TjXMZL/pX/1+B6FapjxBq2X/su/tNf/+okNzl7p3CIdsC5NIEWYbw6znzseXL5hv6l+f6/dcJj9uF8//x0EXYpPm4mb0jhTJzCOTm+ocLb/7RAXpJ+VWIneME3lGhIJ2m0ee0Eg7qdfuTuf5YnKZ2kbGl8itkGhVT6xrDhB18/f/oH9LYnvWmjteIfBgKlf/eCZ3RhDjpHL2jE/eHo75hH79f97OhQadVP6X1AJJywI3SInNnLRYO/NfEPXcBZLmU+Nt17qsBMbwqRykKAgARhG40IKWTVDIQI2xe0wgm3kilHP7AJPb1RknlR/zWdgDSmKL5kJgp9K4DDUmmNgmF9thtG2HUnEkrSRv+IECVBHGk/+DQb4jvfXk+TDScaPIHdubG57M8OaO/l1tjRe+OIFdE9NC9CW+Jr1nS0gYAMiYX9scX95RfeqUSeMZ0QjM4OytnTNOBa8jJmcjymmDF10fDUUDPPqXz4y39JoZt0Q3cmsoLsplZdCzeoi3/b3Lff8e7+wMU19/fOY78r/eCDenO/n5jk5bvn4Qh5EgkDugr63CLoQkvBLdGVsUVVu0IwFWdUymYu5aUvgty40me8o+M7XKUz3Upk3y7GVidmRCuuYwfQGxA7o2yPmW4/sv7n4If9ZtItnNaIfs0Dtk41nXM+mQwwafdvv/UmLmreSWW6O2CMRaOT9ji5fGF7raSppGEeMf4m47hqtrgBZllX+wUqP/A5FpFe0jT9HDngbQ8XoEp9qy2B85Cg/NZ+tkFtKPtx4m529frU5QBnEJW461e2G4iGMgPF45krRUTsNmn62ESKFKyjcrMO0d4L3tvQaxyKCihFUZTsPovd2QkBGJnkEszIUUxkXd8++73REoU2iWvsH4Kd7XRWiHKdFxmIMhgrWJ5FcJT4RZOa6y3wrMLaNdscWNT6fNj8d1UpONX8dEQ9lT7qWccbIQYnz5a2K/aZeHUEbtf1SDuJ80egQ6NxWx2yLbI86jm0k9Sv/8wF78+XnxByioUK8DAKXZ5tdYNFOMKLV0LZ4aGvV20oAxhtNbvmdB4/zzJPj9TbPu8paNdTcubI26GElI0c1UNtn8109zCpLzgmh2tHEN8BaJxYJI+pF01xBOBs0+VRSH5G0JfQ9sipS8r8CT3NPdOWTAQoMcLcaJw0teYj5VMYcbx2+VZ40h2F2ir45VAXhMU0+BZuS+3suPwFrq7yVg5hHGAVhvhABz08QKhqO0naNqUXhKftj22kjoi5mUtdtML5X0lBWeSZq4FNMzFtj1KW9QxvKGklC0gmxjTyzvq5zEICrf/bQ/kAzIUogyxcSsEaFMQ2UPNUnPOFA3u+f64VqywFmLlzajiwteWF8m/8gewvrwKRpSzW0sK9bP/3w3r7RjRE1oA911xJJU+DuHadgIoCN1vEdJ00C8BDbVPtXRQBiv8NncQ5XnmKdNq9QZs2ZbDnmeH9ZK+ugsqcfk4J1k+NwXmUscx3rqI7RheTiYKiNHcXtn3nUT9VQ4yXkgL6mBJuKl+BdIt9s8adGaUek3Lpd79H3AI2e2qvjxbGbcUabqbHLKNSOghpO0JKCQIfCquMEiZRueC9FjyXMTsJxkvQySKx3ddJQOWFB48JgNCeZqxrb0jQ6b/7Nz7WrmmOrSw1PVJSIQXrr5BRdKBl2uLxp/uNQt9zTCcBwhvEPdsx/FyLEm0H1e+451Q7ijCejSMjAAnHqzsZMMCJo0GyeauXdU7A+TFQuaTC4KH1CnYuwUifZUoRaOZvO93aXGgY1HxGlxjE1glbwOQdQYdRIpwyzdxxGYfv9pwM+dSr5q4cqlB6hgilalGGj/S6ITC+2lSjsJIGtnkYUsGAru+ZnNyHRav8miKmIrUjrC9c5TK1MxY5u9cgP67WYa3JNiPmO5ZtW7lOdpww+rt5eefLBYSCyvqL4hRpH3YHxV/tHccsZTXMsdvmJSBHjMlqW6Nx1sOegZA/dM/w4PDvcGQxrFXXSeYZyrLEqYrcaMGzhNUqp5+23o9C9sNFfvqPU5ksDx1uwRi11smaLes1M7wDMtyS+ur+gaVGdmbI78GJrzM243COlTyVUXiRYGbKAOOxCFE7R7eM6qCTEedZqooXOdoGauEYhFyiS+wt6clJohRM4M3IcLn1wV/a7jmqoJ8aNhfbmz59jsT3epDjeA9eZGQjAZGanWNQpAyj8N89HgcoIsBPK79sRS8tDWqdBDHX6knczuQmoVb2B5BFrbegt3HmesSVgel2pGdLMFuWIYqzaT9XB7u2XkZuGAUa0jTyj26Dt175xeX8R4NoDpPKo4BnZKQXheQ+S5qjHXFX8yf6hTeF0LW6bgTQSoBAdf1+KMUKxr/xGjQGD4COM2CARm+YJO4K40H2VUHnuO7aLZuMa1KlLDdhmZ/th+/UPnumjr9RWHK85iCy4wZq2BSSn6NwgAh1hrJ2vhKFT8Tl2GShdoBJ7aXJhWUzgKW6mHStGcgR9fgJITJZr6n8zrlxpeTB3rZgxjhmXANZCUy85AMlwyaBqKMH/tWk6toOLalblYX7F576qo94bSUDpr0GdllGMoC9egIesirK2H3qyXpS2FotlDnxbgtGpJ0S2xh7NOtxFvw2shzAPHyePyxvjbtDXn31qu5KrNxOWEXpzcspxLFM0j1bg7QYKgE2vA/VA5qyen7py5oJO1kfrPQmYt8HJCmX+NpCkucrUu6wRA3e9xpPHNGIhc1t5xDEELswnjDDqIiyVHzVgyz9zakGEU3JopJitRouj4AYk2XIp25h640ydudsM24HnJHyhuev7bVfRC9EcD7fzdj4QMn+QZwiiTz/yvJ9rHBCMooDS9sMrMKzGQrHe51MnaOUIJMG56Z5T/RF6c8L85353uRx5x3EwTxMVL7qMNG9qrXsLQEL+B9TYNbILWJ2RPkYZyOt34mMqD08klDCzRQQ9puB5KzeiZVkCUIlWDIsedlNmd6aL/lWaSuj9PNTz9tpiEhI9aTOcOzHEc4nsbI9pzsr/eX865I2UNuYfdVGy8gzkCZ0Q3x2Z080KTYCX6t2tsD2o6yO/h8uFuxqWn1zxIiebjhDEsDJqeTfhQyAFEWVlu3lcZmdG61KZNx+I/pvRw9zobdwIDVE4hVvzUygqHYHs033pEri8JyhdKv0PVuuGCtNOg1MvOI9q2f+eDxET3mQgSfwSkh15jYsm/MCD9amGNGTZqsCygANJ1hlCDsX0gHT+BBWUTpg+Sb2n1we+G8qQcU3yVwDOJQKpsLEWxXBNKCbEIMQAFog9tqJKYV6GJhuOumZkwJjtAqd0EBxBD4PoPmrECpKUMOxRPhOGyE47lHpFCb1fZun1ARrs9Y8ewS0AqpmrGiV1fr/WcTUHmFyId2ltVqhA7zQXhWvDU47nFM5QJXOjQyj4drYHrE9lulmRn0PJaaps0uhFAHlKjqUJ17+HusszMIrHWpkDZsIW9M2vMTfNLYxr7nSB4XC4mBl/7xpVOMJIRbODyTOJRM01ZS/3UyUZ/ZTLI3AjOhKuEt7YIiKyOoEgiHbgqtGsfoCMWAQ9HKyKDF6jelZ1uvASEREKrIevOcgTsX1GuoWskpVhzumlG685vMShoYiULoYPCSw3E6WZRJ0fyo+wLjGXQfCVmcIkwfOy/s3aB/kpNU0YDoNhEC1wkckkE1/2sQ5a/NEUSKPiISAASrVNjvFobiiMrBY0h4kQzJ4uANYYFUKSrwywNtkSgD3ULiY5cUrp4tdlZgekafhHKIUvKAUQwLodMZqY3JBLoBMW2YEoSvPodwo1eTAC9oA/3IuphOYYAxy41B66BEL1HMQVCKr6s2SHu9xOSPcqIRAkXlCcC04/T7bkVThJ9mENBXtCCvIwb2o8YVhPnwomEviC5CbkBzpsG9UqTOAfTZZKyIkijjJBbEL9j0MOEIpmNozLfMHfVgswNZSErAgu/4VOMX7nubLlrAKNSJZzXGekKUQFFk+UcUaut8iq/BBtnnKG+f8GHZYuGrWSyNo0UmeFEkCgHM1tqYWUIFS0OcrJRRcD4iLKYizqgOs9pGEsUPiubAO1Ru8J3YL6PpWIiJEIVMm4EjUkeJ8bA9HqvxXZGFcYMuMACgxYiiedAitjR8GNk0Yw1qKKXjPWPsZjaWNX81ARcnzTUTnDvp03umF4FEpjHm+aE/jKiCAyw4vhwQWcpvDGcXI/NOCiVECyF2KlCkPCv/KkG0EnMF3pG3qitMUPA/Y1Z9O3XlnGVUU5sAJfk3mOmwSrBRihjDnbKUfO2eer/47fB9Y4wuQwEEL5eEvmwhJ3DQBEPbyXZ+E1ZkXl56FRDMmoBgsV2KRDEfisGc9bnkmiCewIpf0obt3J6AKZjdOFsWQIBIJCHxw/YdN8QaKZM6HGyeq0/Mn6inkqROxS+v8HnvUiFb/sxc0AAAAASUVORK5CYII=;container=0;rounded=1;" vertex="1" parent="30KggWmX4pOPK8MYpUQ7-28">
          <mxGeometry width="64" height="64" as="geometry" />
        </mxCell>
        <mxCell id="30KggWmX4pOPK8MYpUQ7-17" value="N1-API" style="text;html=1;strokeColor=none;fillColor=none;align=center;verticalAlign=middle;whiteSpace=wrap;rounded=1;container=0;" vertex="1" parent="30KggWmX4pOPK8MYpUQ7-28">
          <mxGeometry x="8" y="70" width="48" height="20" as="geometry" />
        </mxCell>
        <mxCell id="30KggWmX4pOPK8MYpUQ7-118" value="" style="group;rounded=1;" vertex="1" connectable="0" parent="1">
          <mxGeometry x="1230" y="320" width="950" height="640" as="geometry" />
        </mxCell>
        <mxCell id="30KggWmX4pOPK8MYpUQ7-29" value="" style="rounded=1;whiteSpace=wrap;html=1;fillColor=none;" vertex="1" parent="30KggWmX4pOPK8MYpUQ7-118">
          <mxGeometry x="-190" y="-110" width="1140" height="750" as="geometry" />
        </mxCell>
        <mxCell id="30KggWmX4pOPK8MYpUQ7-35" value="" style="rounded=1;whiteSpace=wrap;html=1;fillColor=none;" vertex="1" parent="30KggWmX4pOPK8MYpUQ7-118">
          <mxGeometry width="740" height="550" as="geometry" />
        </mxCell>
        <mxCell id="30KggWmX4pOPK8MYpUQ7-93" value="" style="group;rounded=1;" vertex="1" connectable="0" parent="30KggWmX4pOPK8MYpUQ7-118">
          <mxGeometry x="120" y="50" width="460" height="57" as="geometry" />
        </mxCell>
        <mxCell id="30KggWmX4pOPK8MYpUQ7-39" value="" style="group;movable=1;resizable=1;rotatable=1;deletable=1;editable=1;locked=0;connectable=1;rounded=1;" vertex="1" connectable="0" parent="30KggWmX4pOPK8MYpUQ7-93">
          <mxGeometry x="406.1601642710472" y="0.5" width="53.83983572895277" height="54" as="geometry" />
        </mxCell>
        <mxCell id="30KggWmX4pOPK8MYpUQ7-37" value="" style="shape=image;verticalLabelPosition=bottom;labelBackgroundColor=default;verticalAlign=top;aspect=fixed;imageAspect=0;image=data:image/png,iVBORw0KGgoAAAANSUhEUgAAAHkAAABXCAYAAAAgXOoPAAAACXBIWXMAAAsTAAALEwEAmpwYAAAAAXNSR0IArs4c6QAAAARnQU1BAACxjwv8YQUAAAaGSURBVHgB7Z3RUhNJFIbP6RkVra3apCyt2qsdiXtteALDE6w8AeRugdoSn8DwBMZyEy4NT7D6BIQnEK8FGW9XMFi1N7jp7j09Q1AhwZlkpjOZOV9RMJB0wuSf09N9zunTCDmk0jpaAcSXcdpI/HLPX/3FhxwigMk9LHIBYJELAItcAFjkAsAiFwAWuQCwyAWARS4ALHIBcCGPKDgBobtxmsDp3AkwDMNkFoSUqbQ+7WgEL3IDLV+/X7+z4W31PKH1DsRACdzw/yi/rrw4eqQd8SxWWzxdzGsUKvV7shEYQXuRGwjx8+AwVjvCkaocvgaU4rbNMzy6LgD5HF1nHO9ZrySu9xvqi9v0n5R9SBm25CkgbsBTRPHYuaF27m99rEHKsMiWuf/iYw1BbZz96mktdua3ek8hRVhkyyhHXMo9Q60aaQrNIlvEJBjSnNUb9pgRutI6jpV8GBUW2SIa8WprRVhJw6JZZEuE9+IfO4UCi273liFBWGRLkBWvRH+2atI0y4OESH2eTFemTycYvYFSnweHGsCHGCjH6YUHcKKdeG3TRgt8GONTKDlzynTbdUiA1H3XTOD88GhOfAgxQVSL+6t3ujAh3F1bwHX7HoyBUvAIEiBSdz3f6j0mh3/0N0R9crB2e8kcVrZoWqDQi9pUg9ylKFTDuP6c6/pviIF0sGmiUGaQo4UTa5QqxWndRKEmOddRKNTVcbpM8oot0+fQINfnRAkNkUTWKBcQsAbR8c/baqwhRo8I0Yn5wcEclKhxDWJAUajt4D0FevTh12AMJjnXkSCWYDxK7ly/Sj+7MAHcXVuABp4ejInSugoTwlGozOMu0y3vgbnlDUm+OEFNMwmQbxHdN/IUdodFtVjkjEPjgyoNVKp0+xk+FULzJWpm3ujcoPFT+9Me3W6aB2vl7cFTuLu2AGrtgyWCiwJUp9I+PvRa/wRdPVuyBciyfLCP56Dzhrr6DluyBaRwujBFWGQL+Ks0GKIBEkwBCWKTRbaEBvUcbIPQMRcYi2wJJdwOWMZYsfnJIlsi7LItWvOZFYeHjBWCSNQ12QCBiSYEjMCXKBZZZAv8RvNUCdceBgGPMX3psaEBnhRiYSCwwa20j+gfwN+BmRxtgipYGiwNUmCsSIE1SGABYvFg9XvXpkshm8f0aA2YZBjlfkwfGkWLpXfr5b2LDwi60sYNgzFZQJsghdqUN8XCMIENLl13HjCzhxGX5t79W27Tr9++0tHiUt/ClpxBLiYxBkEOAb5Wzp5Q/bf7f0bP/eIARTbx36/dvgcJwc6QDEJWnKjThEXOIArFK0gQoacT62RG8Y07MinYkjPGIKiQJILm7j4w2SAFKzYIheoDMJkgDSs2CJtJZswVpGTFBoE88MoCflpWbBDTTjJjguW922lZcfD65lulddxj9+bU8A8S9G4NI5xC4WQLqpjxEVouQcoEImsld4Gxj1bP363f3YOUCURWzrVE3WhMJHx5y22ABc6TGObbnw65sqw9JIp7aQ62vuWrW1PLbWCsYDI5bAlsOBfZAZe7bBuQ02N//U4DLHIucpAfpLELTJr4ck48Act8H4VSU1ivUxzChPd62frCt0vZo/Pt48Mo5QGZGJzlQ4/KpkybS/FkClik5kMtKqjU0rQEDt5/2B/ZmhNEy/rB+t0OTJGhmSFCqkRqOhaeDAhsGLmio9I+NtXwEin7VzimfA++yMgcL3kq6tMqgTDj+FkS2DBSZFPP0QwYgImMBr1npklZEthwZbamWYphXHDA/BiKKKmbzqJNd2VUIq2yrPx11LG0Qn72MAvPUG7ur91tQkaJlHct/3M2tMZMdUFZIOiehVjIssCGyOulw63n9A7i5FVbZ56zZaO2Aw3jEmtRPAsNpoB3VwqnnsV77yjGqnxQaX1sApoyFMXBdM1C6idx1gVnhbHLW9xvH29ogFgbUc8oPg1dGt+WFp41JqphEu5WrnZy6eembhnQ6cyyuAMSKVRj9iA0W9TlQmwSF5XenMVueRSJVSMyVu2q/opCsTxzYhthQe+GRVbKuXPlJl5yyojtKFnLvGUPhBX9jtkqCHJMqnXFgv2ZHFzREGxh58EUCavpqNdITh15y3mVR4sdhbXiced1JpGsHLCapuhGUJrLd005JFTyg/zJ6RZJ1ItYE/ki3steyf23X1XCfQDQL6PAX0GFwpNIpaEbZmlNnqaz8KepaaX159D7hD4Nlvy+2/fz3vWOw/+xF4NZWazNOAAAAABJRU5ErkJggg==;rounded=1;" vertex="1" parent="30KggWmX4pOPK8MYpUQ7-39">
          <mxGeometry x="8.201601642710461" width="34.76258726899384" height="24.99706658844236" as="geometry" />
        </mxCell>
        <mxCell id="30KggWmX4pOPK8MYpUQ7-38" value="N1-API" style="text;html=1;strokeColor=none;fillColor=none;align=center;verticalAlign=middle;whiteSpace=wrap;rounded=1;fontSize=9;spacing=0;" vertex="1" parent="30KggWmX4pOPK8MYpUQ7-39">
          <mxGeometry y="26.462857142857146" width="53.83983572895277" height="27.85714285714286" as="geometry" />
        </mxCell>
        <mxCell id="30KggWmX4pOPK8MYpUQ7-77" value="" style="group;rounded=1;" vertex="1" connectable="0" parent="30KggWmX4pOPK8MYpUQ7-93">
          <mxGeometry x="179.46611909650923" width="103.90143737166323" height="50" as="geometry" />
        </mxCell>
        <mxCell id="30KggWmX4pOPK8MYpUQ7-61" value="" style="shape=image;verticalLabelPosition=bottom;labelBackgroundColor=default;verticalAlign=top;aspect=fixed;imageAspect=0;image=data:image/png,iVBORw0KGgoAAAANSUhEUgAAAHkAAABXCAYAAAAgXOoPAAAACXBIWXMAAAsTAAALEwEAmpwYAAAAAXNSR0IArs4c6QAAAARnQU1BAACxjwv8YQUAAAaGSURBVHgB7Z3RUhNJFIbP6RkVra3apCyt2qsdiXtteALDE6w8AeRugdoSn8DwBMZyEy4NT7D6BIQnEK8FGW9XMFi1N7jp7j09Q1AhwZlkpjOZOV9RMJB0wuSf09N9zunTCDmk0jpaAcSXcdpI/HLPX/3FhxwigMk9LHIBYJELAItcAFjkAsAiFwAWuQCwyAWARS4ALHIBcCGPKDgBobtxmsDp3AkwDMNkFoSUqbQ+7WgEL3IDLV+/X7+z4W31PKH1DsRACdzw/yi/rrw4eqQd8SxWWzxdzGsUKvV7shEYQXuRGwjx8+AwVjvCkaocvgaU4rbNMzy6LgD5HF1nHO9ZrySu9xvqi9v0n5R9SBm25CkgbsBTRPHYuaF27m99rEHKsMiWuf/iYw1BbZz96mktdua3ek8hRVhkyyhHXMo9Q60aaQrNIlvEJBjSnNUb9pgRutI6jpV8GBUW2SIa8WprRVhJw6JZZEuE9+IfO4UCi273liFBWGRLkBWvRH+2atI0y4OESH2eTFemTycYvYFSnweHGsCHGCjH6YUHcKKdeG3TRgt8GONTKDlzynTbdUiA1H3XTOD88GhOfAgxQVSL+6t3ujAh3F1bwHX7HoyBUvAIEiBSdz3f6j0mh3/0N0R9crB2e8kcVrZoWqDQi9pUg9ylKFTDuP6c6/pviIF0sGmiUGaQo4UTa5QqxWndRKEmOddRKNTVcbpM8oot0+fQINfnRAkNkUTWKBcQsAbR8c/baqwhRo8I0Yn5wcEclKhxDWJAUajt4D0FevTh12AMJjnXkSCWYDxK7ly/Sj+7MAHcXVuABp4ejInSugoTwlGozOMu0y3vgbnlDUm+OEFNMwmQbxHdN/IUdodFtVjkjEPjgyoNVKp0+xk+FULzJWpm3ujcoPFT+9Me3W6aB2vl7cFTuLu2AGrtgyWCiwJUp9I+PvRa/wRdPVuyBciyfLCP56Dzhrr6DluyBaRwujBFWGQL+Ks0GKIBEkwBCWKTRbaEBvUcbIPQMRcYi2wJJdwOWMZYsfnJIlsi7LItWvOZFYeHjBWCSNQ12QCBiSYEjMCXKBZZZAv8RvNUCdceBgGPMX3psaEBnhRiYSCwwa20j+gfwN+BmRxtgipYGiwNUmCsSIE1SGABYvFg9XvXpkshm8f0aA2YZBjlfkwfGkWLpXfr5b2LDwi60sYNgzFZQJsghdqUN8XCMIENLl13HjCzhxGX5t79W27Tr9++0tHiUt/ClpxBLiYxBkEOAb5Wzp5Q/bf7f0bP/eIARTbx36/dvgcJwc6QDEJWnKjThEXOIArFK0gQoacT62RG8Y07MinYkjPGIKiQJILm7j4w2SAFKzYIheoDMJkgDSs2CJtJZswVpGTFBoE88MoCflpWbBDTTjJjguW922lZcfD65lulddxj9+bU8A8S9G4NI5xC4WQLqpjxEVouQcoEImsld4Gxj1bP363f3YOUCURWzrVE3WhMJHx5y22ABc6TGObbnw65sqw9JIp7aQ62vuWrW1PLbWCsYDI5bAlsOBfZAZe7bBuQ02N//U4DLHIucpAfpLELTJr4ck48Act8H4VSU1ivUxzChPd62frCt0vZo/Pt48Mo5QGZGJzlQ4/KpkybS/FkClik5kMtKqjU0rQEDt5/2B/ZmhNEy/rB+t0OTJGhmSFCqkRqOhaeDAhsGLmio9I+NtXwEin7VzimfA++yMgcL3kq6tMqgTDj+FkS2DBSZFPP0QwYgImMBr1npklZEthwZbamWYphXHDA/BiKKKmbzqJNd2VUIq2yrPx11LG0Qn72MAvPUG7ur91tQkaJlHct/3M2tMZMdUFZIOiehVjIssCGyOulw63n9A7i5FVbZ56zZaO2Aw3jEmtRPAsNpoB3VwqnnsV77yjGqnxQaX1sApoyFMXBdM1C6idx1gVnhbHLW9xvH29ogFgbUc8oPg1dGt+WFp41JqphEu5WrnZy6eembhnQ6cyyuAMSKVRj9iA0W9TlQmwSF5XenMVueRSJVSMyVu2q/opCsTxzYhthQe+GRVbKuXPlJl5yyojtKFnLvGUPhBX9jtkqCHJMqnXFgv2ZHFzREGxh58EUCavpqNdITh15y3mVR4sdhbXiced1JpGsHLCapuhGUJrLd005JFTyg/zJ6RZJ1ItYE/ki3steyf23X1XCfQDQL6PAX0GFwpNIpaEbZmlNnqaz8KepaaX159D7hD4Nlvy+2/fz3vWOw/+xF4NZWazNOAAAAABJRU5ErkJggg==;rounded=1;" vertex="1" parent="30KggWmX4pOPK8MYpUQ7-77">
          <mxGeometry x="34.56942505133465" width="34.76258726899384" height="24.99706658844236" as="geometry" />
        </mxCell>
        <mxCell id="30KggWmX4pOPK8MYpUQ7-62" value="grpc proxy" style="text;html=1;strokeColor=none;fillColor=none;align=center;verticalAlign=middle;whiteSpace=wrap;rounded=1;fontSize=9;spacing=0;" vertex="1" parent="30KggWmX4pOPK8MYpUQ7-77">
          <mxGeometry y="29.606956521739107" width="103.90143737166323" height="20" as="geometry" />
        </mxCell>
        <mxCell id="30KggWmX4pOPK8MYpUQ7-45" value="" style="group;rounded=1;" vertex="1" connectable="0" parent="30KggWmX4pOPK8MYpUQ7-93">
          <mxGeometry width="75.564681724846" height="57" as="geometry" />
        </mxCell>
        <mxCell id="30KggWmX4pOPK8MYpUQ7-41" value="" style="shape=image;verticalLabelPosition=bottom;labelBackgroundColor=default;verticalAlign=top;aspect=fixed;imageAspect=0;image=data:image/png,iVBORw0KGgoAAAANSUhEUgAAAHkAAABXCAYAAAAgXOoPAAAACXBIWXMAAAsTAAALEwEAmpwYAAAAAXNSR0IArs4c6QAAAARnQU1BAACxjwv8YQUAAAaGSURBVHgB7Z3RUhNJFIbP6RkVra3apCyt2qsdiXtteALDE6w8AeRugdoSn8DwBMZyEy4NT7D6BIQnEK8FGW9XMFi1N7jp7j09Q1AhwZlkpjOZOV9RMJB0wuSf09N9zunTCDmk0jpaAcSXcdpI/HLPX/3FhxwigMk9LHIBYJELAItcAFjkAsAiFwAWuQCwyAWARS4ALHIBcCGPKDgBobtxmsDp3AkwDMNkFoSUqbQ+7WgEL3IDLV+/X7+z4W31PKH1DsRACdzw/yi/rrw4eqQd8SxWWzxdzGsUKvV7shEYQXuRGwjx8+AwVjvCkaocvgaU4rbNMzy6LgD5HF1nHO9ZrySu9xvqi9v0n5R9SBm25CkgbsBTRPHYuaF27m99rEHKsMiWuf/iYw1BbZz96mktdua3ek8hRVhkyyhHXMo9Q60aaQrNIlvEJBjSnNUb9pgRutI6jpV8GBUW2SIa8WprRVhJw6JZZEuE9+IfO4UCi273liFBWGRLkBWvRH+2atI0y4OESH2eTFemTycYvYFSnweHGsCHGCjH6YUHcKKdeG3TRgt8GONTKDlzynTbdUiA1H3XTOD88GhOfAgxQVSL+6t3ujAh3F1bwHX7HoyBUvAIEiBSdz3f6j0mh3/0N0R9crB2e8kcVrZoWqDQi9pUg9ylKFTDuP6c6/pviIF0sGmiUGaQo4UTa5QqxWndRKEmOddRKNTVcbpM8oot0+fQINfnRAkNkUTWKBcQsAbR8c/baqwhRo8I0Yn5wcEclKhxDWJAUajt4D0FevTh12AMJjnXkSCWYDxK7ly/Sj+7MAHcXVuABp4ejInSugoTwlGozOMu0y3vgbnlDUm+OEFNMwmQbxHdN/IUdodFtVjkjEPjgyoNVKp0+xk+FULzJWpm3ujcoPFT+9Me3W6aB2vl7cFTuLu2AGrtgyWCiwJUp9I+PvRa/wRdPVuyBciyfLCP56Dzhrr6DluyBaRwujBFWGQL+Ks0GKIBEkwBCWKTRbaEBvUcbIPQMRcYi2wJJdwOWMZYsfnJIlsi7LItWvOZFYeHjBWCSNQ12QCBiSYEjMCXKBZZZAv8RvNUCdceBgGPMX3psaEBnhRiYSCwwa20j+gfwN+BmRxtgipYGiwNUmCsSIE1SGABYvFg9XvXpkshm8f0aA2YZBjlfkwfGkWLpXfr5b2LDwi60sYNgzFZQJsghdqUN8XCMIENLl13HjCzhxGX5t79W27Tr9++0tHiUt/ClpxBLiYxBkEOAb5Wzp5Q/bf7f0bP/eIARTbx36/dvgcJwc6QDEJWnKjThEXOIArFK0gQoacT62RG8Y07MinYkjPGIKiQJILm7j4w2SAFKzYIheoDMJkgDSs2CJtJZswVpGTFBoE88MoCflpWbBDTTjJjguW922lZcfD65lulddxj9+bU8A8S9G4NI5xC4WQLqpjxEVouQcoEImsld4Gxj1bP363f3YOUCURWzrVE3WhMJHx5y22ABc6TGObbnw65sqw9JIp7aQ62vuWrW1PLbWCsYDI5bAlsOBfZAZe7bBuQ02N//U4DLHIucpAfpLELTJr4ck48Act8H4VSU1ivUxzChPd62frCt0vZo/Pt48Mo5QGZGJzlQ4/KpkybS/FkClik5kMtKqjU0rQEDt5/2B/ZmhNEy/rB+t0OTJGhmSFCqkRqOhaeDAhsGLmio9I+NtXwEin7VzimfA++yMgcL3kq6tMqgTDj+FkS2DBSZFPP0QwYgImMBr1npklZEthwZbamWYphXHDA/BiKKKmbzqJNd2VUIq2yrPx11LG0Qn72MAvPUG7ur91tQkaJlHct/3M2tMZMdUFZIOiehVjIssCGyOulw63n9A7i5FVbZ56zZaO2Aw3jEmtRPAsNpoB3VwqnnsV77yjGqnxQaX1sApoyFMXBdM1C6idx1gVnhbHLW9xvH29ogFgbUc8oPg1dGt+WFp41JqphEu5WrnZy6eembhnQ6cyyuAMSKVRj9iA0W9TlQmwSF5XenMVueRSJVSMyVu2q/opCsTxzYhthQe+GRVbKuXPlJl5yyojtKFnLvGUPhBX9jtkqCHJMqnXFgv2ZHFzREGxh58EUCavpqNdITh15y3mVR4sdhbXiced1JpGsHLCapuhGUJrLd005JFTyg/zJ6RZJ1ItYE/ki3steyf23X1XCfQDQL6PAX0GFwpNIpaEbZmlNnqaz8KepaaX159D7hD4Nlvy+2/fz3vWOw/+xF4NZWazNOAAAAABJRU5ErkJggg==;rounded=1;" vertex="1" parent="30KggWmX4pOPK8MYpUQ7-45">
          <mxGeometry x="20.401047227926025" width="34.76258726899384" height="24.99706658844236" as="geometry" />
        </mxCell>
        <mxCell id="30KggWmX4pOPK8MYpUQ7-42" value="com-admin-extra" style="text;html=1;strokeColor=none;fillColor=none;align=center;verticalAlign=middle;whiteSpace=wrap;rounded=1;fontSize=9;spacing=0;" vertex="1" parent="30KggWmX4pOPK8MYpUQ7-45">
          <mxGeometry y="22.606956521739114" width="75.564681724846" height="33.91652173913044" as="geometry" />
        </mxCell>
        <mxCell id="30KggWmX4pOPK8MYpUQ7-78" style="edgeStyle=orthogonalEdgeStyle;rounded=1;orthogonalLoop=1;jettySize=auto;html=1;" edge="1" parent="30KggWmX4pOPK8MYpUQ7-93" source="30KggWmX4pOPK8MYpUQ7-41" target="30KggWmX4pOPK8MYpUQ7-61">
          <mxGeometry relative="1" as="geometry" />
        </mxCell>
        <mxCell id="30KggWmX4pOPK8MYpUQ7-80" style="edgeStyle=orthogonalEdgeStyle;rounded=1;orthogonalLoop=1;jettySize=auto;html=1;" edge="1" parent="30KggWmX4pOPK8MYpUQ7-93" source="30KggWmX4pOPK8MYpUQ7-61" target="30KggWmX4pOPK8MYpUQ7-37">
          <mxGeometry relative="1" as="geometry" />
        </mxCell>
        <mxCell id="30KggWmX4pOPK8MYpUQ7-73" style="edgeStyle=orthogonalEdgeStyle;rounded=1;orthogonalLoop=1;jettySize=auto;html=1;" edge="1" parent="30KggWmX4pOPK8MYpUQ7-118" source="30KggWmX4pOPK8MYpUQ7-31" target="30KggWmX4pOPK8MYpUQ7-35">
          <mxGeometry relative="1" as="geometry" />
        </mxCell>
        <mxCell id="30KggWmX4pOPK8MYpUQ7-33" value="" style="group;rounded=1;" vertex="1" connectable="0" parent="30KggWmX4pOPK8MYpUQ7-118">
          <mxGeometry x="-160" y="190" width="100" height="70" as="geometry" />
        </mxCell>
        <mxCell id="30KggWmX4pOPK8MYpUQ7-31" value="" style="shape=image;verticalLabelPosition=bottom;labelBackgroundColor=default;verticalAlign=top;aspect=fixed;imageAspect=0;image=data:image/png,iVBORw0KGgoAAAANSUhEUgAAAKUAAAClCAYAAAA9Kz3aAAAACXBIWXMAAAsTAAALEwEAmpwYAAAAAXNSR0IArs4c6QAAAARnQU1BAACxjwv8YQUAAFzHSURBVHgB5b3NskVZcSaWebgNVXRDAaF2dLQiULTkmWQGtjxDM2vSwnjGQHoAdfdYjoZ+AIFfANQPIEW0Z5aoSWtY9Mj0BEo9sogQuMERRFBVkqiiCuqm794rv59c+9yiqInDaNfPvefsvdfKlfnllz9rn3Pz//6jjz1GRlREZkVVHq+eXvTvx6k6fxxH+aVP/8+nk3VcfZ7tV31PvxkY5Lj36YrA9RU4fEyfW+fWBbp+jcOfxwSPteTtExi9X5vQ57uXuSRb33PeccO6sViI0MvQkL2qsnnW260R1wvWRBVQu5AuW192Be6WWtdrCH2jMdZcrXTOB/lhjB7IJsCdZpp5XfJH2FsRgkcJFIdu+uUxjFs9JUOrew56q2WNoZz5e6a/jbnxCw0Ya+W6J0O6w/ni1FmGytomSN3vIvCeE3+nwRd2H9fqz98P42jupRx7Qxrs4zZlPYc/QN2AA/qqFdv/5VxP1DBYy3BcV6fsSVMLCee0eNkOaMbVujPkBOsXgfi86ZS3inA1tCVVB7yWK/ucsQCbsqmhEqy5RWndJs8FfGHpB3qiPFxKaNh2Fa7NDHLa85Y1/D+y/5GHRYOviorNjLZYgJ2yVw7GKXFHZfg/a+JTXSXVgVzm/S1SbQDiChs4aRiHhvreGogX0OBqVRU1JNZg57o2DDtwp9qy+RaDkuyxllzzB+WtMc6iD/BVCycnaGZMvP/0382ADh4N2RoOHBDPxN15BmsTgh4fy9ixwVU9YLXo4Yy35NBizyXe5B4xftbwDtrr+P/t0DrcqQY9rRHIco0kGPYEBGyQ9Jp0V8uQ+xIchkXXlINxgLcXQCcQrZM9CfdmwhINrXMLLARrtglnYJjMrPxkCWC0JiP43INmotnSxm2Waweuef+SrcCKZqyUEdfsoDCIlmn6IG21zn0kj/2KXVx+D7703BokO14OnCxcUH4mxG+FK0pM3A7E2/A71nrLQGCCtwkYDp42JA2LcWn4AnFjjXg1IzHzjH7hbJKbHrcwprfpkGQDxg+NAyNXtT2yLkYJgY1WLwpmDJqkilb6CQq7BjEJWgZbAtCdcihMWN681kNFSKKetyPXUuxSIFaQsl5JCBk9TEGp4WUB6HTZMUiN1WO3ry9Hytxu2tKSvqZksmpoSNftq32fo545+02GiqaGyR801GHaM3mFmPJZhFCEfTL28rpJ1MfpR0k5nSAszc4zH1Pcgq7DuKnZ2sVpZYEti15RJPNgjuf2G8DPDGcx3RgAiDwjqHGsI+WMuiynu96uDHROcZMJGOPDWH0thdjXmNFrflLviBTgPYgZI6MZeou0teMCcirzRT8nOmtFggkZMAVEC1a1lqc1+M/bujrtrRUqAWOwIZV+86trYzsHTMDWy5q1lkDLUA05fi/m6SUDDlC77vhGJsKjKR3hMrZVO0jgVGE5c7R/Fn0eoF4SUa6c8i91e14tcICsOIEVf5z3cXkwiwRRSwXhAc+HddxWrpYSUMlaiBZlautzYX662DSYIYcyVbI2abTVkzAcypgE00/1cA0rcmRMQB6vb9RQab2Loap8cTBuRyQhsfNILMGNEVZYgEkZYayEB2AX9sGGGwuVhSArTnCvZUmTgcBICQMqNSkjQY8tMrzSGakgXbcZWxyAVzg0gCEA8PxPYoUBp9/LuX5ROSqMxRMiX7u4wHL+1nmdi1p4v+ZCPAGgLQlJJwv6QzgrMm7XLCbDXBiuDhm3tcaN4SYlNS6HAWMMmYEcE16zh2EHGRUN5Nws3EPoLbeiId3OE2r9fhLs+icmSJBZM7ypx4nfD4Zq3HPkXQYpTUAGLZ4FiwVF6GVLhZlOlAGkwoOfRUYWW8R5WRzcWQiWMTbKvEV3RUhl0k+Gc7xyULYZ23Hy7ron4Gk+yypaO7GFRSxNurUcE1feFjv1YpJ8wsZ5rFSSg0jIoKudA1YwbIGdnGGbIhL5JEAwwbfBC9chex7XMGytvFXcl2KkBkEJhPfADadyh2JOxjAmBndQsWBB0l/Sv+aFhxbX4D8bqLbeElpRpC2FxcXp6NM0D3nuEfEhGJR4jwbakNMLe+wQixWnaDHApcGfZbNkTqc0Pum1rJpsK8a6pXYctx7SuC/YezRlEINiRF1XcMMQ2Kj0TBUcidcxGNRg1q6GkGnMDQCEhV2EdJF5pYw0dm0ovTKzGPkcFpj6nQ5Ts3rlHKksnnkqkFnBBn+YUwkTC7bTyYrvcS46SYfugOqhFNYw1Dp0nHTWcT4jZrMdyoadXFKy2/ZGLJvjjerWIoZyHNT2HyfDNbMb89TbRAHT4DVhkMKo+Fh+R4VJceEZyESJXxtlxtvbPUO6YJU85MGwmyNIhmURjheNvRuqcQcgwNqaZa7SYyZz4EuKILBqntCkSxajr5GZLcc0XXtCJrEIJSMIqLSMWcmo44Jmv7x0FCKGd7TpqdkVFVN56RnZjrFR0UdHVmNNZ8KhC9MV/0vMkRwrArltn7hRvKqSt0bEqP+rXVR710xoliaQExQKIYxRchCJG2UsK+WPvIX32j2tGE8znFVwHcbj+1gSWQ5BKJJKThha6UXfM6l4lykd7MnIkZga4O6LEuV1EFyUWyxP1g828fs9YDCZ+ZRjoVjURGw6byGbtGnLdAJI2x9vLkrDXMDPyRYnwB7D0hkAJsey2VQpXGs0ytEbnGoJnfoUHZ09ycRk2eKWiWfhOooKTjcETBXJtfkuxshbC9Re1J6FLIY4LKFjmJi1ndHzvyCzecFmrEkiaacilHqt5qh6neacNPhgRM1jmxAt0qMBEeuhI0X4jhioZDTxIXEpUYgR7vvWpGiuidb1ZU5I4Zf3bl5NnYcBbL1SURQWQQg8RcIxSgncQHMg/N9cchf2fC0AkaWEgwpnOlwPT1Yobxfo/6RkD7mxbXHSlehoAmsNQwYLMcOYiCOUj5G8yQzoqCmlCKeNKgvnkrXKWW2vvKv1QvGop4idCQVOW3o6iy3hUDWbkxIV2RAYSy/jrRxRHOupucXJsYCQp18e15g3pR3gCmvx0KtVDhR2vcSKiNXgv2COijSs1bpmb6bESgQwLd296lTJWMxQqBZGpjwFy0hVqKakCpbKsc9shVPckYohDH3S4/fHTuz7psy83KNxsEnEd1hoFNcAvWlNBgg9DDIYOy6P3Rkq0tCq6wlyf7/1l6N9pHk40EIdiSW9WKlTJ0qFUmdkxE37fV/eEhwgrbRTU4U1IlkoCgDjHC4yFcDxNt5FOO7j5qLII2FMtsrKaResVQCEOZgrWgWCURaQetyaVOgw6vnLI4qsGupSmPeBYwpuq55HsuLDHMZkyWtmnhIesu/mfHNKQb2ER4u2XGhSJjOispa4EIAzZjbliZzCjT5VgTkqrEa3XJTiBhzPuKI2hufSLvaO6fhOQDMrsZ9FcBWo7MaI1EKVhSukkUvRyvvEBmXNQIClxExFYZmF0DMe1+5NhZQ42Dc9TiS00/Sf4TlqyG0Ml4gYdhRCb+cQ6KeSw5V2UHOmVWe1teSgr0tncN7aLc+iKJ0nUVl0eGQq0e/L6ZJPzRrvDIfBgnOMO2yy5p4y+/9r+li2wXJmKNAf7yH5hCqdGNDqc/1GWktKHA8o3LBHWAZyz7Hw5smamVt7ImWgBmfrj01l9+xwfDBJicucAbDexFppRGZKS3PnlIcne5jpBBRyFMuN1vFYym8NlkWTCgx0OlOy0pW+Wuw7ugoA2AoDzJtLDGfyNYvzwZYW7mahc6lfhh1MBoINiy59i1o8p9Rd/MTaBfJROr0/7cg1VQgzYjGg0OcxoGKNM2PzuRrCFr4zyKIYnHkgBpT+e1JmC+lJWj8JHqFttbFH3cmzg5YhgOE8w5LkmNGfUKHk6+fGUsamNCEtoV0eOI2KChsnYjK4Hafr2HhgcReqqHLDzqPVIUGgBn5vfRd0pIJrecFjbIK0bFCOGx1WC71OEuigyfUD7Z0xgWgZr7sIpreFQbF1XgWRO2Ukg6bkCsuXOcNNobaf2lBxQGVWh5cYylW/EPnjGidsI1lbkDUyEAgn5pBrAwj8qAU5xKBWkg5krTHNa8Jz22sBZDyI883UWMtkQEiicGehM8pYgM5qlmL+Kn5XuGwkQMRm04DD4qIwbtG4klm5ZpiMcqouA5asFqwBxE1mE46CtaKT81T5ZWBOtpQoiB8Z1lWwFR2vb2BItmqUBSYAtQDS1Ts9cYEmt94d2E+AXZ6uMFwVbICVJoUhyVKR3Inx1UGjw9jkmR7HuVK0ThBVUfkAnoBVGje56SMrbWlqxOUNma6M4fez9vvAaEuA4gXr4Jos62lvzCZSN7sBOVIAKq1dRZOsHWA13tqhc1YndOa0yB2TkcOin9Y24U5TVnkwOOr+cuY0n6rOFUXdK5zk2Bf35i7vJLhK4/IRsiSjtuSJsbDgXZbQ4mteF57NEQSQYx6q8lE9kOFRUF04CPC6ngcgqmPqvodfe8jE/V7cGyvrOsEUKQbJp4bPZJiiGE+QSvcJANxYt98oyN8O1JGtwRlIt5pHBDAUn+EoLNMcE72F9dxNTukN6yLEqvVpxvRkOTFRasF4q/yR/tpaBWJLgQPADMW2El8rLykaFRdbwzkcBFgEf0i5liAMhyV74qf3ET2siwVVnfai1+tH24o1R4nwKrfkgDXrO0Yh3rfmal0NFoKaGwjr+lSBicwTi9LiSQbauTI9yhSxFUW08fpfmib6mq3orOkjIiStr5wRJQPMX6hfcP/670EFitOws00RSOeHIar4DDDylwiFP1Xd2r0CuQpgbG0EJDo/Yv1oOxPMjQwoIK1Dhlu3FZZ2F2ALbFpdtMQ4MtMS63IrJFpEBpzc7koCsL369uIn4h/98/9Om8m9ttLMGVOxGjXM9DnP+Xjm27kjS1qya90nxzjAE0BgkDVe7dUiCTtPvvOdV9hyNidxo44VYNT1Rm3UFM1nObyiVX3q9cEsdZgy7BPkYDsyaRkyKmUcU7S1+7HwduwCxIrTd4JEkUA756/nHGWMGAu0t0Sa2wOLRGutIEAdOTRWYmsLoWCAUkp65yAeF3afwPjJL3w1XvzNz929ON7f8X6v+//8ePe17+bf/eWX68ff/FP3qe1hFCNz1Fxnp+VGfOE6gLX/7ZtFGA9hIMyq2qu32BhwMB5fqMmLkLwAEkX4l+Kch1L3/24EjhB7Ho+l552qXIgUyEEAC61L3roa/ibiazLV+sFfLTPyzb2N9E//8OWDIeMfyvGhT346PvGFr2W88FL8+BtfLURGkoJAhzCRoDMEIpRMDkML0uorP72+YW/VKzhEATJLhG0ZpkJrzlxu3baKFuYKyPkYEAaRcyY4BBbbCb7mK31+B60bLQpx3bzX2DvDiqFHReLlAJoTkUExYelExVTER3/79/9BAdKPj//ul4IZEvM6RDcmBLFnIihiREtw8FiVQ0deRMSHNjqQb92bZKZAQwPLLQ0k2BkwQsEer8RILerarRFr7qGgXa4szI3fCXykHu4aW3iGdk6HKXqhKlZn1fb6UoLV857nP/zrn3U7Rf3kjXj3rdfjl/V4+OSv8ffbiy89OeRn4qff/5bZhHrmW2RKaL2xhBrAk6T+PRP16JPOH04wkg07h/MQm/ICojAjkYpmRgn5FlNTFSgYtd8IpG/KK0v/b98y12NrSulFUiEodNx5Vlg2J2EI3h3AWZEZrxJRK5+xXjfScbz+51+MN7/5p2Dfla8C7CaDz+dG2s/hgLD1TO65MRLTf9pzL3eYpqmLkQzD1tmwtR7HP/vSq09r/jTnvb3wcV5vPynLJq+KVS6NGV+U6lqB8/Gx1ncJpfa1KWgNQLci1Lqpx+ti2M5IfbQ2rI1hCgMsXVkBwG47QMhT7WmHxfmL5TNJ7DXlwbz7a8h9b525pbNMWaouY5lCWaTdA6RdWcxbK9QSKzm1HG7lDmssDaQr8pJtmdABci9g5XYjIIdTh7dxlOjcX2kTAPilMUNWTGkIspXLzdJ9eWRqmCVtLTlvvsdT5mnq5U1FWWMyisNVhS0I3icA6pr1/DxCYo3PM7Td5FNKomlQ5Jhy1FJui4VFxIwAu45T6su4A551DcYsEy7uXplDbqyDD1P0RWWMJeeN9L4mnMvn3ZktWsv8phEgkOsH6yL3i/RxmM+5nCTRqmcRua0Vm+TbHMFzbaQb5L01gbAvRxHW2+0hD4N413Dh71U41tmIZp6ghwtwTwjU2W+3QhARR0rQs9C1mNtlpBvQJDLjKOSEORLZv7r1tNQ5UIO80sLQpvUc/sfGwjxMx2McOfWYbq2vtIbEuZWDLCV0vh330pVI1/81oOVIA9LWq0vaPqnAiw5N+rUqLqbaQDQlEt/3r0NmD0Wz0W7EtelOsshyEU0zXaEKVsi1eTEL8zUU8c1cgYysuo7qgkjMF8WHONIIjIUTf29uNaUniXVaIeVgYhPPH5dggcjBf9oo2qWYuy/Y92KeybknCCBzqiobMpYDARFkGmJj2GU8U4OhYV2wrFqFpKydgWtjW+6cWIFIHqx+gpxxW9MKRlcnVCe6dHXw83AdQDkRZZd6bJ62abrzH4+upYWpxF73euAChmSdq7gw9o+dQpJ8FonH0CouSzOKyZkrphjRdBjXUEa8kR19xZbDaFszJ+joVD1QW7tlnxW9UoaLnQJ0hzTCZSQIfawoy3/Ttu+CTpCD26r6cb+CRUy+83J9V2VGeQSomatiDmiSuvacOe/lw2HnoAs6LdZKM4YDcNmavwav7dRrnjuYEsVF8YmgCPOg1omAmwpPcghrwegplMDvlm+BfWUkOZE3qc9rOydDb3ZQWQVlXitJ9S7bA8kIPYcXIee/BQO1Cmvz4u335wx1BWISdCUig5USOmPEOX5h/zSkVBu/y4nE2OfPzGGn5P/otHR2d2re8AiMB4HYLHyPJMOG97Esa9J7wYEDn88ylMLOhtwGzXHill2UgSXBi/LetGWIB0eVSgoW4THXtK9pgZdmbCDtJeh3A65X5gBpNMM1W7Snjx1bfKUeZFU0RP8otCkfigczN0pjlgnUaShPR+y7kmJkEjCk32i/e8oUcXWBDE89kD6hQFHNYOzEDsUO3LZTyplCDo7XMchaK0AaU4O14CwJHXB5JBZzILoY9N416ynADZUw8jqqw6yT4XC8w1pIZMNuM0Yto66lXLFFWA57jo1vwEVoDzOUueUI7274hlhVWTzIvDBzhrZVbbBu8JZeNVjbEHHHSv0/tcHGmRiP8MgFy6ikvap/pIjEpykPw1CHCs0ev6VFok396I6q2uHe4qSnWpOF7WqwT0r8RpUIBMUlyWO4Zt/Ab+LIHrbvfghlmTxfUFp4bmFsyXKRz8OMTqjbuX0AOQ5z3nKseSJcwfG19Zi2lpjNeekqM1TdDdkfufgcQS41VwAX7UQoTBFiM56JZ7H1qq27cK9zECAAMmNY+y3KXE7vEQhykjIWKPPIrOQ6eqy6D66xKWaszohz93AeziFjGERAUpMe00N1nJ8TgoiBUJ5nfmzE33AsaHp+sqrElggf5o2swstC5ror4eHIWRRmm+9T2r1HRWmVnhL5+U+UpYdb5Bth3qKBR4ROUygrIggAd2FBakVM5xk+1idmDKYf4uwVxCjzKcuiDIEkRGW0t5POFjF6TehXBvU/05Aysc1NQW4xHG3YAuTAqBfLzwJfxwLL9rJOf07dA234iIGlny9uC+41Pr5AjDgbldyBiXZFOUA0emwNa7YvFC5bcWkyrnOsYsNzgbXCok9hfhjUOgfcUkRFDqCNnBL3hUfqUmhN82xz1NiOG3pJ5eBvRUqfq1Vn543dBlDDogYSYatO04HvDJgjgSnRXti9rckxndSfmkMR4s4hHYVadDA3xkv+TPFeGHGOMq4X2Tc+RPAzuMWlhO+fruFxPqdr0sPduN1UYjQqBFcoiOGNPEW2wgO6h7sMuULxpjrk7vlgxIgWFtq84T69nwyecyiFTza1T/C9/uf/Nm4f/cSJrOP6n33/25zLQjQ1yfu7hUDSSzFOJZ1kyVzlIIu4yAKT62SFHHrc5OqI48uo9FyAmkzRaQHmvWSBduAZb9e1mt82Y2V4akO6c/9vo+G7NBfuHloPy7ewDOYVonEoQyzUq9k4vsNU+Hqp0XAPr+FFCewi7JcZAe81gzLSmEMgk9DnQ+1pp/bREYvZOZcXawVjRSWVZvzs/3mVxVA7BRJQkvhkscKzJKoyh8xlawFuoZL7uADTITAouilqHK8fG2jSe6WvkUWd1V+U+24ihejsNsOhRDKwXiVpiEpM+A00WWNtsT445vxwqpcMVKVMWIAlKSIHY48zWChgrV4tOxVB3BQpLe9DoREb6zD3K6YMkTtxV428NuQxaWGnzBsY4svCfPOZhSQ6KGqI/lcKChRIeWHrfmNLFbQ+Gtfk7ii6Hd6GSftrDTkUi9RUObqlETB0GP3qB4bo/zLuHTqXzBmxKNc3a8iI2YFQghwh0zL7vZVVq1pchuc+Diwo/uLHVk0SZA6qWCD2tpCzJlfLMea2H0F+L3EvptYollg0CbTaDtVcqQ/6J/gUwFtSDY+BbOyiGWpFjBNL+NItaAxOZ94EQFvbqsB6UweIFNboxvU6v4z4qDEazB185DQCrOjP+K7uYTJRdabpxHTzuHtTEeQs/oTUWoN4rf30/wegjTraWy1FS0zPsffpbf3enttAYDEIiKHzzgYQ0k5tdWoKEjZDtkDtvY1QzzM/8hufjX/8P/xBNAXFT3/w7fr7b3wt5abt3NYW+tQX/iQ8whw55ONP3ohgJhXde1pyf/R//IP4yL/4bCIgvfVXX8+n/6Sm1sOH//ln4p989t9QcY9vvZ6v/8UXYw/hcJJjpk98/it5PFgLtf3tX/5xvPva92BN6gBGcxyxw7GnE+XzuMlpAUWAuyHcAJVwEJpXfsIkm+mFkVZjONFVzAHyB6nfiwJjm1R4UMcrwxGKBElMhJxLy23B6OHO7PPxubL7z7lZCNDIksOS+/Le3znL8dmS4+MLON7+61fy777xVbBsYz5GRPHrj+Pv/uMfV731RvSH0poohIXjSfSP/vYf8PqfvfY38ZNXv25tn5b0hY+Psd997bvxxl98KcrWuuCYTBFe+K3PjQds3/zmn8a7P/ruHkLMc/Gy2NXIdDK4kIiScWD3EODRgXo9PJ8OftDcyYzVU240FlbIyWRg9htaQmSFYg8CPiDFVsxvQNOWH4ofgA3fIcP2DoE+4xpxCHrn6fYlKF7QD1OkGIYhSuF3pZb3tOlT5rhvDxB+jxd9MvCzLZOIS1/OJreDDppyDjLZvbEzLhEIDskOa6cvZbSRsW3ARaj4RFxpAismVK2aXebjHTwc0ikeRoAcWDt4o+HdqYWcJ8CjUfx48/E/fpMvmA2ygmWZ7DMMFF+jGtZ1aNNUeS9SUtCt9VZm6mdRaYw2VWzkL89JU4LGcllx/gKDEoBRFC1HgnLuAcfnkzPcwcc2d5IF+8bL4es5j/6C0+c8hKEuiKeycyMNiAh3oNzf7+gVDn8VmMHS467Q1g5ikdLRNdjOqjG+uCXNKWz8tu9B0reuPvHR0zAfgcdRCc9aIW1jZ+QrMnx7jCi8DXteYpXwOfHIKZPVd4WejMe1kfPBDDFP3uUxyhPpCRDnvru8Dezr52gmXK53533uQoalZjmtc8vfr2omazs087kF9G4dZOlp5N9TJgAs7omdsc1Veoi632sUZmyDr0KnAQ3A4lYyafB5SlacZepqJi4TNrl9k3SWCsmCeL5YF0oTxUd6GD8FgYaYaExlEmimEG8RxQC0cvOselajAlT3Tlox98HT4SUEzr0qvt5R13nvjJxGO1hn2Nov45YAK6b09YfSDYEuNRuA39OW2J+3VnjlcPdgFOTLuWYoB2mDUlhVQmk5AoANmccfDGUV2/8t4TBsJ69rwQrTmKQJjswbszkMei6LCbtnI53hE0IpMJMb4g4TRTJ3yZal7sfiASjkQUwd7oXNnC0UMXHVs1TJ9TF6XjDcTOHF2SkAWfIOIrqERSALqFIMazmeQCcD7MCPiBmGlb6x6o1d7kVYqBZC7aAxXmjQ2D0MbaqFJOvrtsw3oNyT/uiEcxkQ2cr2IG/NRNfZAGGCrksBc2ibtVcbp4dgv05snLaYCFc15BHANn3sR8MbXtn0WsOBhgK7MLZ8DM71HF1mhyoAd9tWwzXG3Atgc/5nFtBIWLJXiH00wWCjAHNJI4iKQ3yEohQv3XPsy5KP79FJPZjBOblmOQ/17VUuxZZ/PeDrMiYQuJBQWC1TVzIUn+OyUxJeqc5oFL6lpdDFVkjLJXAUE+8GfHtW8L5ODcIepWu9VB2tmhd+43eG/h4+9Wvx4m//wT1jP4PgiBd+83P57lOf0nxuaadvOcb04/j2jBd/+/cvVOetnXPCF166IwuQsY4PvfDSJsvvnW739ndeCTyLuJxq3OZAVZhJgGN2i/K0X9cdnfXhfNw5xIsgpuKDNdVb0XBaLIhmtyLIZPZrVvT93v/68TLDj6lbbhUrtavtvETFEHuGYX1Gy1EG4NekxFuMXAbkwfzn3r2BcGTO9qFP/lr+03/18tmj/GU9jh7nD//97x09ywgSg5eS3HIa/VI4fCJI9bWqHibxHPb8b770arpD/fDf/8t456//U0Q8n7s0AC2o0Mwi09riQiC165xy5R8IgwHyXyOrREt9Pqcfa8ux7s7rFvc3kyEFCd0X6RkIcqgJ3NRcpbHtC1sjmdN1LtXV+a/8kgPyOI71ffILX1P4R7oEZVXEDsj1U87P/mAk/yydCp6VtD3eZcsUTkIX3Kk9e8bzhKVlxe516j8i+Hhh3+S7LkvbiCTFm2ydmhY+U4lGL13BWjy19kHIfkpVeq4Iv59tz/AlxTWkg9KL+eAa88Xf+r1LmPxlPT7ylJ58+F98VoBjVNrz0m44FRoji42sTx+4XwRRz/a7kHb27zUSNOaqZMV1pkpBD+ST9pxFqAVyvHgI9gTbA+z1CMeMo4dnheG0E79SYuCFkNE8okY6/R2TzLpGeYQBOLXI9X0+H/rUp3Nc9nTuI78+c8jjy6fe+a/fil+W49g/zxeVZ37kv+31ekKDJOfp1bFn/7Pvf6ukVTBlJRq73rftmLle35LPgG5inHcZu/U7GCfwLEGzb0fGTkZPI3dPHHE8Q33rY8wHeEcwcV6Ei/APgKzcMi0dKW6HMV9pfCJ0CKRLcgJbZXcL6iXY2qVceZIKy/Xe8rOP/e4X8x/bfvNzx1uvfj1+9L//a9+rHU++c+0jB5vPOl6rcjkrjLmTyik2/2xLbdfsTrfuCAPN+j3Si8Hj91/5w5fjeMgEx8f/py9GHP+5cHYce+VP69+YlIyqatyYivguijmOFRwpNENeal18kpL3hOX+aQ8xl4pZFMeHom4ANmM+StoGwzk7GBOO0/j0zuh5RilprrwQLmLGxRChrAE7Mugale6lqiBfXT335xytbgAy584UnAp5sMBT/KNKEGTuOI3gMMJdoROB9doYAqT2iCtmbl2dnZNeag/Lv8jqkztgDPUAfHOYyEVrP/+fd3Sd4wcuFqYrrE/cz2z0nN0hEUYS50p8musPTNH6yX+WfdRMd4EawHtSHXExKvOFutZaKIg6w9GedOlhCu9Lyvd+QUxGUcxRDIQzla7D+s+Xt6QjQGE5mG6toYPe0BUBkNOZsMlwYddNR6UGyPh48Ac6WtV+yBkj3c56/5mtTrddTOdWiy9HfuuEFR2pkssOsiaOh2y6XeZaKYD6kGwhbGIp3BUXZSlGNp90cqE+WBiHyLh47CfZnijSD8GIG5/+fXzrjTweEduPD734ibP/tx/+3ZZYAdKRJXAprK+Vr8flypmdqUQpOjjAi1aOZEis/a3V11shZxQVSRrJkb+/BxB/3he2HjmlUqTQN6shjJrPmzl68PuobJ5jCKve+0QVJY82XZ+/2AZYv3kb6YuBEgr1ZvRaRF1yg4uAIwwyRQn//I7tRluDvgpfmr+MUsLorZfcjXBgALnu8fsbf/HF87+9d3l8/fHx3350Vh0MJARhrzEna5YzIZVczLEdbLrHLle6ecavK/sgyvTnd/Td7NJJE+/5JW2cex7HF7YeX45/Xa/AB0lsAENmWKLQztGPkMVzASkVBaKs58lZ2uEDRU0kXvP2QgSBf1ZYgo+/zZjdPAWgFJtPWZNBlgvhmoSWpo9iyOrbLQ9s7CVZZG5XHuM+rtJuoqTsOYKidhAqIOpdHYLNfUT2W/EePqYRAFJhSCbpLYezNhMKzymLcaD7cbXZU3hQzt26sTyy09norIF/avqyvn6PqVep+PS0wVPeMUCtvuEpW/+RAjqd5zrb3fdCe7WKwqkPnAqm7nSkhaLu0A887uu/zbjKW37mugIjtKKIweCDu8RCpH+YLPrWNhr3jj0apNlqsu26mV6Fe83mg5sB7LsqmscoRBxoeA3LNEPjHoC6o0jSO8KKLurL5fPIgR6hf9CKl6nXWmYoW9F7hnDaHlC0eWOvVcrSrSTLid3b35r27xY6YT3pEGvuc5UIu0j17gDuoBvp3ZohmznS+iC8rzDG+Q8NRi9qIG9KIUWHeV8JeB0+VeC0JO6cDRIxAKmaCzcnuSjwFGsYiWTYazYldgYbpgLvkKx/fd6JlAxVldwQqGZTpotqowF4SJ+LQSfzLsMCMtc1Xn53xF/PgZ47xJXVAsxynn+mMxQkJZvNhV4f2dbQ1hOxAg5Fc0hzHjcwoa+MyqS3DG9bJmDSE2Ovsd3BHugIPqWC+xNyMfwKAC5PIedvZ9iVpObvfZ6sLvLk9UjT6U/UCnI95cBFtdE527nWvKmxl07E4TBCA90VjvTAgQcmVgWegWizxs308bW+jUW3hGGkHw4+dyoWynjySJHkHkOnhW/pvdhS2vNRKbO4HsMLL86W/njnVpdlZmBfm4LM/xeXXOU9qQDzKzyXh/nRx2Q2rb7Vsn2rhTMWfisxWMw2Fgxw7wCTphHBdckZCiur8inqP3OkG0BMeGNdLZ6RooTsA5Y4f98ciXkg3y/8a329itidMiYDspBUJsG0ABGLy4bjoGlAJ5ON4q5CsZ6KiFnAwJFad5k78jiG023xg2IY/xYGgkAIDeEkDThjAtySifottOAVBoOKg4qTuYNcBLbqfVML5+uXGXg8u4CiCdY7uCwPHVuaNBm+E+tCLYU1KQ9jgz/UWF/jWHMcqQoiSNRsM9Z+b4xWVcXcTdrBclkfpvXTj6UarnbmXkv29AMujxYYWPt+P6pMXwHLZ6tBAYHsmJ7RcaMARdgx2v7gxy0m3ITuKrKMvrAA0JAXJpLXWg8EO2oFaAIxYguLyL2ijeNtKKzUOYIG3cP5fR4MKb7Zr/bYoPbN+RoAYYE2eg1MsUflb8WZV7zgLTF8DPXv7FYB5nMSKFnn7romcFLxWjl9GNBw0lUXWr6v6d6M2NoAxUBm+5lDNrn4XZArTeG5fGDqua4IZt5bkDnV2v1Fc2NIKo9eOu2/MgtLVe+0FkEAwEpxzrbdvKZXl/qoT/976X/+Srz4W5+zta+ftxevjfOkXReOz+0BrNHoleH3dI6iy2xsGsE8tu0A/N1ROIq5AKM3e1KzOBfBYOSWaD2lrptTvPT5r8THfvdLEsWWfPz4yV99Pd74P76oJjzT1P1iirnOPFLfF1iq9EtRX7Zua/RhUwGnY15jQMpdLUDHzjHGQ8sUqLaLleLYGdI5sorA3R5BQ0RaORcyXU3S34xYBATPpLTGdTz9eAJfvp9H1BLwYzhFszoS0kSXux7isMPC0+EN/ExptIqgiRi5QfffgrrIXn1qLZ6bhjke9FG9+rPMKRhKx+1p9+p2ZwfLz5tXQifUYyzZY+0o82RMp9ustHM4yII5OfPi/j3Kqdg3PE799dKX3lfwuSGm0faMtltoDIW01qrt44YequhcBCzJcIaWCMdNfskqKIBGzXCuGNfEHe997qCLocIPN5CGFVP36iyPo3daprk3ykeYxLn+DDdyKFyPdRijhIqczn+qS2Wb54MeFarsPccFyTENubSintniTLaNpvuEyIORpYAmJJWIUEkIHflkEW1rnBtZ2HKb9lzu1tSWa66TfV+5oRTn0sKVJ/NKqMu6TQs0M7p04RPmKjG9/v0aBWxzOQM9a74I9j0trt1sV4rr8gWkjGCMG93+IQjaQdmrtPvYpLcx+o88rde39++M15WWiSmHy1kuLFlyd9558GrL9C1AhDtVsD4odhdITr1maS+g3eODY1H6Gkzx8HIuby4wMRgeQW+xnKcFCrCQJTThoS6Vv64VVj87ERuTiF7Pd3/8ytfizf/8Z+BXKub4rp6PPvOcZXMPM1vcM5gsLHQtp4Qit/OHo3bG78y7MtbQ3n9D0yw4UgMQMcGtkE6h2zZxp4z7+1e+Gj/5Ly+TgFASntn8k9J+9tp3wyE3nEx7LHMZP+eAezuFez7eo/aiqzOPkHwsKEs25erW2h/YVrHqM3fsJlGvOqhPrhykc6MeXPcrtLdy+NdogxeCjsMWqAcw+rYebR3v/OBblpsIaB/+jc/eUSNYsAFoFKVCht0b/8rNThx6FKja7vOvUfS5+gbDg67DU0LMWANabbCHAwCuPcMbjp/+4Nvx9l9/g/cvCUiETbzXHHmsig7aLx9V8dxny7aQF2zReYw4bJ1R22tZyorINEXpvZXbPmAQsFaF7TyVM8o5cCtTX8nXPr66QsodBif3tSeTHR9ZyBde6kq5DUpbVsaVEOKNP/+39VP7GucAg4VMmjnQMZQoVQYiKte1IoIz8hoct67pZDgUCSqWMuDUaF951T0MMboN4ZX+BnYhizm+KsRtdd4bhNxk6l4XZF3sJZsMfZGaEmXwXX2m7OBMkvNXBtYgCwaiRjNSF+56grCle2oJiSksnBpO0hWhc0gVikXoGrQ71GvReOrkxU+cH3s9PhP9QY58qrb51U4i/SDUjKDec5xhZAfzllhFbYBdmYUxrjFcMRkuYxgVbYkSdz1LiXKzcy5n8XPmCZTL63Hu7ntInjLufGyDbLqcgS0chl3QKxl2A2Z2cGLYb+aCx2yhQ8pFvwg3d5ZYTG+S0fiWNILxG5KNxjUQvWRE0qqHKqgNUGYky/Lj5Uuf//IHBiTE4TyPngTle98XaX/euEkwlJ4cf22tPJJMYCrI2YjlqUCokLHb7L42eEk9/GNaOBHhTFweAUe8qXvri5jXz8imXNxz8iWTPEm1xHrP29B3mLnmBkRF5Ez5VLQmPDnwMmiD89fGD2yAf26eS/KWNTZynyUzWWBDwnFdQ1sJ66qwjuk+9OJL9X4+5PVeR0V/LKG6EsKiwxSdd0NbOuT8T+Od5x8N3z5WSHFLT20whMUGmH0CSvdlbM9jqpDR7z7nwN16nrQTXF7h+dq+xma3kf+d8lZ56sL8uco6Ge5v+qyQ37MfhHkAeuguGGERQ1wXkRlsWiQJsE3EPObB8gICEVXkpehx4VClg/K5SDjdeufhVz8zBnh86404vlaZYnalGOmZGVO507vWN0EgDtVZYZ8fp93SrHtsXJ7tmPUGvWVYwWNvkvbDQhTCNlQDI/YdHTlJJ3B1T/CPM/yYaYtm4R6Sc8tQ4w1dHl+dzY8VT12c07z9nW/Em9/8szBSXm2m81tzIzccj6Iv4y45Bz1Aied9b7kUX0p10M5IT5ssJ3+g1qCdkbrBMIuSw3LO3m6kklWBl6rZuK7s+FzJW6eiaE4IjnuMkT2t0P7q+krn34/3dXA1zJ9mkz5iVuCh6y/nhvZVlCRpSJhDvuTzQPsH2gAy5oAEpuzMPu8tReF2HN2GD8d7H8fHJXAj21v4ucm2xRUwy+XoPDAsDUEu/Tw+QY7lmiyhb6ljlSKOmhyhpEC7YFfz2FZ7Crr+wK5RdNwj2o5OlTYniUD51yjwznlWgnzXgZ8/ZtgtJlxxsQriFyyGShnhuRETF3LIbq5rRGuXQEdXRSDn8nBWFKMN3vL+wsvW6sPzvvHPnfis5nk8A8jZ9K/oUo5+Gdf7B+1meB6OdXKMwDZjCExzOT6qAWTlJgGg4ruF0M8sr852puTiVmhGXGQobDI733+s8jCLe36xo2aoXg4Z3mXoufG58KbpaTgDioV7aaWXHr4zcw5pDtECMN7Lc1cuBuCf4/V0yB6eS6Pex+oD4zHfQ9FqO1UZtuHS67nrCSRDS+/gSRGj8BL4kp9AADFQrvX/VAHbfcqioTpkdihBMA2KEeW9SAs5hHXIoncPcStb0QzP4fmFrxBCLizl2//l5Xr3te9eZji+X+cj9vV/i+iCoC/1I3IjTKQnUXZVRPBJOoCjY27Mx/lKQKTBencnAwq23xWa+7o0BTJ0Q3CEyH29b/3Vy/HT7z//tTTs7fYKj6+76bQnZYUQyq5H7l9H2Gtgq4m6xGvUfusdIHuElvPtR0WjZZlg3/Yh2lYtnvLDImux6lAhlCxkCK+EgwNczBbGsYzaDFg1n/CIiLAVVCinxM/jvTe//fXMV1+2VHodx8drHZQrEnve1ypBCpLuDJusa32XVp0/RrfG9mQ9GHig4LKA1gvoC2IUkhUeVMxBydBXzByPpuEjtr4UslCKHQ5dHN/Wtn0E+RnqeP545wB6ouSE5ZSvy15geIEfLVt2aWPGdbjdzUvzvjSRmPJlXFkcOKIpjXa41vO9ut6H00PTafP5Qilf8pqV+C+71h3kjwm7XwqYORtX1AYFyybsafJeCPIzhDY0fuU0QGg+2/RWnmrj6Cw1sS/hvQ4AAH/dDO/F1sL6xSE4j+O7iaq//AChOctbQktazAnhoZ+wbKzZ1B9GYYDt7zyv4mNpbfc1YoXomNjbQk1CMxgqYmDzqom6UwF1JA9XquO8jEuqqO/wLbu4e6Dys74IwkrS9TrnSmeuZHO8yaqoTTO8FhViD4LrWafx1lRG1d5oVH4pcD13gM21exNGthfMf6DjSAWOLz8Qr615VQgGfdMBa26dUxELA+zY97qPOx5wh9aeg4ID5ouVPQQm7+oZPxrMESSPinoPFyeGW4DO5Zo41I3QtlxuEM8IJhHx7Fy2jiOZbmMVGmUtA8NMjCryFikWFNAi0pOOVm6Zo8kS3mZJTA7slD2YcWZAIFvVDQrfz+mRTkS7BWcZOsvH175bT2yXu4J+HoOe/c7/809r5sH7XdbfbEfD43aj+Mv5YAak6KFPCDzIu3NhuaP/SmFbYvAHQlZZVsC+ZNg1szq6d8ww0+lWKtfAeN3UjeUFRC1lxBz5HpoFYSBT1u7UYl8k6oPhnY2NgLaR11cOhTYLvKyUEVUULOtN9uqMJT0dMPUVlh+bNlso9bL7z9dRd1HjaaafvvY3eXw1ou5fGpbzzIMFyYIgKr4B/hm6g2FhgZBUPRPvLBSyHcQLxjzzt9v07o5z4VNS7uB+NgqdGvQd2PKSG9XFltLsuqoGo+KuCt2Y/e1ncJQlOChAfbXrXGm7elQYCchKkFPvyiGxreky4fcKRSUCPDW5csbMKQ/Kjn4uYLVj1jMEMR4yvzDQionxTCQQK7vuyPgp7/UUAVuZ7qSDnntMmxelsEJFCpAeYbbiLQligCRog4AjE7jVfwYvoYvCnmmL6HQRMNdix4ywBHx4y0oMnkmDmoRCe7OrDCfrBiwjZykIHzGAJCPcwc86N79Aqa8B61KJtwwScmB9CuhNFBr+4mip3ubIomTUsn8UX4OdABUAuTWhiyDYD4Z9Ove8bu/rDkfLKXNxNO92AD/Jwqws/9tt7DktcuKOegOY867Ev4i4+RBh3snkq+XJtOwu6INuH4aAxS4Ro39517k1ynG/8ihtVVpY4gxk1Dq/1/xDn/r0XF3G3S/ghzerLdRO/mi9tkc3lxVAVUwrfEtx5IlF7hAx+bnc2W85f1lOmhZABtXg+qi7qjzWe3zvuevVA+VTpVzv/ODbC4E110XlRIyeaaLtF+DYGgTg9obD0krgtRitvKWCCrJfVy1lYW6t73FxxYOEBX8VIwbfgzA6pUQVOUuBZyLeK6cs6Y6hA2faq7SdyZ9pYDi/Xjp+kSePste1PGdv5uYKtj03anDIQacwBcxPPwIFZojWCdZhnrbs47nmchpWN3ymIJNseo7ejO/H2XP83efXfRQ1yCGV17a+jyLkseZnijhPs2L5swdBRlZ8HKzK5y/HPJ06+PwgtmQ93acawTd+R09hHzbkRT2ykD1NHaECAd6Ax4gR4jc9Yl62X2bOpzDGYiRz6/bcoYz3OIoBMIz5O6+LPScy7yWOVgrjxcnM7yw1aI9j9RklcBcvb1ZJbkVSzowcygT7RsbP7cc+c2TMQuTUvWVKfH8qeRIR5x1BQkwLRwSYp6BsBeG6dFVg7X3dIRe+tqU9ks9GB58VRJEToDGrDlkQJjaVajw0cQEywlMmQ/KGWibMFfTKHAnEBz3WjMyfwG5CrAlRNbcMkapZ1LgHEAtHFt+Yi2WTgmqMCHBxhvaJ19s5wuVzhc7PP3QrDE+QIyOtayHVFqKTAmzuxP6GdzQwVIImMSaEaTXJFjp//MTed2426XfakEEwhUKfN59DwO0XRjj39CRguypaUTM1iBEujzePZzLvf730S5EvfGK8t+eA1jAvOCHPxUpgxAC2dqLMDHJTA6dPNQBrVLL4U3HFHCsDJUg5dmXDHLrKZwqdn7we7z7p4rnj0FOFUxt0qt68WlYMzchyTjlOgR9JLiPUB68QXPKRuekqJxllUx7HJdWwEVT8AI+hcrvPmFSI6oOSnowVwMc0H5Y+md+0XRPwteQ6JxcAi4QaNHvPd3y19N9+/UtMXGDeu18vbU5SzFOXNShDJnMpUbuF9Yian1wsu2TlhM0ljLm+xvO4KYVi2ga2Di4lZecVhqwgit3DX//zL42vlwYALqynyGk6RSDogqBrY4DYw77vfMEIK3IOsgCVATrGUG24oXrUCkJ/Lzn74xDVmDBmMk7UJEEjWgUXzTuMxQReXvQIBFbHOC4uvBskTZq6eyuUm0BbUnSHSTRhGyGtCLHFIVPRDUpLFFJrzpG5v9N3V3iVy/CGrgRbVHYuvDKMGUlcX88cCs+4K/kPhdU4ZHC9ztyBXHfU7OkW8+JtjusYyjHdESoAmcjBeFHrz+BVefJvTKaCiA9hSji5Nogyu3hwdd07xqejIiaj5hg1FEKhOHh6ZrgcF5BiLmZO/i5H0TxUcRd7DNRS5ugp1h1AAr0tf8YIdWVG5CbAieGqkarHZCb1/676XFYCPyRj78zXVQFXsNW2nnvFXBX6GkbD1+YuwULG6wb/GfuyUcgRJqcjMO8kQXHzom6BqN8n+u5KLgKVkapAJ0EYTcxTEu0Z74aLuPGkcDhzmRIKDlIijRlKn9v7RjpJ+CIiUIcOTBA4xkqeV7uDoTVUsJgcEWyIL+NZRyPoZLyfjpaRU1/utxkV99dXYUlx36HUQUAVQ3Zhg7tFfaMt5AzP+1ZskwdITAvxSEXKadHW746BcdIc5ilVryr145rotO3ly1WvD0DFu5KsSolzXNoMWAMqMHKiVbqmbWvDpOug8Yf7Z+9sPyyrGErBiwnwTdbS456tdKQ1SRuyWyEmK48YTS2cPdoSdv1kmbzs6Oi+e06+fAWYzhCpYGilIP0eipzGNAs308Gl2l/WtguoWTFtXNpB64rz79RrXWM7s0pM32PcaNXVyUmCvLQwKXgDB0M/FpLcqltgz2ewIpcEWxAlIN1keBEPNWGe73XrqSRfPTMVF8xqJhSq4FoAoG8kUPu4NKXo4qRFxuP25AkEayshTNNwul7zmL1tFtFCPa9JZ+7Upcgri2MpBQOAmJJl5J6nD1zeYUiBK0N/7oRKCquBAuTn1b4iRMvTi7nJKjlti3JosjSXdC6oc50q92ZKFFF1IaCSkGWuVSUgJCnsUssks1B8LghsW/eoLmCYwNPyjGlk66YJpCoOgpFzhYfQNDtl6Dz4ZCmcOzZtkEqPluztxmhZhSrkuKzr3hJLzXbIZETs0dlaDON3gufG7LscwFC+0hXZA5mCIm6MvicCRVoak4GBpL9z3T3hjXloWSMZvJVIsJsbIE+pXuzd0ogtRlKHG7DIC+1pOTcoqUd5YRlTsG9Rwg4z7bh3NLzpvjIIuVm/5Aw/GQjfl+01NJ8DrNphXWoAez1e3QVNYwDFE8rBZvWsr13W5sUcWXFUziHiytA3vXX35XzZ36m5FlIGIDqLNclhoqpLhU7cUF+zwUA/wXnz9Sr8bcYl4DDeYgZjuxR0oPyidZxZ2ePsmS5axajsTWVwiw9/Hu/ksccy+GOPuOql/+Ur+cJv/l7s4z/z9dK0Um3vVzSOontcvTPquxTrNXqGyz/RcpduivvWBFXGCHOzCpcjWE6Xs8u0bkz3oM3xPvH5r6Avexe559dLP/UyxRc5H8wgAtF1WVg6iWB9N2aMLO54YKL3zK2svTt3ido8CCa+dKsDFf8ENdKeQ4YHsNR4MuQyTxJIZe9UGwTMyWceQzp4TmCwS9qDGf4NXM0whimuM48/Cnp8Mu/9HEUKbHgvmkqL0tGfZc7hGMz/grkQQjLRZIAphgsAVF6q/FHXBcZdkaD1fn0wIwgUJCo63tfXS+/6QMoVIReomk7jASpo/U63SjIVllPl44rKulmidZ7DzfXZuR73hhCCB3fL+k5je6+K/4FlELrGfagDqfxrWM2ZLiQDdbNZ9ThwFgIiKqLqOuB7HNnpRxAycFEzQAQLM4GK4QkO2DGBqTCdDnMg3Bp/SgfMaeXWsBH1HVYEtQ6LgPygR13SgiAzBj/DkNEP5DinmPEctNakScnbgUGhJ0g2TAFsDJunyY66v7WRTHlMKPh9k/7xByiw7SC6kRI6qqudc1ETstCurjEHsyLPUYYyPphxmMy3eQQgvtyA1eEFZWtoLSU7hr9nqzM5OYXHjz5fZKDc8i9Upk0kQTE+wFGWwURMcMLZGma5WC2tzsLvTqQM+pZ3NlvSI5MRY5dDSpCOvdg6fnloL3FyFfYZcnBVTwCwep7miFGeFM85OUNaMjdIis87ycdLNR3Sf/yNr8Zb//nPivf0Ao4/Y/JPPvtvOMeHf+N34lf+8GWTnfEqInJXEiMpZ5zYM3/PVliadNHX74umJ/jc/mtOsSwybcr7R786v8Dr77/xtXrr1a/DFqxZkVodXwx2muWRCYulX53BOYMqVibOB+OfqGyJ593m4Bdn6Ts4I6z70NdVp0CduzPvW5U4ItRDhCrHTi9oZNFyxVR2hXlM29N9YUTMCyw9d6ON0jwxRR7wB1Z/cXwg/lU6bybL9/jQp35tzHM8of5+/rTJ/1+Pp0Im3/7OK2Eew8P7gSpsvDQzQAV8QUUJrhMqFMgajc2OxXwbEGTGgInEnNH0Y4k1Ch1V+zfkbLas+Zdly9IrBwoA2U1s5ICBsIdU8bnD21SFjBgtiaAfIHAxj4t+mAEOXlRCvP1XL8e7r303/iEc7772N/H2//XKSuk8jB7HxdFxJBnPQZFMUZ55MGMzZMNCwEZx2hHIAY/Ug86R7TBwjnR2W+PcQg1iIhwPta5+llER0g+CMPhgAWKdt/X1P19QoKBJOmTKe5UaJPID/am98AGhiEww6OObr9cPv/Yv6907z1r+Mh2H4/3wTz6H8KhNDMXaVRPUlouWdtDg8JH+oMusAwBchGEcGSkHYNJQ4zyA6Nd58bPu6UmRlLYDPGgoA57FdwcWPy6QSMDSeFkf0RjB5C5dOi9XMCdT7R1gerRWmPt0rqKBjW6fLn339e/WD778mXjxqY95/Od/wuT4MqinPGwNvCyXmzTxqS98bUh6fCvE40/eQPWnXKiV8NH//vfTv7/orafe4PHFU7iuVn4UH/7Vz4x81788dk8rsa5Pfv5/O/5oAd/52//45fOLAd75zisVweqUzmn5agbzSyRurSGE8ETPsshyyeqFzT6G/WCeGQZekot1LHzecqGAP69/OId4vfqvQ7SZ1qlybFkuEIJAobWyrluVc+eJbMdF7KHAD7QOrMIBBqPkpMFmE6IENVNWvfMxUM55gONopjsoDyD0Q7HLcmV9GIj0ha8Nmd9+9ev1M6QEmVp/k8nxacKP2PU/+/63681v/hlsQQd99/XvTVDiy2ORXxsRLAHzqTH+7+LBQHnkj29/5z9JXxGzuWW/JlWaSR5LYWwZKUauCVtnZuzVvkZYt4AJo0qbCSaHIuF2fyItDMqQiNKNmdvWkljNHiSRpUbwGqDvt1aRf1wTYq/vp/QER0duokMBaDoRkMpLmR60SNFrSPRS+xQyJjryPZLOrY2VijNmy6vA7FNW1fOu1sagTlfSe+9Zz2auELvkpctxR3pj3/0B8xksfT1pVQrzu7tsBcF2eZOOgtyfOWNTH0IH2zwkHQzaawShhZNWDv2vnBI4Z34YhLZ9CzkvwTh4YKHI+gq/Qzt3DoJplO3gFaXJ60cNnSEFYs6bW0o/kb9NnOkRA0DIunt1cH14nf7U+nsCiJO8Z8ToNV+Zpu5dHMrDrpsJUmjXntDnTdc2Ky2oWMFjO1j53IMZZMcGbnWYXvpPxvnq+lc9X1unLWyNT0aiBtY3ZCwhC0VFs1SKrDtcarcn+DMj5ndWStnPGZpsC2l9PNJAx0qxOhXBC6kqojsAaqz6zsymnNpSmrs3nPJsypTBnzkAio2Yn5Enw4GiWa7HGtM6KnSY+TptzAncSIKoFy6W7jhUqJnXewoklMK/1mYPPk5cqTW27DgJQgsRIeY5/9gINpzJPApa/f/kPuzILHyhlDkFkMx81mzluyoCkZFB+4VRSAMHF3B9cCJKUFMkOzzstOCo4++K2pZKfs1LIYTcXyJY7JKXbRjzm9LCBUNu3DlYTVfItiM8u7PWrHJ3AVQ1ixWSHRGyKIEVBjBPHRb7VsSFUcGa7cAV2rUrB2qMe48nz6WkDDkLFw5CMWUVrknJKqpm3GjC3fXa1yLnmIqc1+B3tJDWnKhNJhpgLIHRQ2IfKWZCHnRK+bjW99znfLA95a0RNqb7ySKTHZk398Iz4hIzhlNbSSriu5eHZrhRmWFGkNkApnbpMLBen1RKYzWACFpqnTNwAvgVI6ctI7DksHuhVKz4KWcoNdjBfDMnCeaOOaGXEaNE1jRMNBk2CNe4H77TxOwAkwDpqTorporztbP0pCw4cC48XSi3+BXtWP7KnyVUxd1uwYoewfAyw/8zx2PtQlzHjU0jRLs/Ab8digU53gSLhzuwgXUQtlprjBGbQ57m3NaHQo/sm6gRgTFfp30wLHKwrCijgb3PE0dLqJmVyUPURQWssPANkq1DAAvX9Djgq7vGWNeqb3bqbA2G9TBSeud/ZRAlL/DRO2NI9t6WvMeX9b9pn4v+2Y9Wa4c9WIYwyenXH8fRuglxUvoajjvf+etvjEW+81+/3UzfZNUAOBrePvYaVy61jX6KdzwP6Y+fvfvmG25Y9gSjQYw0xu2s1AZAKXuwoSZzRoiHM3NznQ4yeFAEEhMIy6qPJGlqDWlAoRTIbc4U458O8b0/+tijK685KXlhyz8/jB8uLA8wW0PuvPv4i1jHHwulYp+M84M//q11OSr7IJcrSQjv2wHqCrwe8hAOIHdw9tiOHvfsNEaOL9Xv2DDkQDzhzFXqq8FAs78Ixbbm5C3FdmtoBwZrA4DsWhhsAC0vYm0AGfBWLidZdZN0+l4H6FCRJN3hbA3yQYKgArGQTAn9QCYay+S7rUDbl4KLc3puK1Hhsfq/XhZqYobmpbb7LAmhwFRoy1RQrWQPAk9bVshN1vneIs3ov7soQwncaW8UYcLrsIAoVa63lA9Q8M0REk2LjPkBuaRzi/aR4XNLN1Rx4q5SpLIzVuWGx2HkYgvsZtGKcY3AtEvor3P8frKVRUDpvEdlZpaMeQhXPUoDqPzBCe8smDwKkZj7fJ6ywd1/CzB7LKybvjh3ssgvBt5e8Vj+Bk3xNWUqeW4OZft95uMheY3AH1Vx5MjpcQvrryWWPNgUBZ9rM2do9yGTGwlgwXSximhSkQBShdMFc7BRoIRFKWRBGfp8EAy3kpyaCrEc3KKJrZWWErvmThh8KIdsU5vlEBFox+peQJUTSW8UF35PswP7mef5m4qeJhS+fmCQ6Ujq7YmYNmOCEJEmnYy/JqQY1Tnj5QBVlZH0vGBXNt4MBak9ETGPEdW3MIzP+n0wVapPVlOHHSVKoV0i7r+do3zoE59eX96KkPfWG+uLS3NjQ9zUusRHMNoU3cSgdxFhDuBQgRGp9c1sL7ZnJoMusdaM/Pq25XXI9W30MtXuxR+DbLTr2TmbigsZnKMX54UP/lQ5wOkhbkSwZBuEYMzgi5Gnrfd2tJkc1HBsIWbR06bqBkxpTCTjzN6qnbaXDlkVWgToTRkz+RBQqb1cibXkcV/KAYbjL3r5l2wd+9s/+g//qvMGDE0yDH6QauSlyyKgLJBDySuh+tmf3YC0ABkqaKCKUE7rNk1XRcN9BzQiEvs5/ddwy6SMiI2LxghDTjqFQeDmrRF4T2E/ReE+GMZbqfZe97LktTJeDVKlUNn5302fv4bFcl8D8KkQE5yCOu5RubChApwOPALXgWcZnqmE2kycMvR78yaBmZ4vVdGA+1FRejRsO51AH08kjcbfb9BNxphbl1BSZ+F1dYbKj6RT8v0SthA71VJao3hRtUgrxsdzGZBKvnnJUXFupWj44wW+5FPA1iW+jKBCDxFwjWPRYrUG4BpfoQL1vjPeuuuOpZqhRDGdZlYM3g62E5bQXkH2fUWvKBFLz10NFoCmdCpyS87IVHQtV8C4lEqkAdKV9txhOTtZsiNLeJqiHqV1mgvFWDN9Bn7WnQczSDJIatJsYq7m9VHG9U9pjEgS0WQYOTDjOc2s/L0oTK6gzDZhaEQ0XH7YisiBX265MNEwogjHXgMAftjF0c5ottZgDlf2BI0WyD+LNkEhf8WyVhFugE0RbWqaXhB8KdlmAbFgqWIj3FPl5qTRSq404t0zmOTuUSrEJVUGho+x4mjmAy6B/opQF4S6tFZIgPL03iqaqtwBew7SAmYnex7/swczYCNbFYYga7NdlqAAGYAdHAI6yokAhdM57SXh7NwCD2n4gxYAjBZsazMaRgUvRc2DpzIJpg4b7TjwNpWCnS4sJVaxDtDchetWt4b+nRe80NgkgiqkxSRKhicMYI+jJZmSSsZUdw83jgJOaqz0QNxrnIM6O3n+TTJlCp/UbWzEh9hSk1G2ACeQN4fr3tQYuFZEYD/L5Gigsd8ZYkTmsz09c0oCrtBfgVc3cxpoufWH1hujOJiihn5ze833o9kUoGo04uTynGr1t1NkjooclbEMkYt9kLhExraF4OQtXe5VONaF/LN/F4TSMV469QxNxs7zMdipjN3GgxkM4TOEjtDepJQ+qkRDll8mB+91kBQxU+Ugt1jSRk45AGQ2p0nj6jBSgCMI5MV7uK4YOWVAGWGYEGiQn3fe1ud7bfAmrX2FisWwe/uDymGcblZtGO22VYOhJA890KQNqiKlDDMg/1dIe1BUp1fgJ4SxXAureIYSQAA4xVl5rWLsaPk7LXEvpaUor5p3eRml7wjJlyDsxQfle84iuXat9X6nLkWKipLSxK5dEBZbbY9ItbpSF+WzWDJuH1yJeTNygLjgVBWjWX9Dwk2zIdQ0M4HLtV/txDEQBBJOBrj7mJwHxuosGLWiipqUz7ONUOxxOBtmqfrGgqXhnFt2GbI+K/AIwq6WMFWaoyzWAOi21fn8WrGeDEWeNv9k+1g8xMImbE45j6UMdKr156Yt9A5CJGhKrJgCXXLSyyJ8G9gb9MxxfTyOw0J1fB1iDXZtgFsK0Zf117ZQQ5azVBvGujBIypmll+mhTAD3pDuHWh7MEEBIqqvc6y3xZRIed9ik9YwchgtL5RvpilJgKzoGlxojzHqK4MHJuTnzGbakpwWxVzFVlCH2AFFmqJsEffNHy81cvEgFubMSdJ5p7SG0PBr/u7kQ5Co9CpSxIJmMzhKd8iRritTXIYIVkSHSiwVyzHnT+hpsSjllOBU05UwqyyWTkJJFkazVXCy1wiFHijCMFvEeVFtA4KKEsnKlQtV1K314eeJxOYpSvoQKktN8hA5Ua1UrEBRXw16OzEhPqsDeXJDeKywrVvqiHLCoSQEwyHxqTFtBElB8K6ZzmLUMs/XQbnH3aeW7HuaBxCp5XMTYvmyDMistUuN6mb5AuMvS6wPv74lQmjeoRL0K81JMRQST3mZMk+sc5803Bn0cW3D/7N+96m/l9vPekYNmrtebXvO9xokTfiNePnc/5gP+8p48l7nufR0hblEWinGLf8pk6b64ty5dyhYAXvNhVkXMnZH+nbwpZzkxwP4GQlAE2WjHZQJhDWDku1yNQJuxXUufDeV6abM1EEE7unMFogcgPpMeRNvYK4pCY6nmiAx7CIxl+br2p9//Vj3t/2aasX6Zv0plP47PaXcEsJ0Sgej6parcMEh3deZJCNHHpcac7IEiFCV235Jf3Dqtto5OWcn6DaUMy03RT/TmehF0J42TWHKExgp3QuaxaVmAy9LNjxtAjrDLlkpze14SpST6AXUAkosI5UjHqzf+8svxD/E4vvzgx09732IZC7SMa+vaBSjaQl2BmtGraHhrx7TGCWLkLSvDIUD3/lx6yCuwmTUAIrTTRSkD+em6M1Hhwv5IQi74DwjLHZwSMhPChr5eGl0L3NpFWad8PmghnDQnIidkhRJMeKNzl79/5avxo//wr+OX/etU/DieGv/hn6xvG2YaXmyrsODgnjOMyYqgM+3uDrB4KeWKVHjpVTMLAZhtsW7V4RrtMvGtHCwHVtWnIxu5sWSrx8JGSsQoRIHwJVOmsWRfyJ2fPoqpUM/1vT/6WJGtmU5Z2PZzyIz7fW/2pod7XJuWn7Vrv/DrvxPPJgUZ0weSjQDXJ5Sb7kOdkIzUCPFovI0wVsWwsquIcpj4aTsBhEF5bqZxf/r9V6P64w7QgxhEPb1E5thspPB2L09MG4uq4P135+B12ppF/ihmQ95n99dMH6y20zphdwK5dW1jXeRgLtmXM5TLGY/3H5btkISUDIeiHbdtgERlytQDFa+AunP3CYKffOeV6LCvzQqlCElD9hjMjao8t1rpCg0kZZb8I4fjEPlBm9BYphzDsYUuZmsQM8dgCnE53oO8Zc+PpsZdYTrU8yPsawubYasMLqC6/4+mUIRSsWs4DYbk2M7tn8dxgJ6Dru+3zOFIcqveYDD6N0C6M60ZKzzxzbG6VYzx4xAJXZvQ0D/aDn2mRrrQ7aB9D5TX7eNFBKvNFEHifRZd8CXckmIuRbSwfmZCMdJAKxhrgCWSexmla8rWh/AGQ1SNdghAwx0OgtH1Fowm53Ath8IXSbaMy1k1gwHl9RHSAF2ic821R0+vKvSdWChJbwEHceZjuVw0kJtLyWsjsdUSpT3s6mTNdID+JBrs6i/jOQLIgQJuTXuD9yq8bWG5kAe0UhswyCe0QCf1IBginH3biBmZbFBaV79z5pIiBHCMr1wV4O7GYsEeuUkkxTIaN6PQe2HN4M5VdAKP4q/CnSK0VUczmTkKiwkWAtDVAFnLVdJRQszMGOydWytkPpgBoXrVrbWe1axbRX3hJtdHCXDIX/mzcw7ktBy0ASTAQQVlpm+9LXKD4w2mKpP65kLxArQyUw9gQBFJRdvkdKSlCDzMkN3MxU9t2aS2bwrN4f7ds3hwr+eqDZIwklPMSNhkPXKGa8ryEoYXWdM+rxNW9ipeb+tYJMbxIkLMJGGwiLD3alCeGx2yaByG4i3jvbAfwTKzZ4xB8qvdzvTgkH4ril7eCX07YMev25QLbE23tMg1D27MpIo1wzUdBH8dAreN8jvUFhph7gQPXrsTcuGF9YFlmuIJEtySZGlWeZf8poLI6xZBBEnWenF0FCOXZr3diwE90APzvlJiJgajwRKP2q3141wORtCSHByUTJ2Karm6sFmY9XWXKJypyrJfYQ9kGTfNpjaX+o9gdidfVTGWShQepjHSN0Jq3iBzLh1D4euZTW9HxVxQeH6p9CXt/FqxvuBKxomhTeYRHTQJtDRs2QJ6nAZnWs2yRM9UuLUQAauRLZEHZmLiGGEXbBxga5BRDUWDyZHyokUBVug5O++LdH+AUOPBDASfDkVEe4EJywsBAaBnHYbEvcEoKF213bykRtoDmbFdSh/wiNCOs9SJzlMyVKiAC7FbIttWnkzutbn0cAZmEwtyLZET8OH5pRg/Rhay7r/pI6MO62pdLiWASPoaeg6TeAzZCuNTPJ4+AfTh3tGGYqhMxF4tDo5FsQkqwzKCiDXx20As0pafmyInWOz9om3lVRFGxFYjJ8PdIHjLk9tg4lAWsgHDDUKJCnxEAmzKNCiSOaoQ36/TwS7HHM7RemjWKOhA+5c1nvqBHMkK1PQE/Vqc0LklPIBIPgIJFWCU20cwqpmysAvABD8ADrAkfH9QORN96D71RAmcao5YKrKLH4gi8zqIPJ8L2VrboL6SxZnhIJIewE5tfMNNiGnSbIyU4lRfMsQG+RhRqXNiqIDOq3BGyZFDVVCnoXw6XUPB3BthN9pJwehRItRQJkVANBAZ87Z0CEwVI11qN2dBE2Q1qtXOe2ETHcoAXB+TXFtEIboooJYIABfnAk+ep1CxFQUg4AGU8YxZGyAVOhENdZqKRYTq/Vgo0goND28snGzeAZAg8S538FQjAlkEriwPJlQ9LypVmaw0EpcMiyP0M7+sGDmIu2LSSGIr5l6JlRRxCX0i/YGTnmGYOmp/KSC0ODKYsMADPOfSFf8ZdUTqsSkr0cOB6N0C5qWt/HbVQMvHuYJy00Hr0lHAcYuy2ZmndDFTbPpicAAQzMMcC9wB9qst7IEZJKZIloXMAmcMgZrp5I1SrIOzIG96ouAMkSm263XaOBEWCULmjJ4focdMRWdin27IBJ016Fp3zO3k+usS+6a2pYGCI412lN1lWEvOwY4JZMQ5TUlUAWgCYMWcB8CzNMXGZnVeYmyRTea8GhE4OR+iM/JzXHsDr7RBkr8rkWNLQIqOtoVPSGBGWLqhbZsQ+VrOQfN32NJ6yqkN8TST4a8dkMTeVb7le8gL1sJJ4yKk6OntHTaDLcrBSYvFR9nfrdxCFpWEvmSGr1800+punZEM0vKsmQb54EtORXLogmslwza4yyNMKvEOyGUAdudg5e9sC52sZa7MrRiZW/elcnpKHsHI0U6anR6049889JpCBaQAUityDM4QW16Z9qKjzdqxpDZXZbIe8nrlqx18lR96iIFywa6hXQ/eb9cyLzqMfksq2nI+ATcS4bsjQbEuYA7JkBVJUEW6xukoA+/NVspFTU7TKRhJzOsuZBxYIxfuNRqYE+E+e2a4SAOVMQ7zIi3oJFpIZ8Ezd24IjpWrM6y3w4Y4LSQhgG/xJubuzjIThWPvb4DvnKOhX9huGwyYNsZwav+Mjx+Gmu3dNqOlwcE8MUsO5HO0e8KAmSnCTZqh/coMB42ushBq147VAPfQotO+hus0NiCGaiQAYokBh8q8aCalN6+kc1SuQawKVEYfeF3SqadN7RplBZ3WULwrQdPJCNZrMOBD4HE+rHVleqpC078oeAdnS2UWym4AFSi5gixRMh11mw4GhByvFutxq5xRgUAIAzRz0GmVSmHco8D0Fk4QRnoBABZMBfsxGtBYvF2U0PMBFKZrMlFZEcFuQDNDDnLgUzZk99PDbzSNCJeL6HsZVemKDIdBO6Z6lLoxRtEdoZ4vl1Fk9ya5nrCYI1LCsaBq2/GWji5LBicj5KrkYcxdMmLRHKWuTR9rm1GpV48KGvGZ0m3ZSf8Mj6CmwjpxMJz1SxYd6OCBIjunKgv5UknAE1k8NUkiQ4KcFRO+3IlJqc3nwzWtx+UURYoZCObDGSEsW+ukw70uaISo+Sc+Da9kAROST9HX0h+nqq1Qpy2oH4Ts8h5kO06Fg5HOYoZWXt7ulAKwvChHu0gmVnXtkSTTG+fS19Rlcb5bWNKqRVpK4El42xM1BIHK8Aj/ZxZjOx6ufA7EnudQdcc+UP7INxnahZYqd8ESv8eg0PWerKmUr8dkaC3cjVxyreP8ujwJ2f+mwFoOmemU6IkKCBvJRZd2jRLrBEyPhjvTuGlFlvJ+Fk+t5xq81b+lCUgu7QKvr0BIjeCTUjaEmvoknpT2qeQeUayQJgEZkMLdgjmOod5AOKvn9kTDcIOGYE0oBMYARzf4936oen0lVijtkoh3wKsKa1PJSc/zHCkN6GFOMwwPejMGI1G005yXPGpvmA+ZYMTjjpsVUO7mrV2mBHy/V+PN+7aPgTxVnQqk1MG9+ZboYdX30BEvlb+24A31gGc0xTa1dpRK2jjRU66Sq0LK/cEM8yoyNlgVbrac7MHSlUJEC7Jx4b2l+xmSKybv8H8G8jUNYkV6D40BImCZMIZ2Px6MSjCHGv4dRCtdHmUEZOe01lma2A4Vd5ZYJS7aP1Bavz9Cnhgl5EmZI2pHq7+5NVDZ83IFP33wH7ZJVuZkS8gtHcgYCN1pHLISxsRcJ/x8bUvOuvRfFxeBzQRSrhkklmDXkcRs/lLzPupk9ZWOex9gtHJgguoodFpoNND4ORpIilJOqB58A1HbmgGN9ub6mdLhQuhfkbaIitDHU2kVVnhJZpTZpKIkEXLNdCBcXjWAyyZy6UnroKBsbwGLveZt3h7DhgtEQ7czgKTGtYmVph840ax5lh7bURjnWEXr5iSdSaVp6AODDMCa3c6pb2eey5XDRQTMNK6EgxLRLceivyaOY8hUmLg4nNUfdDILB+0h8BICoWM2qyeDLdhBOSiPLFlFgIwgxBA2pJQgTeAcsJGBPh7Vj2loAOTGTR2BEFVk7jaJr8B9aYXPUgShF0XyH8w67BNjjFC60wETYTZnvdU9zNTIIzr0euTAFWGlQJgGjKaLXtKTl+WHvrXpsa2Zunei+IozjSeYwv2xS4iSbYK11LrlVnAIBGwlzeWLrQg9mEEFtuLYOwmdh+dXlWjBGvVYggEpQimPQcKasyFwMUeUykIhvsciVRiWSkyIjAbFTabNDRlzhM9wp0Jp2TymEg47UmBZ5NE2ObJBMoavS3pfU4TkEqKC703nDhJRWL4K38PVOR/gJvhyEhMAm071rCxrVufRBIX8NIXTFB/SnnSsBjxweqNcyQREVuz3paAorzKTBoEyeCvf5F4sAM2qUpv2/hgUXSLCt9vCaMaeaHLVVVzez3Y+LpcaklNovVE+YrOgFgLjBlJfGooMF2Ny6YQgzmTfEXmYxg8ECQ8FDdfkTlOhZQO+SsUVjwBVcmq6SE5mjeI/lwczEBA950QelhiTLtJzUeFd97M0iV0WtY6s97mWfn4VYDlruKFUCStEoec3qzgyCPULQ7dKc4BgZc7+YSrSJgvBpM7FasQuQlzY8wemQ4tbS49mh4ihBN2pV+xpdjghI+JqYSJ4yp2zE90ewoGibR6MK4Jccj/WMBDlNWMbldqP4mvVAbqumUwSAgyFNQc22kNRwqaQDBwgnRUKYbxx8liDscMkAXMzGvaq2tKpL7hqFoyI8dEED6/2BNGoPnOsttw27YiMOuMaVikwWLMwROwURMrpLCFFVXBeZzw+mDHAhtObwfjAgTliIs4Q4OZQON/5VmMzfPehUGC2CmiWpHGluV7r6WMZ+mu5marAU3hZc0H4ToVr8yuuOS4PZqx8rhTS03W3bhKAUyx9w4MZATJgZ2ENzLyfPqxuSU25g3yZYh8p5v8Fq1q5M5nhbVoAAAAASUVORK5CYII=;rounded=1;" vertex="1" parent="30KggWmX4pOPK8MYpUQ7-33">
          <mxGeometry x="30" width="40" height="40" as="geometry" />
        </mxCell>
        <mxCell id="30KggWmX4pOPK8MYpUQ7-32" value="Legacy Deploy" style="text;html=1;strokeColor=none;fillColor=none;align=center;verticalAlign=middle;whiteSpace=wrap;rounded=1;fontSize=11;" vertex="1" parent="30KggWmX4pOPK8MYpUQ7-33">
          <mxGeometry y="40" width="100" height="30" as="geometry" />
        </mxCell>
        <mxCell id="30KggWmX4pOPK8MYpUQ7-30" value="AWS EC2 Intances" style="text;html=1;strokeColor=none;fillColor=none;align=center;verticalAlign=middle;whiteSpace=wrap;rounded=1;" vertex="1" parent="30KggWmX4pOPK8MYpUQ7-118">
          <mxGeometry x="360" y="-90" width="160" height="30" as="geometry" />
        </mxCell>
        <mxCell id="30KggWmX4pOPK8MYpUQ7-157" value="" style="group" vertex="1" connectable="0" parent="30KggWmX4pOPK8MYpUQ7-118">
          <mxGeometry x="80" y="210" width="560" height="270" as="geometry" />
        </mxCell>
        <mxCell id="30KggWmX4pOPK8MYpUQ7-92" value="" style="group;rounded=1;" vertex="1" connectable="0" parent="30KggWmX4pOPK8MYpUQ7-157">
          <mxGeometry width="560" height="150" as="geometry" />
        </mxCell>
        <mxCell id="30KggWmX4pOPK8MYpUQ7-63" value="" style="group;rounded=1;" vertex="1" connectable="0" parent="30KggWmX4pOPK8MYpUQ7-92">
          <mxGeometry x="220" width="110" height="50" as="geometry" />
        </mxCell>
        <mxCell id="30KggWmX4pOPK8MYpUQ7-64" value="" style="shape=image;verticalLabelPosition=bottom;labelBackgroundColor=default;verticalAlign=top;aspect=fixed;imageAspect=0;image=data:image/png,iVBORw0KGgoAAAANSUhEUgAAAHkAAABXCAYAAAAgXOoPAAAACXBIWXMAAAsTAAALEwEAmpwYAAAAAXNSR0IArs4c6QAAAARnQU1BAACxjwv8YQUAAAaGSURBVHgB7Z3RUhNJFIbP6RkVra3apCyt2qsdiXtteALDE6w8AeRugdoSn8DwBMZyEy4NT7D6BIQnEK8FGW9XMFi1N7jp7j09Q1AhwZlkpjOZOV9RMJB0wuSf09N9zunTCDmk0jpaAcSXcdpI/HLPX/3FhxwigMk9LHIBYJELAItcAFjkAsAiFwAWuQCwyAWARS4ALHIBcCGPKDgBobtxmsDp3AkwDMNkFoSUqbQ+7WgEL3IDLV+/X7+z4W31PKH1DsRACdzw/yi/rrw4eqQd8SxWWzxdzGsUKvV7shEYQXuRGwjx8+AwVjvCkaocvgaU4rbNMzy6LgD5HF1nHO9ZrySu9xvqi9v0n5R9SBm25CkgbsBTRPHYuaF27m99rEHKsMiWuf/iYw1BbZz96mktdua3ek8hRVhkyyhHXMo9Q60aaQrNIlvEJBjSnNUb9pgRutI6jpV8GBUW2SIa8WprRVhJw6JZZEuE9+IfO4UCi273liFBWGRLkBWvRH+2atI0y4OESH2eTFemTycYvYFSnweHGsCHGCjH6YUHcKKdeG3TRgt8GONTKDlzynTbdUiA1H3XTOD88GhOfAgxQVSL+6t3ujAh3F1bwHX7HoyBUvAIEiBSdz3f6j0mh3/0N0R9crB2e8kcVrZoWqDQi9pUg9ylKFTDuP6c6/pviIF0sGmiUGaQo4UTa5QqxWndRKEmOddRKNTVcbpM8oot0+fQINfnRAkNkUTWKBcQsAbR8c/baqwhRo8I0Yn5wcEclKhxDWJAUajt4D0FevTh12AMJjnXkSCWYDxK7ly/Sj+7MAHcXVuABp4ejInSugoTwlGozOMu0y3vgbnlDUm+OEFNMwmQbxHdN/IUdodFtVjkjEPjgyoNVKp0+xk+FULzJWpm3ujcoPFT+9Me3W6aB2vl7cFTuLu2AGrtgyWCiwJUp9I+PvRa/wRdPVuyBciyfLCP56Dzhrr6DluyBaRwujBFWGQL+Ks0GKIBEkwBCWKTRbaEBvUcbIPQMRcYi2wJJdwOWMZYsfnJIlsi7LItWvOZFYeHjBWCSNQ12QCBiSYEjMCXKBZZZAv8RvNUCdceBgGPMX3psaEBnhRiYSCwwa20j+gfwN+BmRxtgipYGiwNUmCsSIE1SGABYvFg9XvXpkshm8f0aA2YZBjlfkwfGkWLpXfr5b2LDwi60sYNgzFZQJsghdqUN8XCMIENLl13HjCzhxGX5t79W27Tr9++0tHiUt/ClpxBLiYxBkEOAb5Wzp5Q/bf7f0bP/eIARTbx36/dvgcJwc6QDEJWnKjThEXOIArFK0gQoacT62RG8Y07MinYkjPGIKiQJILm7j4w2SAFKzYIheoDMJkgDSs2CJtJZswVpGTFBoE88MoCflpWbBDTTjJjguW922lZcfD65lulddxj9+bU8A8S9G4NI5xC4WQLqpjxEVouQcoEImsld4Gxj1bP363f3YOUCURWzrVE3WhMJHx5y22ABc6TGObbnw65sqw9JIp7aQ62vuWrW1PLbWCsYDI5bAlsOBfZAZe7bBuQ02N//U4DLHIucpAfpLELTJr4ck48Act8H4VSU1ivUxzChPd62frCt0vZo/Pt48Mo5QGZGJzlQ4/KpkybS/FkClik5kMtKqjU0rQEDt5/2B/ZmhNEy/rB+t0OTJGhmSFCqkRqOhaeDAhsGLmio9I+NtXwEin7VzimfA++yMgcL3kq6tMqgTDj+FkS2DBSZFPP0QwYgImMBr1npklZEthwZbamWYphXHDA/BiKKKmbzqJNd2VUIq2yrPx11LG0Qn72MAvPUG7ur91tQkaJlHct/3M2tMZMdUFZIOiehVjIssCGyOulw63n9A7i5FVbZ56zZaO2Aw3jEmtRPAsNpoB3VwqnnsV77yjGqnxQaX1sApoyFMXBdM1C6idx1gVnhbHLW9xvH29ogFgbUc8oPg1dGt+WFp41JqphEu5WrnZy6eembhnQ6cyyuAMSKVRj9iA0W9TlQmwSF5XenMVueRSJVSMyVu2q/opCsTxzYhthQe+GRVbKuXPlJl5yyojtKFnLvGUPhBX9jtkqCHJMqnXFgv2ZHFzREGxh58EUCavpqNdITh15y3mVR4sdhbXiced1JpGsHLCapuhGUJrLd005JFTyg/zJ6RZJ1ItYE/ki3steyf23X1XCfQDQL6PAX0GFwpNIpaEbZmlNnqaz8KepaaX159D7hD4Nlvy+2/fz3vWOw/+xF4NZWazNOAAAAABJRU5ErkJggg==;rounded=1;" vertex="1" parent="30KggWmX4pOPK8MYpUQ7-63">
          <mxGeometry x="36.598499999999945" width="36.803000000000004" height="26.46428571428572" as="geometry" />
        </mxCell>
        <mxCell id="30KggWmX4pOPK8MYpUQ7-65" value="PHP-fpm" style="text;html=1;strokeColor=none;fillColor=none;align=center;verticalAlign=middle;whiteSpace=wrap;rounded=1;fontSize=9;spacing=0;" vertex="1" parent="30KggWmX4pOPK8MYpUQ7-63">
          <mxGeometry y="29.606956521739114" width="110" height="20" as="geometry" />
        </mxCell>
        <mxCell id="30KggWmX4pOPK8MYpUQ7-83" value="" style="group;rounded=1;" vertex="1" connectable="0" parent="30KggWmX4pOPK8MYpUQ7-92">
          <mxGeometry y="100" width="560" height="50" as="geometry" />
        </mxCell>
        <mxCell id="30KggWmX4pOPK8MYpUQ7-46" value="" style="group;rounded=1;" vertex="1" connectable="0" parent="30KggWmX4pOPK8MYpUQ7-83">
          <mxGeometry x="110" width="100" height="50" as="geometry" />
        </mxCell>
        <mxCell id="30KggWmX4pOPK8MYpUQ7-47" value="" style="shape=image;verticalLabelPosition=bottom;labelBackgroundColor=default;verticalAlign=top;aspect=fixed;imageAspect=0;image=data:image/png,iVBORw0KGgoAAAANSUhEUgAAAHkAAABXCAYAAAAgXOoPAAAACXBIWXMAAAsTAAALEwEAmpwYAAAAAXNSR0IArs4c6QAAAARnQU1BAACxjwv8YQUAAAaGSURBVHgB7Z3RUhNJFIbP6RkVra3apCyt2qsdiXtteALDE6w8AeRugdoSn8DwBMZyEy4NT7D6BIQnEK8FGW9XMFi1N7jp7j09Q1AhwZlkpjOZOV9RMJB0wuSf09N9zunTCDmk0jpaAcSXcdpI/HLPX/3FhxwigMk9LHIBYJELAItcAFjkAsAiFwAWuQCwyAWARS4ALHIBcCGPKDgBobtxmsDp3AkwDMNkFoSUqbQ+7WgEL3IDLV+/X7+z4W31PKH1DsRACdzw/yi/rrw4eqQd8SxWWzxdzGsUKvV7shEYQXuRGwjx8+AwVjvCkaocvgaU4rbNMzy6LgD5HF1nHO9ZrySu9xvqi9v0n5R9SBm25CkgbsBTRPHYuaF27m99rEHKsMiWuf/iYw1BbZz96mktdua3ek8hRVhkyyhHXMo9Q60aaQrNIlvEJBjSnNUb9pgRutI6jpV8GBUW2SIa8WprRVhJw6JZZEuE9+IfO4UCi273liFBWGRLkBWvRH+2atI0y4OESH2eTFemTycYvYFSnweHGsCHGCjH6YUHcKKdeG3TRgt8GONTKDlzynTbdUiA1H3XTOD88GhOfAgxQVSL+6t3ujAh3F1bwHX7HoyBUvAIEiBSdz3f6j0mh3/0N0R9crB2e8kcVrZoWqDQi9pUg9ylKFTDuP6c6/pviIF0sGmiUGaQo4UTa5QqxWndRKEmOddRKNTVcbpM8oot0+fQINfnRAkNkUTWKBcQsAbR8c/baqwhRo8I0Yn5wcEclKhxDWJAUajt4D0FevTh12AMJjnXkSCWYDxK7ly/Sj+7MAHcXVuABp4ejInSugoTwlGozOMu0y3vgbnlDUm+OEFNMwmQbxHdN/IUdodFtVjkjEPjgyoNVKp0+xk+FULzJWpm3ujcoPFT+9Me3W6aB2vl7cFTuLu2AGrtgyWCiwJUp9I+PvRa/wRdPVuyBciyfLCP56Dzhrr6DluyBaRwujBFWGQL+Ks0GKIBEkwBCWKTRbaEBvUcbIPQMRcYi2wJJdwOWMZYsfnJIlsi7LItWvOZFYeHjBWCSNQ12QCBiSYEjMCXKBZZZAv8RvNUCdceBgGPMX3psaEBnhRiYSCwwa20j+gfwN+BmRxtgipYGiwNUmCsSIE1SGABYvFg9XvXpkshm8f0aA2YZBjlfkwfGkWLpXfr5b2LDwi60sYNgzFZQJsghdqUN8XCMIENLl13HjCzhxGX5t79W27Tr9++0tHiUt/ClpxBLiYxBkEOAb5Wzp5Q/bf7f0bP/eIARTbx36/dvgcJwc6QDEJWnKjThEXOIArFK0gQoacT62RG8Y07MinYkjPGIKiQJILm7j4w2SAFKzYIheoDMJkgDSs2CJtJZswVpGTFBoE88MoCflpWbBDTTjJjguW922lZcfD65lulddxj9+bU8A8S9G4NI5xC4WQLqpjxEVouQcoEImsld4Gxj1bP363f3YOUCURWzrVE3WhMJHx5y22ABc6TGObbnw65sqw9JIp7aQ62vuWrW1PLbWCsYDI5bAlsOBfZAZe7bBuQ02N//U4DLHIucpAfpLELTJr4ck48Act8H4VSU1ivUxzChPd62frCt0vZo/Pt48Mo5QGZGJzlQ4/KpkybS/FkClik5kMtKqjU0rQEDt5/2B/ZmhNEy/rB+t0OTJGhmSFCqkRqOhaeDAhsGLmio9I+NtXwEin7VzimfA++yMgcL3kq6tMqgTDj+FkS2DBSZFPP0QwYgImMBr1npklZEthwZbamWYphXHDA/BiKKKmbzqJNd2VUIq2yrPx11LG0Qn72MAvPUG7ur91tQkaJlHct/3M2tMZMdUFZIOiehVjIssCGyOulw63n9A7i5FVbZ56zZaO2Aw3jEmtRPAsNpoB3VwqnnsV77yjGqnxQaX1sApoyFMXBdM1C6idx1gVnhbHLW9xvH29ogFgbUc8oPg1dGt+WFp41JqphEu5WrnZy6eembhnQ6cyyuAMSKVRj9iA0W9TlQmwSF5XenMVueRSJVSMyVu2q/opCsTxzYhthQe+GRVbKuXPlJl5yyojtKFnLvGUPhBX9jtkqCHJMqnXFgv2ZHFzREGxh58EUCavpqNdITh15y3mVR4sdhbXiced1JpGsHLCapuhGUJrLd005JFTyg/zJ6RZJ1ItYE/ki3steyf23X1XCfQDQL6PAX0GFwpNIpaEbZmlNnqaz8KepaaX159D7hD4Nlvy+2/fz3vWOw/+xF4NZWazNOAAAAABJRU5ErkJggg==;rounded=1;" vertex="1" parent="30KggWmX4pOPK8MYpUQ7-46">
          <mxGeometry x="31.598499999999945" width="36.803000000000004" height="26.46428571428572" as="geometry" />
        </mxCell>
        <mxCell id="30KggWmX4pOPK8MYpUQ7-48" value="web-service-internal" style="text;html=1;strokeColor=none;fillColor=none;align=center;verticalAlign=middle;whiteSpace=wrap;rounded=1;fontSize=9;spacing=0;" vertex="1" parent="30KggWmX4pOPK8MYpUQ7-46">
          <mxGeometry y="29.606956521739114" width="100" height="20" as="geometry" />
        </mxCell>
        <mxCell id="30KggWmX4pOPK8MYpUQ7-50" value="" style="group;rounded=1;" vertex="1" connectable="0" parent="30KggWmX4pOPK8MYpUQ7-83">
          <mxGeometry x="460" width="100" height="50" as="geometry" />
        </mxCell>
        <mxCell id="30KggWmX4pOPK8MYpUQ7-51" value="" style="shape=image;verticalLabelPosition=bottom;labelBackgroundColor=default;verticalAlign=top;aspect=fixed;imageAspect=0;image=data:image/png,iVBORw0KGgoAAAANSUhEUgAAAHkAAABXCAYAAAAgXOoPAAAACXBIWXMAAAsTAAALEwEAmpwYAAAAAXNSR0IArs4c6QAAAARnQU1BAACxjwv8YQUAAAaGSURBVHgB7Z3RUhNJFIbP6RkVra3apCyt2qsdiXtteALDE6w8AeRugdoSn8DwBMZyEy4NT7D6BIQnEK8FGW9XMFi1N7jp7j09Q1AhwZlkpjOZOV9RMJB0wuSf09N9zunTCDmk0jpaAcSXcdpI/HLPX/3FhxwigMk9LHIBYJELAItcAFjkAsAiFwAWuQCwyAWARS4ALHIBcCGPKDgBobtxmsDp3AkwDMNkFoSUqbQ+7WgEL3IDLV+/X7+z4W31PKH1DsRACdzw/yi/rrw4eqQd8SxWWzxdzGsUKvV7shEYQXuRGwjx8+AwVjvCkaocvgaU4rbNMzy6LgD5HF1nHO9ZrySu9xvqi9v0n5R9SBm25CkgbsBTRPHYuaF27m99rEHKsMiWuf/iYw1BbZz96mktdua3ek8hRVhkyyhHXMo9Q60aaQrNIlvEJBjSnNUb9pgRutI6jpV8GBUW2SIa8WprRVhJw6JZZEuE9+IfO4UCi273liFBWGRLkBWvRH+2atI0y4OESH2eTFemTycYvYFSnweHGsCHGCjH6YUHcKKdeG3TRgt8GONTKDlzynTbdUiA1H3XTOD88GhOfAgxQVSL+6t3ujAh3F1bwHX7HoyBUvAIEiBSdz3f6j0mh3/0N0R9crB2e8kcVrZoWqDQi9pUg9ylKFTDuP6c6/pviIF0sGmiUGaQo4UTa5QqxWndRKEmOddRKNTVcbpM8oot0+fQINfnRAkNkUTWKBcQsAbR8c/baqwhRo8I0Yn5wcEclKhxDWJAUajt4D0FevTh12AMJjnXkSCWYDxK7ly/Sj+7MAHcXVuABp4ejInSugoTwlGozOMu0y3vgbnlDUm+OEFNMwmQbxHdN/IUdodFtVjkjEPjgyoNVKp0+xk+FULzJWpm3ujcoPFT+9Me3W6aB2vl7cFTuLu2AGrtgyWCiwJUp9I+PvRa/wRdPVuyBciyfLCP56Dzhrr6DluyBaRwujBFWGQL+Ks0GKIBEkwBCWKTRbaEBvUcbIPQMRcYi2wJJdwOWMZYsfnJIlsi7LItWvOZFYeHjBWCSNQ12QCBiSYEjMCXKBZZZAv8RvNUCdceBgGPMX3psaEBnhRiYSCwwa20j+gfwN+BmRxtgipYGiwNUmCsSIE1SGABYvFg9XvXpkshm8f0aA2YZBjlfkwfGkWLpXfr5b2LDwi60sYNgzFZQJsghdqUN8XCMIENLl13HjCzhxGX5t79W27Tr9++0tHiUt/ClpxBLiYxBkEOAb5Wzp5Q/bf7f0bP/eIARTbx36/dvgcJwc6QDEJWnKjThEXOIArFK0gQoacT62RG8Y07MinYkjPGIKiQJILm7j4w2SAFKzYIheoDMJkgDSs2CJtJZswVpGTFBoE88MoCflpWbBDTTjJjguW922lZcfD65lulddxj9+bU8A8S9G4NI5xC4WQLqpjxEVouQcoEImsld4Gxj1bP363f3YOUCURWzrVE3WhMJHx5y22ABc6TGObbnw65sqw9JIp7aQ62vuWrW1PLbWCsYDI5bAlsOBfZAZe7bBuQ02N//U4DLHIucpAfpLELTJr4ck48Act8H4VSU1ivUxzChPd62frCt0vZo/Pt48Mo5QGZGJzlQ4/KpkybS/FkClik5kMtKqjU0rQEDt5/2B/ZmhNEy/rB+t0OTJGhmSFCqkRqOhaeDAhsGLmio9I+NtXwEin7VzimfA++yMgcL3kq6tMqgTDj+FkS2DBSZFPP0QwYgImMBr1npklZEthwZbamWYphXHDA/BiKKKmbzqJNd2VUIq2yrPx11LG0Qn72MAvPUG7ur91tQkaJlHct/3M2tMZMdUFZIOiehVjIssCGyOulw63n9A7i5FVbZ56zZaO2Aw3jEmtRPAsNpoB3VwqnnsV77yjGqnxQaX1sApoyFMXBdM1C6idx1gVnhbHLW9xvH29ogFgbUc8oPg1dGt+WFp41JqphEu5WrnZy6eembhnQ6cyyuAMSKVRj9iA0W9TlQmwSF5XenMVueRSJVSMyVu2q/opCsTxzYhthQe+GRVbKuXPlJl5yyojtKFnLvGUPhBX9jtkqCHJMqnXFgv2ZHFzREGxh58EUCavpqNdITh15y3mVR4sdhbXiced1JpGsHLCapuhGUJrLd005JFTyg/zJ6RZJ1ItYE/ki3steyf23X1XCfQDQL6PAX0GFwpNIpaEbZmlNnqaz8KepaaX159D7hD4Nlvy+2/fz3vWOw/+xF4NZWazNOAAAAABJRU5ErkJggg==;rounded=1;" vertex="1" parent="30KggWmX4pOPK8MYpUQ7-50">
          <mxGeometry x="31.598499999999945" width="36.803000000000004" height="26.46428571428572" as="geometry" />
        </mxCell>
        <mxCell id="30KggWmX4pOPK8MYpUQ7-52" value="web-service-floater" style="text;html=1;strokeColor=none;fillColor=none;align=center;verticalAlign=middle;whiteSpace=wrap;rounded=1;fontSize=9;spacing=0;" vertex="1" parent="30KggWmX4pOPK8MYpUQ7-50">
          <mxGeometry y="29.606956521739114" width="100" height="20" as="geometry" />
        </mxCell>
        <mxCell id="30KggWmX4pOPK8MYpUQ7-53" value="" style="group;rounded=1;" vertex="1" connectable="0" parent="30KggWmX4pOPK8MYpUQ7-83">
          <mxGeometry width="100" height="50" as="geometry" />
        </mxCell>
        <mxCell id="30KggWmX4pOPK8MYpUQ7-54" value="" style="shape=image;verticalLabelPosition=bottom;labelBackgroundColor=default;verticalAlign=top;aspect=fixed;imageAspect=0;image=data:image/png,iVBORw0KGgoAAAANSUhEUgAAAHkAAABXCAYAAAAgXOoPAAAACXBIWXMAAAsTAAALEwEAmpwYAAAAAXNSR0IArs4c6QAAAARnQU1BAACxjwv8YQUAAAaGSURBVHgB7Z3RUhNJFIbP6RkVra3apCyt2qsdiXtteALDE6w8AeRugdoSn8DwBMZyEy4NT7D6BIQnEK8FGW9XMFi1N7jp7j09Q1AhwZlkpjOZOV9RMJB0wuSf09N9zunTCDmk0jpaAcSXcdpI/HLPX/3FhxwigMk9LHIBYJELAItcAFjkAsAiFwAWuQCwyAWARS4ALHIBcCGPKDgBobtxmsDp3AkwDMNkFoSUqbQ+7WgEL3IDLV+/X7+z4W31PKH1DsRACdzw/yi/rrw4eqQd8SxWWzxdzGsUKvV7shEYQXuRGwjx8+AwVjvCkaocvgaU4rbNMzy6LgD5HF1nHO9ZrySu9xvqi9v0n5R9SBm25CkgbsBTRPHYuaF27m99rEHKsMiWuf/iYw1BbZz96mktdua3ek8hRVhkyyhHXMo9Q60aaQrNIlvEJBjSnNUb9pgRutI6jpV8GBUW2SIa8WprRVhJw6JZZEuE9+IfO4UCi273liFBWGRLkBWvRH+2atI0y4OESH2eTFemTycYvYFSnweHGsCHGCjH6YUHcKKdeG3TRgt8GONTKDlzynTbdUiA1H3XTOD88GhOfAgxQVSL+6t3ujAh3F1bwHX7HoyBUvAIEiBSdz3f6j0mh3/0N0R9crB2e8kcVrZoWqDQi9pUg9ylKFTDuP6c6/pviIF0sGmiUGaQo4UTa5QqxWndRKEmOddRKNTVcbpM8oot0+fQINfnRAkNkUTWKBcQsAbR8c/baqwhRo8I0Yn5wcEclKhxDWJAUajt4D0FevTh12AMJjnXkSCWYDxK7ly/Sj+7MAHcXVuABp4ejInSugoTwlGozOMu0y3vgbnlDUm+OEFNMwmQbxHdN/IUdodFtVjkjEPjgyoNVKp0+xk+FULzJWpm3ujcoPFT+9Me3W6aB2vl7cFTuLu2AGrtgyWCiwJUp9I+PvRa/wRdPVuyBciyfLCP56Dzhrr6DluyBaRwujBFWGQL+Ks0GKIBEkwBCWKTRbaEBvUcbIPQMRcYi2wJJdwOWMZYsfnJIlsi7LItWvOZFYeHjBWCSNQ12QCBiSYEjMCXKBZZZAv8RvNUCdceBgGPMX3psaEBnhRiYSCwwa20j+gfwN+BmRxtgipYGiwNUmCsSIE1SGABYvFg9XvXpkshm8f0aA2YZBjlfkwfGkWLpXfr5b2LDwi60sYNgzFZQJsghdqUN8XCMIENLl13HjCzhxGX5t79W27Tr9++0tHiUt/ClpxBLiYxBkEOAb5Wzp5Q/bf7f0bP/eIARTbx36/dvgcJwc6QDEJWnKjThEXOIArFK0gQoacT62RG8Y07MinYkjPGIKiQJILm7j4w2SAFKzYIheoDMJkgDSs2CJtJZswVpGTFBoE88MoCflpWbBDTTjJjguW922lZcfD65lulddxj9+bU8A8S9G4NI5xC4WQLqpjxEVouQcoEImsld4Gxj1bP363f3YOUCURWzrVE3WhMJHx5y22ABc6TGObbnw65sqw9JIp7aQ62vuWrW1PLbWCsYDI5bAlsOBfZAZe7bBuQ02N//U4DLHIucpAfpLELTJr4ck48Act8H4VSU1ivUxzChPd62frCt0vZo/Pt48Mo5QGZGJzlQ4/KpkybS/FkClik5kMtKqjU0rQEDt5/2B/ZmhNEy/rB+t0OTJGhmSFCqkRqOhaeDAhsGLmio9I+NtXwEin7VzimfA++yMgcL3kq6tMqgTDj+FkS2DBSZFPP0QwYgImMBr1npklZEthwZbamWYphXHDA/BiKKKmbzqJNd2VUIq2yrPx11LG0Qn72MAvPUG7ur91tQkaJlHct/3M2tMZMdUFZIOiehVjIssCGyOulw63n9A7i5FVbZ56zZaO2Aw3jEmtRPAsNpoB3VwqnnsV77yjGqnxQaX1sApoyFMXBdM1C6idx1gVnhbHLW9xvH29ogFgbUc8oPg1dGt+WFp41JqphEu5WrnZy6eembhnQ6cyyuAMSKVRj9iA0W9TlQmwSF5XenMVueRSJVSMyVu2q/opCsTxzYhthQe+GRVbKuXPlJl5yyojtKFnLvGUPhBX9jtkqCHJMqnXFgv2ZHFzREGxh58EUCavpqNdITh15y3mVR4sdhbXiced1JpGsHLCapuhGUJrLd005JFTyg/zJ6RZJ1ItYE/ki3steyf23X1XCfQDQL6PAX0GFwpNIpaEbZmlNnqaz8KepaaX159D7hD4Nlvy+2/fz3vWOw/+xF4NZWazNOAAAAABJRU5ErkJggg==;rounded=1;" vertex="1" parent="30KggWmX4pOPK8MYpUQ7-53">
          <mxGeometry x="31.598499999999945" width="36.803000000000004" height="26.46428571428572" as="geometry" />
        </mxCell>
        <mxCell id="30KggWmX4pOPK8MYpUQ7-55" value="client-communicator" style="text;html=1;strokeColor=none;fillColor=none;align=center;verticalAlign=middle;whiteSpace=wrap;rounded=1;fontSize=9;spacing=0;" vertex="1" parent="30KggWmX4pOPK8MYpUQ7-53">
          <mxGeometry y="29.606956521739114" width="100" height="20" as="geometry" />
        </mxCell>
        <mxCell id="30KggWmX4pOPK8MYpUQ7-57" value="" style="group;rounded=1;" vertex="1" connectable="0" parent="30KggWmX4pOPK8MYpUQ7-83">
          <mxGeometry x="220" width="110" height="50" as="geometry" />
        </mxCell>
        <mxCell id="30KggWmX4pOPK8MYpUQ7-58" value="" style="shape=image;verticalLabelPosition=bottom;labelBackgroundColor=default;verticalAlign=top;aspect=fixed;imageAspect=0;image=data:image/png,iVBORw0KGgoAAAANSUhEUgAAAHkAAABXCAYAAAAgXOoPAAAACXBIWXMAAAsTAAALEwEAmpwYAAAAAXNSR0IArs4c6QAAAARnQU1BAACxjwv8YQUAAAaGSURBVHgB7Z3RUhNJFIbP6RkVra3apCyt2qsdiXtteALDE6w8AeRugdoSn8DwBMZyEy4NT7D6BIQnEK8FGW9XMFi1N7jp7j09Q1AhwZlkpjOZOV9RMJB0wuSf09N9zunTCDmk0jpaAcSXcdpI/HLPX/3FhxwigMk9LHIBYJELAItcAFjkAsAiFwAWuQCwyAWARS4ALHIBcCGPKDgBobtxmsDp3AkwDMNkFoSUqbQ+7WgEL3IDLV+/X7+z4W31PKH1DsRACdzw/yi/rrw4eqQd8SxWWzxdzGsUKvV7shEYQXuRGwjx8+AwVjvCkaocvgaU4rbNMzy6LgD5HF1nHO9ZrySu9xvqi9v0n5R9SBm25CkgbsBTRPHYuaF27m99rEHKsMiWuf/iYw1BbZz96mktdua3ek8hRVhkyyhHXMo9Q60aaQrNIlvEJBjSnNUb9pgRutI6jpV8GBUW2SIa8WprRVhJw6JZZEuE9+IfO4UCi273liFBWGRLkBWvRH+2atI0y4OESH2eTFemTycYvYFSnweHGsCHGCjH6YUHcKKdeG3TRgt8GONTKDlzynTbdUiA1H3XTOD88GhOfAgxQVSL+6t3ujAh3F1bwHX7HoyBUvAIEiBSdz3f6j0mh3/0N0R9crB2e8kcVrZoWqDQi9pUg9ylKFTDuP6c6/pviIF0sGmiUGaQo4UTa5QqxWndRKEmOddRKNTVcbpM8oot0+fQINfnRAkNkUTWKBcQsAbR8c/baqwhRo8I0Yn5wcEclKhxDWJAUajt4D0FevTh12AMJjnXkSCWYDxK7ly/Sj+7MAHcXVuABp4ejInSugoTwlGozOMu0y3vgbnlDUm+OEFNMwmQbxHdN/IUdodFtVjkjEPjgyoNVKp0+xk+FULzJWpm3ujcoPFT+9Me3W6aB2vl7cFTuLu2AGrtgyWCiwJUp9I+PvRa/wRdPVuyBciyfLCP56Dzhrr6DluyBaRwujBFWGQL+Ks0GKIBEkwBCWKTRbaEBvUcbIPQMRcYi2wJJdwOWMZYsfnJIlsi7LItWvOZFYeHjBWCSNQ12QCBiSYEjMCXKBZZZAv8RvNUCdceBgGPMX3psaEBnhRiYSCwwa20j+gfwN+BmRxtgipYGiwNUmCsSIE1SGABYvFg9XvXpkshm8f0aA2YZBjlfkwfGkWLpXfr5b2LDwi60sYNgzFZQJsghdqUN8XCMIENLl13HjCzhxGX5t79W27Tr9++0tHiUt/ClpxBLiYxBkEOAb5Wzp5Q/bf7f0bP/eIARTbx36/dvgcJwc6QDEJWnKjThEXOIArFK0gQoacT62RG8Y07MinYkjPGIKiQJILm7j4w2SAFKzYIheoDMJkgDSs2CJtJZswVpGTFBoE88MoCflpWbBDTTjJjguW922lZcfD65lulddxj9+bU8A8S9G4NI5xC4WQLqpjxEVouQcoEImsld4Gxj1bP363f3YOUCURWzrVE3WhMJHx5y22ABc6TGObbnw65sqw9JIp7aQ62vuWrW1PLbWCsYDI5bAlsOBfZAZe7bBuQ02N//U4DLHIucpAfpLELTJr4ck48Act8H4VSU1ivUxzChPd62frCt0vZo/Pt48Mo5QGZGJzlQ4/KpkybS/FkClik5kMtKqjU0rQEDt5/2B/ZmhNEy/rB+t0OTJGhmSFCqkRqOhaeDAhsGLmio9I+NtXwEin7VzimfA++yMgcL3kq6tMqgTDj+FkS2DBSZFPP0QwYgImMBr1npklZEthwZbamWYphXHDA/BiKKKmbzqJNd2VUIq2yrPx11LG0Qn72MAvPUG7ur91tQkaJlHct/3M2tMZMdUFZIOiehVjIssCGyOulw63n9A7i5FVbZ56zZaO2Aw3jEmtRPAsNpoB3VwqnnsV77yjGqnxQaX1sApoyFMXBdM1C6idx1gVnhbHLW9xvH29ogFgbUc8oPg1dGt+WFp41JqphEu5WrnZy6eembhnQ6cyyuAMSKVRj9iA0W9TlQmwSF5XenMVueRSJVSMyVu2q/opCsTxzYhthQe+GRVbKuXPlJl5yyojtKFnLvGUPhBX9jtkqCHJMqnXFgv2ZHFzREGxh58EUCavpqNdITh15y3mVR4sdhbXiced1JpGsHLCapuhGUJrLd005JFTyg/zJ6RZJ1ItYE/ki3steyf23X1XCfQDQL6PAX0GFwpNIpaEbZmlNnqaz8KepaaX159D7hD4Nlvy+2/fz3vWOw/+xF4NZWazNOAAAAABJRU5ErkJggg==;rounded=1;" vertex="1" parent="30KggWmX4pOPK8MYpUQ7-57">
          <mxGeometry x="36.598499999999945" width="36.803000000000004" height="26.46428571428572" as="geometry" />
        </mxCell>
        <mxCell id="30KggWmX4pOPK8MYpUQ7-59" value="Legacy-backend-nginx" style="text;html=1;strokeColor=none;fillColor=none;align=center;verticalAlign=middle;whiteSpace=wrap;rounded=1;fontSize=9;spacing=0;" vertex="1" parent="30KggWmX4pOPK8MYpUQ7-57">
          <mxGeometry y="29.606956521739114" width="110" height="20" as="geometry" />
        </mxCell>
        <mxCell id="30KggWmX4pOPK8MYpUQ7-66" value="" style="group;rounded=1;" vertex="1" connectable="0" parent="30KggWmX4pOPK8MYpUQ7-83">
          <mxGeometry x="340" width="110" height="50" as="geometry" />
        </mxCell>
        <mxCell id="30KggWmX4pOPK8MYpUQ7-67" value="" style="shape=image;verticalLabelPosition=bottom;labelBackgroundColor=default;verticalAlign=top;aspect=fixed;imageAspect=0;image=data:image/png,iVBORw0KGgoAAAANSUhEUgAAAHkAAABXCAYAAAAgXOoPAAAACXBIWXMAAAsTAAALEwEAmpwYAAAAAXNSR0IArs4c6QAAAARnQU1BAACxjwv8YQUAAAaGSURBVHgB7Z3RUhNJFIbP6RkVra3apCyt2qsdiXtteALDE6w8AeRugdoSn8DwBMZyEy4NT7D6BIQnEK8FGW9XMFi1N7jp7j09Q1AhwZlkpjOZOV9RMJB0wuSf09N9zunTCDmk0jpaAcSXcdpI/HLPX/3FhxwigMk9LHIBYJELAItcAFjkAsAiFwAWuQCwyAWARS4ALHIBcCGPKDgBobtxmsDp3AkwDMNkFoSUqbQ+7WgEL3IDLV+/X7+z4W31PKH1DsRACdzw/yi/rrw4eqQd8SxWWzxdzGsUKvV7shEYQXuRGwjx8+AwVjvCkaocvgaU4rbNMzy6LgD5HF1nHO9ZrySu9xvqi9v0n5R9SBm25CkgbsBTRPHYuaF27m99rEHKsMiWuf/iYw1BbZz96mktdua3ek8hRVhkyyhHXMo9Q60aaQrNIlvEJBjSnNUb9pgRutI6jpV8GBUW2SIa8WprRVhJw6JZZEuE9+IfO4UCi273liFBWGRLkBWvRH+2atI0y4OESH2eTFemTycYvYFSnweHGsCHGCjH6YUHcKKdeG3TRgt8GONTKDlzynTbdUiA1H3XTOD88GhOfAgxQVSL+6t3ujAh3F1bwHX7HoyBUvAIEiBSdz3f6j0mh3/0N0R9crB2e8kcVrZoWqDQi9pUg9ylKFTDuP6c6/pviIF0sGmiUGaQo4UTa5QqxWndRKEmOddRKNTVcbpM8oot0+fQINfnRAkNkUTWKBcQsAbR8c/baqwhRo8I0Yn5wcEclKhxDWJAUajt4D0FevTh12AMJjnXkSCWYDxK7ly/Sj+7MAHcXVuABp4ejInSugoTwlGozOMu0y3vgbnlDUm+OEFNMwmQbxHdN/IUdodFtVjkjEPjgyoNVKp0+xk+FULzJWpm3ujcoPFT+9Me3W6aB2vl7cFTuLu2AGrtgyWCiwJUp9I+PvRa/wRdPVuyBciyfLCP56Dzhrr6DluyBaRwujBFWGQL+Ks0GKIBEkwBCWKTRbaEBvUcbIPQMRcYi2wJJdwOWMZYsfnJIlsi7LItWvOZFYeHjBWCSNQ12QCBiSYEjMCXKBZZZAv8RvNUCdceBgGPMX3psaEBnhRiYSCwwa20j+gfwN+BmRxtgipYGiwNUmCsSIE1SGABYvFg9XvXpkshm8f0aA2YZBjlfkwfGkWLpXfr5b2LDwi60sYNgzFZQJsghdqUN8XCMIENLl13HjCzhxGX5t79W27Tr9++0tHiUt/ClpxBLiYxBkEOAb5Wzp5Q/bf7f0bP/eIARTbx36/dvgcJwc6QDEJWnKjThEXOIArFK0gQoacT62RG8Y07MinYkjPGIKiQJILm7j4w2SAFKzYIheoDMJkgDSs2CJtJZswVpGTFBoE88MoCflpWbBDTTjJjguW922lZcfD65lulddxj9+bU8A8S9G4NI5xC4WQLqpjxEVouQcoEImsld4Gxj1bP363f3YOUCURWzrVE3WhMJHx5y22ABc6TGObbnw65sqw9JIp7aQ62vuWrW1PLbWCsYDI5bAlsOBfZAZe7bBuQ02N//U4DLHIucpAfpLELTJr4ck48Act8H4VSU1ivUxzChPd62frCt0vZo/Pt48Mo5QGZGJzlQ4/KpkybS/FkClik5kMtKqjU0rQEDt5/2B/ZmhNEy/rB+t0OTJGhmSFCqkRqOhaeDAhsGLmio9I+NtXwEin7VzimfA++yMgcL3kq6tMqgTDj+FkS2DBSZFPP0QwYgImMBr1npklZEthwZbamWYphXHDA/BiKKKmbzqJNd2VUIq2yrPx11LG0Qn72MAvPUG7ur91tQkaJlHct/3M2tMZMdUFZIOiehVjIssCGyOulw63n9A7i5FVbZ56zZaO2Aw3jEmtRPAsNpoB3VwqnnsV77yjGqnxQaX1sApoyFMXBdM1C6idx1gVnhbHLW9xvH29ogFgbUc8oPg1dGt+WFp41JqphEu5WrnZy6eembhnQ6cyyuAMSKVRj9iA0W9TlQmwSF5XenMVueRSJVSMyVu2q/opCsTxzYhthQe+GRVbKuXPlJl5yyojtKFnLvGUPhBX9jtkqCHJMqnXFgv2ZHFzREGxh58EUCavpqNdITh15y3mVR4sdhbXiced1JpGsHLCapuhGUJrLd005JFTyg/zJ6RZJ1ItYE/ki3steyf23X1XCfQDQL6PAX0GFwpNIpaEbZmlNnqaz8KepaaX159D7hD4Nlvy+2/fz3vWOw/+xF4NZWazNOAAAAABJRU5ErkJggg==;rounded=1;" vertex="1" parent="30KggWmX4pOPK8MYpUQ7-66">
          <mxGeometry x="36.598499999999945" width="36.803000000000004" height="26.46428571428572" as="geometry" />
        </mxCell>
        <mxCell id="30KggWmX4pOPK8MYpUQ7-68" value="Legacy-frontend nginx" style="text;html=1;strokeColor=none;fillColor=none;align=center;verticalAlign=middle;whiteSpace=wrap;rounded=1;fontSize=9;spacing=0;" vertex="1" parent="30KggWmX4pOPK8MYpUQ7-66">
          <mxGeometry y="29.606956521739114" width="110" height="20" as="geometry" />
        </mxCell>
        <mxCell id="30KggWmX4pOPK8MYpUQ7-86" style="edgeStyle=orthogonalEdgeStyle;rounded=1;orthogonalLoop=1;jettySize=auto;html=1;entryX=0.5;entryY=0;entryDx=0;entryDy=0;" edge="1" parent="30KggWmX4pOPK8MYpUQ7-92" source="30KggWmX4pOPK8MYpUQ7-64" target="30KggWmX4pOPK8MYpUQ7-54">
          <mxGeometry relative="1" as="geometry" />
        </mxCell>
        <mxCell id="30KggWmX4pOPK8MYpUQ7-87" style="edgeStyle=orthogonalEdgeStyle;rounded=1;orthogonalLoop=1;jettySize=auto;html=1;" edge="1" parent="30KggWmX4pOPK8MYpUQ7-92" source="30KggWmX4pOPK8MYpUQ7-64" target="30KggWmX4pOPK8MYpUQ7-47">
          <mxGeometry relative="1" as="geometry" />
        </mxCell>
        <mxCell id="30KggWmX4pOPK8MYpUQ7-90" style="edgeStyle=orthogonalEdgeStyle;rounded=1;orthogonalLoop=1;jettySize=auto;html=1;" edge="1" parent="30KggWmX4pOPK8MYpUQ7-92" source="30KggWmX4pOPK8MYpUQ7-64" target="30KggWmX4pOPK8MYpUQ7-67">
          <mxGeometry relative="1" as="geometry" />
        </mxCell>
        <mxCell id="30KggWmX4pOPK8MYpUQ7-91" style="edgeStyle=orthogonalEdgeStyle;rounded=1;orthogonalLoop=1;jettySize=auto;html=1;" edge="1" parent="30KggWmX4pOPK8MYpUQ7-92" source="30KggWmX4pOPK8MYpUQ7-64" target="30KggWmX4pOPK8MYpUQ7-51">
          <mxGeometry relative="1" as="geometry" />
        </mxCell>
        <mxCell id="30KggWmX4pOPK8MYpUQ7-89" style="edgeStyle=orthogonalEdgeStyle;rounded=1;orthogonalLoop=1;jettySize=auto;html=1;" edge="1" parent="30KggWmX4pOPK8MYpUQ7-92" source="30KggWmX4pOPK8MYpUQ7-65" target="30KggWmX4pOPK8MYpUQ7-58">
          <mxGeometry relative="1" as="geometry" />
        </mxCell>
        <mxCell id="30KggWmX4pOPK8MYpUQ7-117" value="" style="group;rounded=1;" vertex="1" connectable="0" parent="30KggWmX4pOPK8MYpUQ7-157">
          <mxGeometry x="190" y="180" width="290" height="90" as="geometry" />
        </mxCell>
        <mxCell id="30KggWmX4pOPK8MYpUQ7-99" value="" style="group;rounded=1;" vertex="1" connectable="0" parent="30KggWmX4pOPK8MYpUQ7-117">
          <mxGeometry x="140" y="20" width="150" height="30" as="geometry" />
        </mxCell>
        <mxCell id="30KggWmX4pOPK8MYpUQ7-100" value="" style="shape=image;verticalLabelPosition=bottom;labelBackgroundColor=default;verticalAlign=top;aspect=fixed;imageAspect=0;image=data:image/png,iVBORw0KGgoAAAANSUhEUgAAABgAAAAYCAYAAADgdz34AAAACXBIWXMAAAsTAAALEwEAmpwYAAAAAXNSR0IArs4c6QAAAARnQU1BAACxjwv8YQUAAAHOSURBVHgB7VTLTetQED1zHRbJ05PcAeng6VVAUgF0AEgEnBWhAkwFJBtiMAuoAKggLoESTAeWEAREfIeZmyARILEDghVHsjT34zlz5nOBXxSAZh0E8W2DeGkXZBtyzQc4A5uE6akXtf4mKAnz0WY7fjgkVAYgXgNRxtYejMOxDd1vx/eH+KwCdS7Rdpi4Z3OkFY/+HW1VN4PjYQhYCcnoT/typ9tv1faKCKYUBPGw4ZzDHkRbtY5naNXy6HxyMyFjVqJWNVRyia2jaSwimFLQPnm4cGkpCWa+irZra6UVuBwTzvqtKhF7/8XFtdovn65Hsq+21OWcyKygAJXpJfk2tzdqWcqlcyh7c5559OhPFqkQ+ijAmy7izHhm2ZkjpKKmPufP+vsA3uNnazDuDmd1xzlHwhg1Xc6BpnyJqw9MOA4v72IRBYrg9L5LTLtyEFqr5xbRzp8wiO/OyNK1zMGytrI2g87HwgSvSdzzICLZ5j3pmHVMaqLOmbEh65Sf0Iza1XQWwYdPhQ6ZpkTfHlUgA7YvtfElh5e67yJn6SJGnZYwCPrDOhZRUAbqlDwMnKo5Sj5NUJbkSwRlSAy+CHXGudZLJ/sboUrmFfsXM/EMJ0PZg1pU5b4AAAAASUVORK5CYII=;rounded=1;" vertex="1" parent="30KggWmX4pOPK8MYpUQ7-99">
          <mxGeometry y="5" width="20" height="20" as="geometry" />
        </mxCell>
        <mxCell id="30KggWmX4pOPK8MYpUQ7-101" value="&lt;b&gt;realgamingapp.com&lt;/b&gt;" style="text;html=1;strokeColor=none;fillColor=none;align=left;verticalAlign=middle;whiteSpace=wrap;rounded=1;" vertex="1" parent="30KggWmX4pOPK8MYpUQ7-99">
          <mxGeometry x="20" width="130" height="30" as="geometry" />
        </mxCell>
        <mxCell id="30KggWmX4pOPK8MYpUQ7-112" value="" style="group;rounded=1;" vertex="1" connectable="0" parent="30KggWmX4pOPK8MYpUQ7-117">
          <mxGeometry y="60" width="150" height="30" as="geometry" />
        </mxCell>
        <mxCell id="30KggWmX4pOPK8MYpUQ7-113" value="" style="shape=image;verticalLabelPosition=bottom;labelBackgroundColor=default;verticalAlign=top;aspect=fixed;imageAspect=0;image=data:image/png,iVBORw0KGgoAAAANSUhEUgAAABgAAAAYCAYAAADgdz34AAAACXBIWXMAAAsTAAALEwEAmpwYAAAAAXNSR0IArs4c6QAAAARnQU1BAACxjwv8YQUAAAHOSURBVHgB7VTLTetQED1zHRbJ05PcAeng6VVAUgF0AEgEnBWhAkwFJBtiMAuoAKggLoESTAeWEAREfIeZmyARILEDghVHsjT34zlz5nOBXxSAZh0E8W2DeGkXZBtyzQc4A5uE6akXtf4mKAnz0WY7fjgkVAYgXgNRxtYejMOxDd1vx/eH+KwCdS7Rdpi4Z3OkFY/+HW1VN4PjYQhYCcnoT/typ9tv1faKCKYUBPGw4ZzDHkRbtY5naNXy6HxyMyFjVqJWNVRyia2jaSwimFLQPnm4cGkpCWa+irZra6UVuBwTzvqtKhF7/8XFtdovn65Hsq+21OWcyKygAJXpJfk2tzdqWcqlcyh7c5559OhPFqkQ+ijAmy7izHhm2ZkjpKKmPufP+vsA3uNnazDuDmd1xzlHwhg1Xc6BpnyJqw9MOA4v72IRBYrg9L5LTLtyEFqr5xbRzp8wiO/OyNK1zMGytrI2g87HwgSvSdzzICLZ5j3pmHVMaqLOmbEh65Sf0Iza1XQWwYdPhQ6ZpkTfHlUgA7YvtfElh5e67yJn6SJGnZYwCPrDOhZRUAbqlDwMnKo5Sj5NUJbkSwRlSAy+CHXGudZLJ/sboUrmFfsXM/EMJ0PZg1pU5b4AAAAASUVORK5CYII=;rounded=1;" vertex="1" parent="30KggWmX4pOPK8MYpUQ7-112">
          <mxGeometry y="5" width="20" height="20" as="geometry" />
        </mxCell>
        <mxCell id="30KggWmX4pOPK8MYpUQ7-114" value="&lt;b&gt;realgamingapp.com&lt;/b&gt;" style="text;html=1;strokeColor=none;fillColor=none;align=left;verticalAlign=middle;whiteSpace=wrap;rounded=1;" vertex="1" parent="30KggWmX4pOPK8MYpUQ7-112">
          <mxGeometry x="20" width="130" height="30" as="geometry" />
        </mxCell>
        <mxCell id="30KggWmX4pOPK8MYpUQ7-119" style="edgeStyle=orthogonalEdgeStyle;rounded=1;orthogonalLoop=1;jettySize=auto;html=1;entryX=0.346;entryY=0;entryDx=0;entryDy=0;entryPerimeter=0;" edge="1" parent="30KggWmX4pOPK8MYpUQ7-157" source="30KggWmX4pOPK8MYpUQ7-68" target="30KggWmX4pOPK8MYpUQ7-101">
          <mxGeometry relative="1" as="geometry" />
        </mxCell>
        <mxCell id="30KggWmX4pOPK8MYpUQ7-98" style="edgeStyle=orthogonalEdgeStyle;rounded=1;orthogonalLoop=1;jettySize=auto;html=1;entryX=0.5;entryY=0;entryDx=0;entryDy=0;" edge="1" parent="30KggWmX4pOPK8MYpUQ7-157" source="30KggWmX4pOPK8MYpUQ7-59" target="30KggWmX4pOPK8MYpUQ7-114">
          <mxGeometry relative="1" as="geometry">
            <mxPoint x="85" y="10" as="targetPoint" />
          </mxGeometry>
        </mxCell>
        <mxCell id="30KggWmX4pOPK8MYpUQ7-160" style="edgeStyle=orthogonalEdgeStyle;rounded=1;orthogonalLoop=1;jettySize=auto;html=1;entryX=0.369;entryY=0.042;entryDx=0;entryDy=0;entryPerimeter=0;" edge="1" parent="30KggWmX4pOPK8MYpUQ7-118" source="30KggWmX4pOPK8MYpUQ7-42" target="30KggWmX4pOPK8MYpUQ7-159">
          <mxGeometry relative="1" as="geometry">
            <Array as="points">
              <mxPoint x="158" y="128" />
            </Array>
          </mxGeometry>
        </mxCell>
        <mxCell id="30KggWmX4pOPK8MYpUQ7-161" value="" style="group" vertex="1" connectable="0" parent="30KggWmX4pOPK8MYpUQ7-118">
          <mxGeometry x="90" y="150" width="150" height="30" as="geometry" />
        </mxCell>
        <mxCell id="30KggWmX4pOPK8MYpUQ7-158" value="" style="shape=image;verticalLabelPosition=bottom;labelBackgroundColor=default;verticalAlign=top;aspect=fixed;imageAspect=0;image=data:image/png,iVBORw0KGgoAAAANSUhEUgAAABgAAAAYCAYAAADgdz34AAAACXBIWXMAAAsTAAALEwEAmpwYAAAAAXNSR0IArs4c6QAAAARnQU1BAACxjwv8YQUAAAHOSURBVHgB7VTLTetQED1zHRbJ05PcAeng6VVAUgF0AEgEnBWhAkwFJBtiMAuoAKggLoESTAeWEAREfIeZmyARILEDghVHsjT34zlz5nOBXxSAZh0E8W2DeGkXZBtyzQc4A5uE6akXtf4mKAnz0WY7fjgkVAYgXgNRxtYejMOxDd1vx/eH+KwCdS7Rdpi4Z3OkFY/+HW1VN4PjYQhYCcnoT/typ9tv1faKCKYUBPGw4ZzDHkRbtY5naNXy6HxyMyFjVqJWNVRyia2jaSwimFLQPnm4cGkpCWa+irZra6UVuBwTzvqtKhF7/8XFtdovn65Hsq+21OWcyKygAJXpJfk2tzdqWcqlcyh7c5559OhPFqkQ+ijAmy7izHhm2ZkjpKKmPufP+vsA3uNnazDuDmd1xzlHwhg1Xc6BpnyJqw9MOA4v72IRBYrg9L5LTLtyEFqr5xbRzp8wiO/OyNK1zMGytrI2g87HwgSvSdzzICLZ5j3pmHVMaqLOmbEh65Sf0Iza1XQWwYdPhQ6ZpkTfHlUgA7YvtfElh5e67yJn6SJGnZYwCPrDOhZRUAbqlDwMnKo5Sj5NUJbkSwRlSAy+CHXGudZLJ/sboUrmFfsXM/EMJ0PZg1pU5b4AAAAASUVORK5CYII=;rounded=1;" vertex="1" parent="30KggWmX4pOPK8MYpUQ7-161">
          <mxGeometry y="5" width="20" height="20" as="geometry" />
        </mxCell>
        <mxCell id="30KggWmX4pOPK8MYpUQ7-159" value="&lt;b&gt;realgamingapp.com&lt;/b&gt;" style="text;html=1;strokeColor=none;fillColor=none;align=left;verticalAlign=middle;whiteSpace=wrap;rounded=1;" vertex="1" parent="30KggWmX4pOPK8MYpUQ7-161">
          <mxGeometry x="20" width="130" height="30" as="geometry" />
        </mxCell>
        <mxCell id="30KggWmX4pOPK8MYpUQ7-120" value="" style="group;movable=1;resizable=1;rotatable=1;deletable=1;editable=1;locked=0;connectable=1;rounded=1;" vertex="1" connectable="0" parent="1">
          <mxGeometry x="550" y="220" width="64" height="90" as="geometry" />
        </mxCell>
        <mxCell id="30KggWmX4pOPK8MYpUQ7-121" value="" style="shape=image;verticalLabelPosition=bottom;labelBackgroundColor=default;verticalAlign=top;aspect=fixed;imageAspect=0;image=data:image/png,iVBORw0KGgoAAAANSUhEUgAAAGgAAABoCAYAAAAdHLWhAAAACXBIWXMAAAsTAAALEwEAmpwYAAAAAXNSR0IArs4c6QAAAARnQU1BAACxjwv8YQUAACqoSURBVHgBhX1N0GZXcV73O4OQhGYkDSgCUkAV3gXBxnZVKkjeBLOIwIssIBFVcSobS8oGXKSi8corJG8C2UhikaqQKpTIqUqVscUCexWJFfYiIGcVqJKEQYDQzEggDUj6Ovfc08/TT5/3lX3h0/d+9733nD798/TTfX/Gf/jFC2fmZmHmHhbh46/tj/w8vor919hCD93+69uXMY7ev82/8pzcaRhknLsdMU5fNh0Tc4+Dg9/NA+r4OQ5/5wQl2DxXxhKhx87tYwTnTpkp2X742Hs4eM6OxUKEKephjoNzOVbk8RjH3VQvbieUIGuEXsdxh5irpGSqtfzgfjRQnrCNMrUauR+HjnOcw0AZahzXP1Zx9yl9+buMtc87Fz/9Kb1k/3yoc32K5DAAjIP5oI05vHPGcXykEaeY+Gz4cZN1jY9OG9k07FTrPo6JUXRV+FMNI+vbd5z3aH7Bg7bdc9Ah9xlOwMhUiu1RRneOVEi047zZOJ3I56pjfuIQObc1kaIMNcMq+HceWxOkXD6PKpvi9Iiy0zg0undMmc8gdKhBoYLIdcvfXKLPMQM7ZS1ptG6n8sQpUMk9xzqE04U4qYhDKJjf7d7pmB3HByDFEcUUPYzgeKTUFpyAKxjKVRxEaqjxnFDscMZ0u8g/5hiM56BnJhj5ahj+cXCg4vxungdpcGTifC7bWkjNSMa6jCA65c1dU5HpRYG00OY6OMxNsaPhOxRZURPENxNF7tHQsDJnN29rL3hOxUvU+Ap2TBRqyISg1EhhaNCA64IzO7kx9qjI8IpbrMvq3DnsmQSOaZ6Yy8b0IfCTUTS/WBHHGJ0FcXGEfnP/Qb8IyR39wCnAxOV0VZ44I2ISCjeFlflFhDrWPv5ZCdsdwiC4EQYZic5VOr0uo0XEgfYAO8DTNJNVSmh5G/vKJSXV1C7AVPOSsjQIk5djUh+VR0Gl4CylmwlQOG+3/oFKE9MjL3mpFG4wol+OjiUKVHmGdU9Nh1WENV/x5fPUaiZnEw6iJ1nnLp7GCIplqQgqMWSJmZEKEuc6DgVflUuBHiSzIf7N9coUQSGIkQmvpuksJDfi1LN0ZgDDNvWBK8nctTuGK6cMuGrgUAuxiiO5OYGNXovokggjE4+CyjJeSadwl95J6g70iMT0VLCorey45wL6PubJfCcIukczvbqggEyO1NxLvRLV69ZcXuSeKcFIeBnKSlwriGyPB2jXiwFZ4blzxlppRkWG+wpVXeF5OjRyEEgEZC9YDBIki+0Znfu9DF/SlWGhFRkbblTyFwqUqp2OpvrAqC62gfN6i3O3gtPa6csaMazPCONUUyfTIw4TvXItTj9jkZo0uQvbFp9ekWxqX9aBeK6cex5wBklIT1wVrv/DPq64HWOc2xhPlRrSUw3K4FknDM1zPD3NhEki9QixOBMFF/xn4o8yokWIrGVAr6BmBMGEJMIJNIcUx1UtrG2QhOGF5HjRjtuPcaGVFL6ircKYpHQeEwhgF2+numkWHFvfGdTRIg2GSdm5P1etaG5HzPEsJFIlDSu8zkgQm7BlYA2bYBTFRWsAieFM8pQV+Zw6OyD5BycRMxsSWwGmEgIVOAQUFBbbFrKQlUI3/m3KtmpHDUuniCbD1JqJsRPv0U0IFYcswBh2LobFOAmjJrAoSogGjNFlKcNwodOmIgjFdkUAnHUoYSfUNQoUVuQzbQ2nJYnwsiZRmQAb3eNpp5Doy0O9CFfhe/RzrKg8rCoO4zgO43F/DnNG72dMpC7nQEGFiX0MDudWrryswwhsRBRNG65jsT5KtVeUCqRiCWkgpwXLTSM7Baw8XIw3waEgLZVHBXqP9ZZTCGnW8xzRO/K8BQrNOxypJ9f3AGlED+Wr8JNoojLSwQoo5lrPymmVTNSY0IY4BwfJrpSTiOwHnVkrSsOpzxznrCHLrIMqRLuHVBvF6L0uYrXaxpAjZIF0uuBPMT6BArelzVRgXFkPhqs8lYcGlVBVR66l8gwji0iatJl+QNwBtrJPWEYDdsbwbBHdJKlEL2AjGKZlkD0ycn2YsozAPiHqICaBUChS/wwrpbDmSS+VwY2K8eJZNiMxFytrVsBtG/LLqfEh1a6Y7dxz7/6Q3/hP7rVzN94ahNSEq5vu+pS988P3tHOaIp0ymhV9iOAacresCfvPrBxNXIPIkJOq7++/C4PkeCvWWXqc35znuYxOUvvEAHgAWaRn9JCr5zqXJJ4mAeQMiQ5JeUMdc4laeGo2lDtxqe/9xtv8lnsesAv3PGh+4632i2ces6vf+I9c4zDOu//NE/vn1/76CXvlLx+2t64+v+OO1MhrUjf4rwmgVIstFN7mMaH5i4aV3pWLZWa3WpazztfDBxDHOLQJzIAppJ05aeUJekl6q0ZCcTkTWqw4mShxBhgLekyLShYEZXmM887fuMfu/MIzdvF3L+/GGds73neXK1Iecv/Ybv6t++y9l79nF/75QwbdsfChVbxBIXYry0S8NYNK2aBRoE5ANDaSB5kkfSQRVsjnHhQH9GmiAWFhMibfDefVoFKlAsao3iz4QALKoDKDN65ppN+6Kgmhcfr52z9k77n/m37HHzxl527/oLXNCzEpyrJd/ORlu/Pys7vBzL1V83sfjBGtEREaRl5qMcReCb4YIo9r7PQsFRSIPgJOdijolXPph7bCHB5FY2uNFzILT0AsqkdGFnyzHiFGI5rGGYcEUzEgvBfH7+di9JtutQu/+9AeBe/88N2U+NUNtt688rysoKBIt188/ai9deW5/fP5zbC3f+ax/ef8pQ+VUpL2o2TXcZyqbz5WQF6+KVIAI20dy4qpVV5DpcUomxFrh4Kj4MUtM4aNMRcJDkOaEq7oHiLHljZQtAwFAKdwa1I1QOrNv3mf3fn5CWfYfvWDp+3Fh++ya5uBSll5nqASttf/71/YT//zPXsewrbD3kMb7A2YvOlWlgfUfK6lyE6YwjFmRU5KETRnurmyXoNKFE1AEJhmihvNVHPIKOTg2r0daptCDmUlIw4MOhXoS22AqBDP8modTcVTUoua1AANU/Z3vP9j/p4Hvum3f/YxwtmIgpe++i/ipcfujbeuvNCMgFVaCP6L8c5euxpbxMWLD390Iw1f51fD8Hd+/tsT9qyfy+JZLR4VCa47rMeX05eXdpLXuYmZ1iwYwVw0pj1U18+5mPTtJFxVvU1YqjwE+rx6Vyk6SuxDFXD7L5CKZASMwBsv2m2/94j9oy1qAGdx/eru/T/98t1x/fvPOFe/brFASdsm7r+1QeKVP30gth/C3rmEvTu/8O0d9tpZ5pW5l7SJohMQzayc31mp1AudKl1l3DGlAdoxyt78nx4foTDLDJhD1QgTBnEN161QQaOoFCUozBA1luzVpp/ROCjz+/7oWbvl7gephet/+xf2ky/fM/JNvHX9GmDSzewIygpE1/0KQ3M9g3pv0TSiioe9430f3WHv9s887mWoHXp8L0ylsyB1QpTSG6EwdB7KpOXKBwFlECS3BqWREYQJnGrGQWBpE9ZY0ggul0pCIcub+zSczqNn2yrZzA0fvmeHs1s//Qhp8/D0lx6/11762n0bEXjOgLlcuPtJKJPuxlGINaTKr7fIjB9v+ey1v3mCxw+4e8/GFN/1W5+zVL7USZUyZEqrXG5hy3fpTYZ0e6gU3y5cNhmzPDqwMFLebkUIQrCvEnpqiIIK21GklKj3NuaMwMPGzga03HH/Uw3Orn7jIXvxS3fF9Y0MNKHP0jBe13hE46atGVGopHRr7SvsOrvyfLz85P3+880ZVrY3mOO5Sx9yaC+sG7oQJMfzoui6Sf/YZq3pLqWIHmiI1vHngdnIJ5M7OgHKp1tKJOy0tPfr6DaG9oUj+aEi24/dYMzH4qeXzm148Y+/9LGtK/Bo1+JZukHWLgWNsvmiiaMV5DEHcBhiEyHq+t8+tcPetc1B3kr6PvLTgL1Lm7HOXfqgKaR3ffhiOP7ubQkKme5uFlJbFbbl2eeTEqNs8ZZmq8Egl5Z3zPPKRQABSCQ3IUbyEUTR9sUNH757Z2bnpdD81feftlf/6pGNADztffEgJsE7DpUVhvoqAKBqK+rJczVFuNqty6kjT6br/urmIK9vxrq41V43pwON3zdsHYxRUw0HSr04fiP31uLREHXvAG9Umanv7FXptFQwoUTS7BoiXBO790WTzSQ1Zn6K48Q8KbeTBZ7bugCX/u0TPuAMxonr13Y4e+mr9+7GScUSC3hRnGMKWonDHG++dEaW/aD1UehQgTc/vPXyczvT+8nDdwWiacg9GOZ7t27EjXd9ymVMU7kA+mcG+CgjuCgXiJOeyFuNXZLoDncevLNGHCA4IZQTXjd8sF3hFb4M/+A1n60ndjH2WmPrnd30kU9xIcMTR5755dbkZFKyvKGC4WCM4LXtsxIPmsCk+Cu1hY7LKJOE3GA6Bxp/vnHleR8kQmn5MNRoxF76zOM7BALK25gpZ1QU8zoH/l/6jTYtomR8Me/NJu2dyR9WXPtnvGaHXDD5OUWKRZej1X/ps4+59s1GF+Dan1+2N/7uu/NU5ECTxihyIThrYk8luwBT7PKdkPnYgG5kQhENkjAGW1ZWyPDLrbj91fefWWDvvv1nY4K+QfTMCNXFOeFAUFckvKQnxYSiFhip10O/xpo5SxYKb8VJqoC6AhtF12Im1jv+4Js7O6suwFYgPvmA/ezxT9kbP/wum4TKMKh8ymP9/jlETha3Y985dK0r6YQOt2/bpYmuKGkoStbVcRQm8f0WQfHyFkmjzfTGj7/HU3aEeKgTHmOnJfOhC7xWrT8j6uDieH4McVB3peWStAonJ4bCyRzOKCoZwu5Nzd+opuboAvzkyx8fLI1MMc+gAgLNVUaKExa02w6Hv2Eb/47Pf3tvpEJ8HOeL677n95+YlyY0uFp7qVnIsSih0LyqMn6PNtPW1bCNmh/R8gF743OUb3tA99ZLhILypBKY8OBsQPsLX7xw5tRENJrHgEt/d8aoC9erG0lGuA86im2ws6tbW+XNKy8sOkvqaB1OC96qqtYzxneHm26zC5+87Lfc/UDpequdfrYVtb/+0fcoz6ix7rj/m3t3ANvofI/OwS+zF7fPordasZdTlaY2gTM8K6eME266OC4axoVPXKb1N7oeL33tXzcduuDbHK5FuwuLhPdMiGPoWXogYI6hAZOIRiFwGFmHpxdhG0Xfz766wdmWZI9TeWTAZio4yi2LcZJlblHjd3zhmWacQXlH7fTG332v1Ubx+iv20//08R2SVi9/9+//9/3aEi5nkE0ZECPJisI5YZV23FVy9vo1e+VbDze2txlNjFjRJ6ufSDLdXsgPNGpMyodsNZHjIctFQ/UoOEKl7oIYfoQqidEydo41T2qtfTpmQV9GJzB8yzPv3mBqRMR56WyPqLn2Zw/FoOusIayuZw25Xt9g9SdfubtdarjpI/fuMDyMde72D8gyl4hdPpMdHsOjD0d882W9NlWs1EiAJIf4gUi0r/sM/s8DZgQlgQqlzgmcGNSKLImgAX1mrl/6D34mvQ2aBthemnAJ9PpcRrzld2bHQSn6zGn37IyQlwSqC5I9EiKmxWvX4tVvHV9qGEl9GH2wMq57ocl0TwOcr5tU+NiijOdLhmvnexvG+xxhiCChtKFB5jpOUcCwNQIKu0UQibQQlzZrl4x7X298k4zmfDLB0UDF/QXDID/9ysd3A51teUcVacp1LKtn7DtMojEgaEDey//tvtBLDSNvvm8rPt/x/o8aWkk5GHNuwo+QBWsOqBDGT6muUKwpCSkfPSx/VTsxcxCg0AizlfjDisdRHaEsuQsqJrIeH4buKvMXR2zjbEzwEw/thS2YIDoOJAIshAVn3cl1YDROclY3vIxvXn/2KX/x4Y/Z2nMb16AuffbxvTlaAE9dOFJDy3UuHWvZkKwq+qwyeli7SdK8rivNAwu8Dq3NKvCDq6XqDgz41HtozPtx0Zhg6KxfMt8UFAVuAtgHGIXtHePy9ifrbp09ar788RhkgEDpdZGQ7iNdoTUh6oVFEwAZPbdhdIW9cYl9vwNoc5IwvQkliCxholBjbqmQgEatX03dIU+L0zR8QGaHE6TY7rj1N9olaii8ASimBz/PPEVlLQEUS9GBaCOcZrsBwTxuChmF7Q3vn7R4RM3P/+t9uwIHTZ+KhxVYYNCZhIFSJtRtPdqkRNg+jGtNV/70wVF8xlp8vneHvY+ZmfYgDephNISZ3jVCfSEIZz+tLv9H8yF0a/knrvDs8TFpdqTSqmi3AnEJRQthZMZFpm2XjedNWVc6b9Tc6BK73hSyU+ctoY+bPTRJa63Ev1u0hPVc4E0ZGkEl5TTYVnz6KKbXntvFjCQ4V/QoMckuLQdhjeOPs4wBfhWtaQq9OHyvljdeZJFjJ4sz5A0qgyGeBWpW9qqkaJKa6ms6dPQwx5cyDLdRUwzqPOoLzpt0G0NSJxmJJau3qAE8wTga+XCqbrzZcxu0HNF0uPnWdJKF5UUVs87EsRgvD2S0YfXClpm/EqdFj/uCDlkwWSlNPbMeIWdSE6yP7ALPbvgxSdD2BRSkhiJGi23fuvo8us2mkVPJvyBsrb8I1ch+1p0acqiD0aBCPOL6K+MuICzDVJms9tO+xVD7ZKVmqWoZ30FZqCx+wPgzoA6VZ5DIc6mClYSk/OzSvzYRxFffUQWbZQO3qDY80xbTJpy2NIYcWqRD6pNIwiE5IX+LErx1Bsx1H5w7rPKpy3FmClFg3zQKo6jUwiWdnZVseSjkk8MzsI3hiXUd3KyyfA+m/ttwE0mHMjXg37d14wEd3O1ovLkfwipmzxrlqIpnbiITysjlPXtAgzgqSaKUX/T8SKB5eDmUK2QST2I16kQjjLt4L485jnIz522Ih4CslVvQbsWCjewn4GPWWBrYWAPQoGPMc4negfVx1GO5s4EKYcW7wpWnKMaF1EBzZjJMr94aYDVMCEWDyuNLSojQQgnneZSpp1f8oWsLGATjSw7SFSk8x4HnoYB0Z+vfmD3Kczl4FG53paU06cFgTo0OhEmyteMtxAFazjRqGIujI1lBlOYX/a3TGyOr4JPyeBcMERqSRZiTgI8qrHMOtTQnUGLiGnrIV3MR+56DyBQajiAlZEEM8UR2J6cXhUu45qqF4+rqa5f7Eaq4BCNaL+w2aFtInFZl5ffeWYSLUUAoAKF6vSYbl7aqFWOkDlAlROuoyFwkQdbExL7W+di3fCQnWd5+0IHF4t4NbmkV3VhKWbG/atTVCrKVEhqJcFztzby3nFaXPAqqLAkGsR9e5v0WZCdGOY1ECioN1XSpMl6YtCKWrshqeLNydBeioWuQ4zyXpM6aBnAgczFeuSvKeD0I9NEKRBlw0QTFwc5oz6mOIE65PkHDC+qqsra32yJCMdo59jQYjoGCc72p8KKy3Csv2Ag6ceUTP3KVEgTrn7+1V9xbZaW+47Xws1f7S1G5RWGWNu1lSlrwTVUC7U3LW3cUh9GfulskEjjICc2KLlmcOCflXy7khclKzNq4lNkLZNl+yaP5+awzOUAVSUKLnNBPmglzbNwJVVYzOQhyehoEzui25Eq+V86ikMXT92N/Pog4T6GTyU1PCTY1W3IL9L9OCFhKMkHc9FaFi+PaaSodzSjoRgiCLaCuC06XSp3kzFHnetU7hJVKR1bQEtHyqSmhqPqNOYwnuFoUsBLMo+bMQcBjyG/mel2TznLQyEDsgzDk++FKIwLRIA1U4lH8iIxu5TG67AjWFUdnW7CjkGadecxRCzC2q3WTyCz+XoYW3ZGRAZ3Ec+PEQsrwWoOVJ4TZCZheLqX3FMSn3qEoJRTVC7U4zxeKlo4zzwYLi2ExelB3VKtaYE2sjJvmju2uHicl60sjllVvNOliVEh1lgQQr2Na/E6lRj05DgSYx9QFLrcOaathTVCEs5XMPK9DsPGenBX228KBsiQzPh7DN2ltpB+lanEjoyXEYdBeHWPSvuUEAZYSuc+s5rJjf002UNfmgx4opCBlgxFRjWCVPcfsYmS9Vmy48m1Ua8irLD/Sm8DsSWJzwtNo0ChYjQb8FbkO66BJkB/rCbtUnAsrmQJDHupj7kuMAD09FQkzlJ1e6hQsIH7D4lqoiYJloQZAZIx41SDBNSAnad4w6W/hhyNab+rqNu7+wcNcsb8N+Ng4hVQ9bxEfy2Mk4sVoOmuyCuDXwVx7UEkGMoOCpUCdzFcxFT9JglSaInpVw0HVwsS6tHW5LmfMBBxcUE2QCmHXo/KRQlt1rUEGpjYhtxxLpSIfxHa5Y2x4/GRcUIRO3JbLFitUFdS2vFE2snm7zpjorIrcNBTruTHEAVY0NtoiYyJ1iakT2uR41kTHQDUlUkpbiqjD6cFyekIbn+oLM94H7hItLLBNc0LCBV2ymqY0WjuXjikJZRr86p8/xBscx4YrrDf/9ud4OUPzk4kstdMzrlwVL1MZI8bLxZQV+gEpMuhAMhkOA9tCrop60s0IDX3blUuHlOSYQxBgwnrkmee5zuCZMFD3Auzju5Ee9yIzjs1tlTsoN4+IBnMYZtyHffXJ/WHjOHrHwmcfd9zeS8q+WCxDIL1Qo0TXOYUPghwMiapuvBJTKthcbFrR4wi+UrEQjJ5yIoRA3tIlo6OAG8vKpRIqL+t9rALGsmbLGy4wMimsNh2nHNHlWGeGDqDbAUNbFPm4/P7qXz3MY+erZZ7douqPjA7ua6unHGkaPmPFrN7OJctprSYr1DxMrHaJ86kNxPoKr8YCsAwDMrEKyDyeq2blHVIR2NvBd3q+V4hqTgKUgQVxqIB3RkVJ1mxFq+EyCS0h6wGpE740tmvfesRfXB42vphvPxk3QE65jtYS+plRA8gFacsw1EABNT1kcMf0OTFD+pq3PmhzEgsJsLClDprKY6U9DeVuUuGTui4sfVp9BjpJpYVpU5IML41ET/UqSbTOof+mA9TlEGvRN7YRIbd9+k92BldoGNvl+BfsypP3540l9dRdvlrGx4393UKloMpBoqaz4OUaHMNUkKeeN6oosiCNaAgtpnMoT8rPie1LfBvdhZ1ljAeBmBO232evXePp407Sc7d90MejKnwPTwSDILS83J+VTaly9ZSHRhCaS1hBbQe7zLprGObWT17mM0033nXv/iTgL595NEKS9Wvf+XqMe+nG/Xt4quHm9mwQMnX4us8k7wryeCNrVuic7+qZNAmL2oN19s5MVT/PBKVw5qPjG0Ywv6GnZy1iBGzHfG9efY63Oo3HRsbC33P/fIjXmbxr4DI2aEsxIGvOIp90TuuN2hs+fPcOVZfktTNjwzOpd15+1sf9cXsUMEmZX/vWwxP2hO2JBlznTglnLmoietVygGgpl/O1zEhozF6VUthGnz/6uCSid8Xr1AJhRwvayHm0Gz5usXrxSx+Nl59c7kkbT64B40MSk8CGOEwxPMJfdT0sDUmdbL/Ge+fwJGA92DxfO3PlyQ5j44VO+8NZW9EKwjG+e3N/tcyDDfbGb6HzbCFgH5mfVUMNEAhY5xp++B8uHjWEKvkjbxFGrGE5PWRG3lAobkAcTxLsEAUotGIuDFmrNpEbUWq//fbiJx/anwzHNhb9Ch++cspZLZslLzliPBmQHD8Mc/ETl9tTgMMwrz79mP3y6Uf3V86Mc7f5XZ9JhUF+8b8ftV98+zEr+ev3eCHHGz/6np1dv0aniIp2NhfXjoTuZ1YYf76wGchObMw3zXa4YumEU0w8hh2LoYG+dJe9efV5Gclbo7TnCvbZmu1H5IzxFHaGgsbNja//zdcz1os0tEWGeG4aa7xyZoynhhnbyDPD+HH9muoQatty4gfijgee8tVhxmtq3vjRd5u2ThlEHdPsuHPusvLV4Of+8OM3/LGyGysqmiQOcDYZmMG8sF5eAhhTDM8cP/uin3ksvUgysSOwq1XjveUSKuUbP37Wx9s/xn3aA1pGfho/432km1f7tt/H0+LwOvRRKddU2x4x4wVJI7edv1TGHtF45Wv3xWv/53+5vXG9HCYXijy3QbCP9bz18vN2wz/+GOW45Z/+ux3+3vzRd+dDZKl975YwsKz0JFPM7V31bpzx+9wf/rN3/rE6uYvy992uSU0SPUhAzjn+fufmoWWgR/c7NNGncUOHuiId2FaXF4wW81RyvH41rv/g27uhxrE3fPC390N3Q33kU3vrZUDKePEE/TjXMZL/pX/1+B6FapjxBq2X/su/tNf/+okNzl7p3CIdsC5NIEWYbw6znzseXL5hv6l+f6/dcJj9uF8//x0EXYpPm4mb0jhTJzCOTm+ocLb/7RAXpJ+VWIneME3lGhIJ2m0ee0Eg7qdfuTuf5YnKZ2kbGl8itkGhVT6xrDhB18/f/oH9LYnvWmjteIfBgKlf/eCZ3RhDjpHL2jE/eHo75hH79f97OhQadVP6X1AJJywI3SInNnLRYO/NfEPXcBZLmU+Nt17qsBMbwqRykKAgARhG40IKWTVDIQI2xe0wgm3kilHP7AJPb1RknlR/zWdgDSmKL5kJgp9K4DDUmmNgmF9thtG2HUnEkrSRv+IECVBHGk/+DQb4jvfXk+TDScaPIHdubG57M8OaO/l1tjRe+OIFdE9NC9CW+Jr1nS0gYAMiYX9scX95RfeqUSeMZ0QjM4OytnTNOBa8jJmcjymmDF10fDUUDPPqXz4y39JoZt0Q3cmsoLsplZdCzeoi3/b3Lff8e7+wMU19/fOY78r/eCDenO/n5jk5bvn4Qh5EgkDugr63CLoQkvBLdGVsUVVu0IwFWdUymYu5aUvgty40me8o+M7XKUz3Upk3y7GVidmRCuuYwfQGxA7o2yPmW4/sv7n4If9ZtItnNaIfs0Dtk41nXM+mQwwafdvv/UmLmreSWW6O2CMRaOT9ji5fGF7raSppGEeMf4m47hqtrgBZllX+wUqP/A5FpFe0jT9HDngbQ8XoEp9qy2B85Cg/NZ+tkFtKPtx4m529frU5QBnEJW461e2G4iGMgPF45krRUTsNmn62ESKFKyjcrMO0d4L3tvQaxyKCihFUZTsPovd2QkBGJnkEszIUUxkXd8++73REoU2iWvsH4Kd7XRWiHKdFxmIMhgrWJ5FcJT4RZOa6y3wrMLaNdscWNT6fNj8d1UpONX8dEQ9lT7qWccbIQYnz5a2K/aZeHUEbtf1SDuJ80egQ6NxWx2yLbI86jm0k9Sv/8wF78+XnxByioUK8DAKXZ5tdYNFOMKLV0LZ4aGvV20oAxhtNbvmdB4/zzJPj9TbPu8paNdTcubI26GElI0c1UNtn8109zCpLzgmh2tHEN8BaJxYJI+pF01xBOBs0+VRSH5G0JfQ9sipS8r8CT3NPdOWTAQoMcLcaJw0teYj5VMYcbx2+VZ40h2F2ir45VAXhMU0+BZuS+3suPwFrq7yVg5hHGAVhvhABz08QKhqO0naNqUXhKftj22kjoi5mUtdtML5X0lBWeSZq4FNMzFtj1KW9QxvKGklC0gmxjTyzvq5zEICrf/bQ/kAzIUogyxcSsEaFMQ2UPNUnPOFA3u+f64VqywFmLlzajiwteWF8m/8gewvrwKRpSzW0sK9bP/3w3r7RjRE1oA911xJJU+DuHadgIoCN1vEdJ00C8BDbVPtXRQBiv8NncQ5XnmKdNq9QZs2ZbDnmeH9ZK+ugsqcfk4J1k+NwXmUscx3rqI7RheTiYKiNHcXtn3nUT9VQ4yXkgL6mBJuKl+BdIt9s8adGaUek3Lpd79H3AI2e2qvjxbGbcUabqbHLKNSOghpO0JKCQIfCquMEiZRueC9FjyXMTsJxkvQySKx3ddJQOWFB48JgNCeZqxrb0jQ6b/7Nz7WrmmOrSw1PVJSIQXrr5BRdKBl2uLxp/uNQt9zTCcBwhvEPdsx/FyLEm0H1e+451Q7ijCejSMjAAnHqzsZMMCJo0GyeauXdU7A+TFQuaTC4KH1CnYuwUifZUoRaOZvO93aXGgY1HxGlxjE1glbwOQdQYdRIpwyzdxxGYfv9pwM+dSr5q4cqlB6hgilalGGj/S6ITC+2lSjsJIGtnkYUsGAru+ZnNyHRav8miKmIrUjrC9c5TK1MxY5u9cgP67WYa3JNiPmO5ZtW7lOdpww+rt5eefLBYSCyvqL4hRpH3YHxV/tHccsZTXMsdvmJSBHjMlqW6Nx1sOegZA/dM/w4PDvcGQxrFXXSeYZyrLEqYrcaMGzhNUqp5+23o9C9sNFfvqPU5ksDx1uwRi11smaLes1M7wDMtyS+ur+gaVGdmbI78GJrzM243COlTyVUXiRYGbKAOOxCFE7R7eM6qCTEedZqooXOdoGauEYhFyiS+wt6clJohRM4M3IcLn1wV/a7jmqoJ8aNhfbmz59jsT3epDjeA9eZGQjAZGanWNQpAyj8N89HgcoIsBPK79sRS8tDWqdBDHX6knczuQmoVb2B5BFrbegt3HmesSVgel2pGdLMFuWIYqzaT9XB7u2XkZuGAUa0jTyj26Dt175xeX8R4NoDpPKo4BnZKQXheQ+S5qjHXFX8yf6hTeF0LW6bgTQSoBAdf1+KMUKxr/xGjQGD4COM2CARm+YJO4K40H2VUHnuO7aLZuMa1KlLDdhmZ/th+/UPnumjr9RWHK85iCy4wZq2BSSn6NwgAh1hrJ2vhKFT8Tl2GShdoBJ7aXJhWUzgKW6mHStGcgR9fgJITJZr6n8zrlxpeTB3rZgxjhmXANZCUy85AMlwyaBqKMH/tWk6toOLalblYX7F576qo94bSUDpr0GdllGMoC9egIesirK2H3qyXpS2FotlDnxbgtGpJ0S2xh7NOtxFvw2shzAPHyePyxvjbtDXn31qu5KrNxOWEXpzcspxLFM0j1bg7QYKgE2vA/VA5qyen7py5oJO1kfrPQmYt8HJCmX+NpCkucrUu6wRA3e9xpPHNGIhc1t5xDEELswnjDDqIiyVHzVgyz9zakGEU3JopJitRouj4AYk2XIp25h640ydudsM24HnJHyhuev7bVfRC9EcD7fzdj4QMn+QZwiiTz/yvJ9rHBCMooDS9sMrMKzGQrHe51MnaOUIJMG56Z5T/RF6c8L85353uRx5x3EwTxMVL7qMNG9qrXsLQEL+B9TYNbILWJ2RPkYZyOt34mMqD08klDCzRQQ9puB5KzeiZVkCUIlWDIsedlNmd6aL/lWaSuj9PNTz9tpiEhI9aTOcOzHEc4nsbI9pzsr/eX865I2UNuYfdVGy8gzkCZ0Q3x2Z080KTYCX6t2tsD2o6yO/h8uFuxqWn1zxIiebjhDEsDJqeTfhQyAFEWVlu3lcZmdG61KZNx+I/pvRw9zobdwIDVE4hVvzUygqHYHs033pEri8JyhdKv0PVuuGCtNOg1MvOI9q2f+eDxET3mQgSfwSkh15jYsm/MCD9amGNGTZqsCygANJ1hlCDsX0gHT+BBWUTpg+Sb2n1we+G8qQcU3yVwDOJQKpsLEWxXBNKCbEIMQAFog9tqJKYV6GJhuOumZkwJjtAqd0EBxBD4PoPmrECpKUMOxRPhOGyE47lHpFCb1fZun1ARrs9Y8ewS0AqpmrGiV1fr/WcTUHmFyId2ltVqhA7zQXhWvDU47nFM5QJXOjQyj4drYHrE9lulmRn0PJaaps0uhFAHlKjqUJ17+HusszMIrHWpkDZsIW9M2vMTfNLYxr7nSB4XC4mBl/7xpVOMJIRbODyTOJRM01ZS/3UyUZ/ZTLI3AjOhKuEt7YIiKyOoEgiHbgqtGsfoCMWAQ9HKyKDF6jelZ1uvASEREKrIevOcgTsX1GuoWskpVhzumlG685vMShoYiULoYPCSw3E6WZRJ0fyo+wLjGXQfCVmcIkwfOy/s3aB/kpNU0YDoNhEC1wkckkE1/2sQ5a/NEUSKPiISAASrVNjvFobiiMrBY0h4kQzJ4uANYYFUKSrwywNtkSgD3ULiY5cUrp4tdlZgekafhHKIUvKAUQwLodMZqY3JBLoBMW2YEoSvPodwo1eTAC9oA/3IuphOYYAxy41B66BEL1HMQVCKr6s2SHu9xOSPcqIRAkXlCcC04/T7bkVThJ9mENBXtCCvIwb2o8YVhPnwomEviC5CbkBzpsG9UqTOAfTZZKyIkijjJBbEL9j0MOEIpmNozLfMHfVgswNZSErAgu/4VOMX7nubLlrAKNSJZzXGekKUQFFk+UcUaut8iq/BBtnnKG+f8GHZYuGrWSyNo0UmeFEkCgHM1tqYWUIFS0OcrJRRcD4iLKYizqgOs9pGEsUPiubAO1Ru8J3YL6PpWIiJEIVMm4EjUkeJ8bA9HqvxXZGFcYMuMACgxYiiedAitjR8GNk0Yw1qKKXjPWPsZjaWNX81ARcnzTUTnDvp03umF4FEpjHm+aE/jKiCAyw4vhwQWcpvDGcXI/NOCiVECyF2KlCkPCv/KkG0EnMF3pG3qitMUPA/Y1Z9O3XlnGVUU5sAJfk3mOmwSrBRihjDnbKUfO2eer/47fB9Y4wuQwEEL5eEvmwhJ3DQBEPbyXZ+E1ZkXl56FRDMmoBgsV2KRDEfisGc9bnkmiCewIpf0obt3J6AKZjdOFsWQIBIJCHxw/YdN8QaKZM6HGyeq0/Mn6inkqROxS+v8HnvUiFb/sxc0AAAAASUVORK5CYII=;container=0;rounded=1;" vertex="1" parent="30KggWmX4pOPK8MYpUQ7-120">
          <mxGeometry width="64" height="64" as="geometry" />
        </mxCell>
        <mxCell id="30KggWmX4pOPK8MYpUQ7-122" value="Gearman&amp;nbsp;" style="text;html=1;strokeColor=none;fillColor=none;align=center;verticalAlign=middle;whiteSpace=wrap;rounded=1;container=0;" vertex="1" parent="30KggWmX4pOPK8MYpUQ7-120">
          <mxGeometry x="8" y="70" width="48" height="20" as="geometry" />
        </mxCell>
        <mxCell id="30KggWmX4pOPK8MYpUQ7-123" value="" style="group;movable=1;resizable=1;rotatable=1;deletable=1;editable=1;locked=0;connectable=1;rounded=1;" vertex="1" connectable="0" parent="1">
          <mxGeometry x="550" y="364" width="64" height="90" as="geometry" />
        </mxCell>
        <mxCell id="30KggWmX4pOPK8MYpUQ7-124" value="" style="shape=image;verticalLabelPosition=bottom;labelBackgroundColor=default;verticalAlign=top;aspect=fixed;imageAspect=0;image=data:image/png,iVBORw0KGgoAAAANSUhEUgAAAGgAAABoCAYAAAAdHLWhAAAACXBIWXMAAAsTAAALEwEAmpwYAAAAAXNSR0IArs4c6QAAAARnQU1BAACxjwv8YQUAACqoSURBVHgBhX1N0GZXcV73O4OQhGYkDSgCUkAV3gXBxnZVKkjeBLOIwIssIBFVcSobS8oGXKSi8corJG8C2UhikaqQKpTIqUqVscUCexWJFfYiIGcVqJKEQYDQzEggDUj6Ovfc08/TT5/3lX3h0/d+9733nD798/TTfX/Gf/jFC2fmZmHmHhbh46/tj/w8vor919hCD93+69uXMY7ev82/8pzcaRhknLsdMU5fNh0Tc4+Dg9/NA+r4OQ5/5wQl2DxXxhKhx87tYwTnTpkp2X742Hs4eM6OxUKEKephjoNzOVbk8RjH3VQvbieUIGuEXsdxh5irpGSqtfzgfjRQnrCNMrUauR+HjnOcw0AZahzXP1Zx9yl9+buMtc87Fz/9Kb1k/3yoc32K5DAAjIP5oI05vHPGcXykEaeY+Gz4cZN1jY9OG9k07FTrPo6JUXRV+FMNI+vbd5z3aH7Bg7bdc9Ah9xlOwMhUiu1RRneOVEi047zZOJ3I56pjfuIQObc1kaIMNcMq+HceWxOkXD6PKpvi9Iiy0zg0undMmc8gdKhBoYLIdcvfXKLPMQM7ZS1ptG6n8sQpUMk9xzqE04U4qYhDKJjf7d7pmB3HByDFEcUUPYzgeKTUFpyAKxjKVRxEaqjxnFDscMZ0u8g/5hiM56BnJhj5ahj+cXCg4vxungdpcGTifC7bWkjNSMa6jCA65c1dU5HpRYG00OY6OMxNsaPhOxRZURPENxNF7tHQsDJnN29rL3hOxUvU+Ap2TBRqyISg1EhhaNCA64IzO7kx9qjI8IpbrMvq3DnsmQSOaZ6Yy8b0IfCTUTS/WBHHGJ0FcXGEfnP/Qb8IyR39wCnAxOV0VZ44I2ISCjeFlflFhDrWPv5ZCdsdwiC4EQYZic5VOr0uo0XEgfYAO8DTNJNVSmh5G/vKJSXV1C7AVPOSsjQIk5djUh+VR0Gl4CylmwlQOG+3/oFKE9MjL3mpFG4wol+OjiUKVHmGdU9Nh1WENV/x5fPUaiZnEw6iJ1nnLp7GCIplqQgqMWSJmZEKEuc6DgVflUuBHiSzIf7N9coUQSGIkQmvpuksJDfi1LN0ZgDDNvWBK8nctTuGK6cMuGrgUAuxiiO5OYGNXovokggjE4+CyjJeSadwl95J6g70iMT0VLCorey45wL6PubJfCcIukczvbqggEyO1NxLvRLV69ZcXuSeKcFIeBnKSlwriGyPB2jXiwFZ4blzxlppRkWG+wpVXeF5OjRyEEgEZC9YDBIki+0Znfu9DF/SlWGhFRkbblTyFwqUqp2OpvrAqC62gfN6i3O3gtPa6csaMazPCONUUyfTIw4TvXItTj9jkZo0uQvbFp9ekWxqX9aBeK6cex5wBklIT1wVrv/DPq64HWOc2xhPlRrSUw3K4FknDM1zPD3NhEki9QixOBMFF/xn4o8yokWIrGVAr6BmBMGEJMIJNIcUx1UtrG2QhOGF5HjRjtuPcaGVFL6ircKYpHQeEwhgF2+numkWHFvfGdTRIg2GSdm5P1etaG5HzPEsJFIlDSu8zkgQm7BlYA2bYBTFRWsAieFM8pQV+Zw6OyD5BycRMxsSWwGmEgIVOAQUFBbbFrKQlUI3/m3KtmpHDUuniCbD1JqJsRPv0U0IFYcswBh2LobFOAmjJrAoSogGjNFlKcNwodOmIgjFdkUAnHUoYSfUNQoUVuQzbQ2nJYnwsiZRmQAb3eNpp5Doy0O9CFfhe/RzrKg8rCoO4zgO43F/DnNG72dMpC7nQEGFiX0MDudWrryswwhsRBRNG65jsT5KtVeUCqRiCWkgpwXLTSM7Baw8XIw3waEgLZVHBXqP9ZZTCGnW8xzRO/K8BQrNOxypJ9f3AGlED+Wr8JNoojLSwQoo5lrPymmVTNSY0IY4BwfJrpSTiOwHnVkrSsOpzxznrCHLrIMqRLuHVBvF6L0uYrXaxpAjZIF0uuBPMT6BArelzVRgXFkPhqs8lYcGlVBVR66l8gwji0iatJl+QNwBtrJPWEYDdsbwbBHdJKlEL2AjGKZlkD0ycn2YsozAPiHqICaBUChS/wwrpbDmSS+VwY2K8eJZNiMxFytrVsBtG/LLqfEh1a6Y7dxz7/6Q3/hP7rVzN94ahNSEq5vu+pS988P3tHOaIp0ymhV9iOAacresCfvPrBxNXIPIkJOq7++/C4PkeCvWWXqc35znuYxOUvvEAHgAWaRn9JCr5zqXJJ4mAeQMiQ5JeUMdc4laeGo2lDtxqe/9xtv8lnsesAv3PGh+4632i2ces6vf+I9c4zDOu//NE/vn1/76CXvlLx+2t64+v+OO1MhrUjf4rwmgVIstFN7mMaH5i4aV3pWLZWa3WpazztfDBxDHOLQJzIAppJ05aeUJekl6q0ZCcTkTWqw4mShxBhgLekyLShYEZXmM887fuMfu/MIzdvF3L+/GGds73neXK1Iecv/Ybv6t++y9l79nF/75QwbdsfChVbxBIXYry0S8NYNK2aBRoE5ANDaSB5kkfSQRVsjnHhQH9GmiAWFhMibfDefVoFKlAsao3iz4QALKoDKDN65ppN+6Kgmhcfr52z9k77n/m37HHzxl527/oLXNCzEpyrJd/ORlu/Pys7vBzL1V83sfjBGtEREaRl5qMcReCb4YIo9r7PQsFRSIPgJOdijolXPph7bCHB5FY2uNFzILT0AsqkdGFnyzHiFGI5rGGYcEUzEgvBfH7+di9JtutQu/+9AeBe/88N2U+NUNtt688rysoKBIt188/ai9deW5/fP5zbC3f+ax/ef8pQ+VUpL2o2TXcZyqbz5WQF6+KVIAI20dy4qpVV5DpcUomxFrh4Kj4MUtM4aNMRcJDkOaEq7oHiLHljZQtAwFAKdwa1I1QOrNv3mf3fn5CWfYfvWDp+3Fh++ya5uBSll5nqASttf/71/YT//zPXsewrbD3kMb7A2YvOlWlgfUfK6lyE6YwjFmRU5KETRnurmyXoNKFE1AEJhmihvNVHPIKOTg2r0daptCDmUlIw4MOhXoS22AqBDP8modTcVTUoua1AANU/Z3vP9j/p4Hvum3f/YxwtmIgpe++i/ipcfujbeuvNCMgFVaCP6L8c5euxpbxMWLD390Iw1f51fD8Hd+/tsT9qyfy+JZLR4VCa47rMeX05eXdpLXuYmZ1iwYwVw0pj1U18+5mPTtJFxVvU1YqjwE+rx6Vyk6SuxDFXD7L5CKZASMwBsv2m2/94j9oy1qAGdx/eru/T/98t1x/fvPOFe/brFASdsm7r+1QeKVP30gth/C3rmEvTu/8O0d9tpZ5pW5l7SJohMQzayc31mp1AudKl1l3DGlAdoxyt78nx4foTDLDJhD1QgTBnEN161QQaOoFCUozBA1luzVpp/ROCjz+/7oWbvl7gephet/+xf2ky/fM/JNvHX9GmDSzewIygpE1/0KQ3M9g3pv0TSiioe9430f3WHv9s887mWoHXp8L0ylsyB1QpTSG6EwdB7KpOXKBwFlECS3BqWREYQJnGrGQWBpE9ZY0ggul0pCIcub+zSczqNn2yrZzA0fvmeHs1s//Qhp8/D0lx6/11762n0bEXjOgLlcuPtJKJPuxlGINaTKr7fIjB9v+ey1v3mCxw+4e8/GFN/1W5+zVL7USZUyZEqrXG5hy3fpTYZ0e6gU3y5cNhmzPDqwMFLebkUIQrCvEnpqiIIK21GklKj3NuaMwMPGzga03HH/Uw3Orn7jIXvxS3fF9Y0MNKHP0jBe13hE46atGVGopHRr7SvsOrvyfLz85P3+880ZVrY3mOO5Sx9yaC+sG7oQJMfzoui6Sf/YZq3pLqWIHmiI1vHngdnIJ5M7OgHKp1tKJOy0tPfr6DaG9oUj+aEi24/dYMzH4qeXzm148Y+/9LGtK/Bo1+JZukHWLgWNsvmiiaMV5DEHcBhiEyHq+t8+tcPetc1B3kr6PvLTgL1Lm7HOXfqgKaR3ffhiOP7ubQkKme5uFlJbFbbl2eeTEqNs8ZZmq8Egl5Z3zPPKRQABSCQ3IUbyEUTR9sUNH757Z2bnpdD81feftlf/6pGNADztffEgJsE7DpUVhvoqAKBqK+rJczVFuNqty6kjT6br/urmIK9vxrq41V43pwON3zdsHYxRUw0HSr04fiP31uLREHXvAG9Umanv7FXptFQwoUTS7BoiXBO790WTzSQ1Zn6K48Q8KbeTBZ7bugCX/u0TPuAMxonr13Y4e+mr9+7GScUSC3hRnGMKWonDHG++dEaW/aD1UehQgTc/vPXyczvT+8nDdwWiacg9GOZ7t27EjXd9ymVMU7kA+mcG+CgjuCgXiJOeyFuNXZLoDncevLNGHCA4IZQTXjd8sF3hFb4M/+A1n60ndjH2WmPrnd30kU9xIcMTR5755dbkZFKyvKGC4WCM4LXtsxIPmsCk+Cu1hY7LKJOE3GA6Bxp/vnHleR8kQmn5MNRoxF76zOM7BALK25gpZ1QU8zoH/l/6jTYtomR8Me/NJu2dyR9WXPtnvGaHXDD5OUWKRZej1X/ps4+59s1GF+Dan1+2N/7uu/NU5ECTxihyIThrYk8luwBT7PKdkPnYgG5kQhENkjAGW1ZWyPDLrbj91fefWWDvvv1nY4K+QfTMCNXFOeFAUFckvKQnxYSiFhip10O/xpo5SxYKb8VJqoC6AhtF12Im1jv+4Js7O6suwFYgPvmA/ezxT9kbP/wum4TKMKh8ymP9/jlETha3Y985dK0r6YQOt2/bpYmuKGkoStbVcRQm8f0WQfHyFkmjzfTGj7/HU3aEeKgTHmOnJfOhC7xWrT8j6uDieH4McVB3peWStAonJ4bCyRzOKCoZwu5Nzd+opuboAvzkyx8fLI1MMc+gAgLNVUaKExa02w6Hv2Eb/47Pf3tvpEJ8HOeL677n95+YlyY0uFp7qVnIsSih0LyqMn6PNtPW1bCNmh/R8gF743OUb3tA99ZLhILypBKY8OBsQPsLX7xw5tRENJrHgEt/d8aoC9erG0lGuA86im2ws6tbW+XNKy8sOkvqaB1OC96qqtYzxneHm26zC5+87Lfc/UDpequdfrYVtb/+0fcoz6ix7rj/m3t3ANvofI/OwS+zF7fPordasZdTlaY2gTM8K6eME266OC4axoVPXKb1N7oeL33tXzcduuDbHK5FuwuLhPdMiGPoWXogYI6hAZOIRiFwGFmHpxdhG0Xfz766wdmWZI9TeWTAZio4yi2LcZJlblHjd3zhmWacQXlH7fTG332v1Ubx+iv20//08R2SVi9/9+//9/3aEi5nkE0ZECPJisI5YZV23FVy9vo1e+VbDze2txlNjFjRJ6ufSDLdXsgPNGpMyodsNZHjIctFQ/UoOEKl7oIYfoQqidEydo41T2qtfTpmQV9GJzB8yzPv3mBqRMR56WyPqLn2Zw/FoOusIayuZw25Xt9g9SdfubtdarjpI/fuMDyMde72D8gyl4hdPpMdHsOjD0d882W9NlWs1EiAJIf4gUi0r/sM/s8DZgQlgQqlzgmcGNSKLImgAX1mrl/6D34mvQ2aBthemnAJ9PpcRrzld2bHQSn6zGn37IyQlwSqC5I9EiKmxWvX4tVvHV9qGEl9GH2wMq57ocl0TwOcr5tU+NiijOdLhmvnexvG+xxhiCChtKFB5jpOUcCwNQIKu0UQibQQlzZrl4x7X298k4zmfDLB0UDF/QXDID/9ysd3A51teUcVacp1LKtn7DtMojEgaEDey//tvtBLDSNvvm8rPt/x/o8aWkk5GHNuwo+QBWsOqBDGT6muUKwpCSkfPSx/VTsxcxCg0AizlfjDisdRHaEsuQsqJrIeH4buKvMXR2zjbEzwEw/thS2YIDoOJAIshAVn3cl1YDROclY3vIxvXn/2KX/x4Y/Z2nMb16AuffbxvTlaAE9dOFJDy3UuHWvZkKwq+qwyeli7SdK8rivNAwu8Dq3NKvCDq6XqDgz41HtozPtx0Zhg6KxfMt8UFAVuAtgHGIXtHePy9ifrbp09ar788RhkgEDpdZGQ7iNdoTUh6oVFEwAZPbdhdIW9cYl9vwNoc5IwvQkliCxholBjbqmQgEatX03dIU+L0zR8QGaHE6TY7rj1N9olaii8ASimBz/PPEVlLQEUS9GBaCOcZrsBwTxuChmF7Q3vn7R4RM3P/+t9uwIHTZ+KhxVYYNCZhIFSJtRtPdqkRNg+jGtNV/70wVF8xlp8vneHvY+ZmfYgDephNISZ3jVCfSEIZz+tLv9H8yF0a/knrvDs8TFpdqTSqmi3AnEJRQthZMZFpm2XjedNWVc6b9Tc6BK73hSyU+ctoY+bPTRJa63Ev1u0hPVc4E0ZGkEl5TTYVnz6KKbXntvFjCQ4V/QoMckuLQdhjeOPs4wBfhWtaQq9OHyvljdeZJFjJ4sz5A0qgyGeBWpW9qqkaJKa6ms6dPQwx5cyDLdRUwzqPOoLzpt0G0NSJxmJJau3qAE8wTga+XCqbrzZcxu0HNF0uPnWdJKF5UUVs87EsRgvD2S0YfXClpm/EqdFj/uCDlkwWSlNPbMeIWdSE6yP7ALPbvgxSdD2BRSkhiJGi23fuvo8us2mkVPJvyBsrb8I1ch+1p0acqiD0aBCPOL6K+MuICzDVJms9tO+xVD7ZKVmqWoZ30FZqCx+wPgzoA6VZ5DIc6mClYSk/OzSvzYRxFffUQWbZQO3qDY80xbTJpy2NIYcWqRD6pNIwiE5IX+LErx1Bsx1H5w7rPKpy3FmClFg3zQKo6jUwiWdnZVseSjkk8MzsI3hiXUd3KyyfA+m/ttwE0mHMjXg37d14wEd3O1ovLkfwipmzxrlqIpnbiITysjlPXtAgzgqSaKUX/T8SKB5eDmUK2QST2I16kQjjLt4L485jnIz522Ih4CslVvQbsWCjewn4GPWWBrYWAPQoGPMc4negfVx1GO5s4EKYcW7wpWnKMaF1EBzZjJMr94aYDVMCEWDyuNLSojQQgnneZSpp1f8oWsLGATjSw7SFSk8x4HnoYB0Z+vfmD3Kczl4FG53paU06cFgTo0OhEmyteMtxAFazjRqGIujI1lBlOYX/a3TGyOr4JPyeBcMERqSRZiTgI8qrHMOtTQnUGLiGnrIV3MR+56DyBQajiAlZEEM8UR2J6cXhUu45qqF4+rqa5f7Eaq4BCNaL+w2aFtInFZl5ffeWYSLUUAoAKF6vSYbl7aqFWOkDlAlROuoyFwkQdbExL7W+di3fCQnWd5+0IHF4t4NbmkV3VhKWbG/atTVCrKVEhqJcFztzby3nFaXPAqqLAkGsR9e5v0WZCdGOY1ECioN1XSpMl6YtCKWrshqeLNydBeioWuQ4zyXpM6aBnAgczFeuSvKeD0I9NEKRBlw0QTFwc5oz6mOIE65PkHDC+qqsra32yJCMdo59jQYjoGCc72p8KKy3Csv2Ag6ceUTP3KVEgTrn7+1V9xbZaW+47Xws1f7S1G5RWGWNu1lSlrwTVUC7U3LW3cUh9GfulskEjjICc2KLlmcOCflXy7khclKzNq4lNkLZNl+yaP5+awzOUAVSUKLnNBPmglzbNwJVVYzOQhyehoEzui25Eq+V86ikMXT92N/Pog4T6GTyU1PCTY1W3IL9L9OCFhKMkHc9FaFi+PaaSodzSjoRgiCLaCuC06XSp3kzFHnetU7hJVKR1bQEtHyqSmhqPqNOYwnuFoUsBLMo+bMQcBjyG/mel2TznLQyEDsgzDk++FKIwLRIA1U4lH8iIxu5TG67AjWFUdnW7CjkGadecxRCzC2q3WTyCz+XoYW3ZGRAZ3Ec+PEQsrwWoOVJ4TZCZheLqX3FMSn3qEoJRTVC7U4zxeKlo4zzwYLi2ExelB3VKtaYE2sjJvmju2uHicl60sjllVvNOliVEh1lgQQr2Na/E6lRj05DgSYx9QFLrcOaathTVCEs5XMPK9DsPGenBX228KBsiQzPh7DN2ltpB+lanEjoyXEYdBeHWPSvuUEAZYSuc+s5rJjf002UNfmgx4opCBlgxFRjWCVPcfsYmS9Vmy48m1Ua8irLD/Sm8DsSWJzwtNo0ChYjQb8FbkO66BJkB/rCbtUnAsrmQJDHupj7kuMAD09FQkzlJ1e6hQsIH7D4lqoiYJloQZAZIx41SDBNSAnad4w6W/hhyNab+rqNu7+wcNcsb8N+Ng4hVQ9bxEfy2Mk4sVoOmuyCuDXwVx7UEkGMoOCpUCdzFcxFT9JglSaInpVw0HVwsS6tHW5LmfMBBxcUE2QCmHXo/KRQlt1rUEGpjYhtxxLpSIfxHa5Y2x4/GRcUIRO3JbLFitUFdS2vFE2snm7zpjorIrcNBTruTHEAVY0NtoiYyJ1iakT2uR41kTHQDUlUkpbiqjD6cFyekIbn+oLM94H7hItLLBNc0LCBV2ymqY0WjuXjikJZRr86p8/xBscx4YrrDf/9ud4OUPzk4kstdMzrlwVL1MZI8bLxZQV+gEpMuhAMhkOA9tCrop60s0IDX3blUuHlOSYQxBgwnrkmee5zuCZMFD3Auzju5Ee9yIzjs1tlTsoN4+IBnMYZtyHffXJ/WHjOHrHwmcfd9zeS8q+WCxDIL1Qo0TXOYUPghwMiapuvBJTKthcbFrR4wi+UrEQjJ5yIoRA3tIlo6OAG8vKpRIqL+t9rALGsmbLGy4wMimsNh2nHNHlWGeGDqDbAUNbFPm4/P7qXz3MY+erZZ7douqPjA7ua6unHGkaPmPFrN7OJctprSYr1DxMrHaJ86kNxPoKr8YCsAwDMrEKyDyeq2blHVIR2NvBd3q+V4hqTgKUgQVxqIB3RkVJ1mxFq+EyCS0h6wGpE740tmvfesRfXB42vphvPxk3QE65jtYS+plRA8gFacsw1EABNT1kcMf0OTFD+pq3PmhzEgsJsLClDprKY6U9DeVuUuGTui4sfVp9BjpJpYVpU5IML41ET/UqSbTOof+mA9TlEGvRN7YRIbd9+k92BldoGNvl+BfsypP3540l9dRdvlrGx4393UKloMpBoqaz4OUaHMNUkKeeN6oosiCNaAgtpnMoT8rPie1LfBvdhZ1ljAeBmBO232evXePp407Sc7d90MejKnwPTwSDILS83J+VTaly9ZSHRhCaS1hBbQe7zLprGObWT17mM0033nXv/iTgL595NEKS9Wvf+XqMe+nG/Xt4quHm9mwQMnX4us8k7wryeCNrVuic7+qZNAmL2oN19s5MVT/PBKVw5qPjG0Ywv6GnZy1iBGzHfG9efY63Oo3HRsbC33P/fIjXmbxr4DI2aEsxIGvOIp90TuuN2hs+fPcOVZfktTNjwzOpd15+1sf9cXsUMEmZX/vWwxP2hO2JBlznTglnLmoietVygGgpl/O1zEhozF6VUthGnz/6uCSid8Xr1AJhRwvayHm0Gz5usXrxSx+Nl59c7kkbT64B40MSk8CGOEwxPMJfdT0sDUmdbL/Ge+fwJGA92DxfO3PlyQ5j44VO+8NZW9EKwjG+e3N/tcyDDfbGb6HzbCFgH5mfVUMNEAhY5xp++B8uHjWEKvkjbxFGrGE5PWRG3lAobkAcTxLsEAUotGIuDFmrNpEbUWq//fbiJx/anwzHNhb9Ch++cspZLZslLzliPBmQHD8Mc/ETl9tTgMMwrz79mP3y6Uf3V86Mc7f5XZ9JhUF+8b8ftV98+zEr+ev3eCHHGz/6np1dv0aniIp2NhfXjoTuZ1YYf76wGchObMw3zXa4YumEU0w8hh2LoYG+dJe9efV5Gclbo7TnCvbZmu1H5IzxFHaGgsbNja//zdcz1os0tEWGeG4aa7xyZoynhhnbyDPD+HH9muoQatty4gfijgee8tVhxmtq3vjRd5u2ThlEHdPsuHPusvLV4Of+8OM3/LGyGysqmiQOcDYZmMG8sF5eAhhTDM8cP/uin3ksvUgysSOwq1XjveUSKuUbP37Wx9s/xn3aA1pGfho/432km1f7tt/H0+LwOvRRKddU2x4x4wVJI7edv1TGHtF45Wv3xWv/53+5vXG9HCYXijy3QbCP9bz18vN2wz/+GOW45Z/+ux3+3vzRd+dDZKl975YwsKz0JFPM7V31bpzx+9wf/rN3/rE6uYvy992uSU0SPUhAzjn+fufmoWWgR/c7NNGncUOHuiId2FaXF4wW81RyvH41rv/g27uhxrE3fPC390N3Q33kU3vrZUDKePEE/TjXMZL/pX/1+B6FapjxBq2X/su/tNf/+okNzl7p3CIdsC5NIEWYbw6znzseXL5hv6l+f6/dcJj9uF8//x0EXYpPm4mb0jhTJzCOTm+ocLb/7RAXpJ+VWIneME3lGhIJ2m0ee0Eg7qdfuTuf5YnKZ2kbGl8itkGhVT6xrDhB18/f/oH9LYnvWmjteIfBgKlf/eCZ3RhDjpHL2jE/eHo75hH79f97OhQadVP6X1AJJywI3SInNnLRYO/NfEPXcBZLmU+Nt17qsBMbwqRykKAgARhG40IKWTVDIQI2xe0wgm3kilHP7AJPb1RknlR/zWdgDSmKL5kJgp9K4DDUmmNgmF9thtG2HUnEkrSRv+IECVBHGk/+DQb4jvfXk+TDScaPIHdubG57M8OaO/l1tjRe+OIFdE9NC9CW+Jr1nS0gYAMiYX9scX95RfeqUSeMZ0QjM4OytnTNOBa8jJmcjymmDF10fDUUDPPqXz4y39JoZt0Q3cmsoLsplZdCzeoi3/b3Lff8e7+wMU19/fOY78r/eCDenO/n5jk5bvn4Qh5EgkDugr63CLoQkvBLdGVsUVVu0IwFWdUymYu5aUvgty40me8o+M7XKUz3Upk3y7GVidmRCuuYwfQGxA7o2yPmW4/sv7n4If9ZtItnNaIfs0Dtk41nXM+mQwwafdvv/UmLmreSWW6O2CMRaOT9ji5fGF7raSppGEeMf4m47hqtrgBZllX+wUqP/A5FpFe0jT9HDngbQ8XoEp9qy2B85Cg/NZ+tkFtKPtx4m529frU5QBnEJW461e2G4iGMgPF45krRUTsNmn62ESKFKyjcrMO0d4L3tvQaxyKCihFUZTsPovd2QkBGJnkEszIUUxkXd8++73REoU2iWvsH4Kd7XRWiHKdFxmIMhgrWJ5FcJT4RZOa6y3wrMLaNdscWNT6fNj8d1UpONX8dEQ9lT7qWccbIQYnz5a2K/aZeHUEbtf1SDuJ80egQ6NxWx2yLbI86jm0k9Sv/8wF78+XnxByioUK8DAKXZ5tdYNFOMKLV0LZ4aGvV20oAxhtNbvmdB4/zzJPj9TbPu8paNdTcubI26GElI0c1UNtn8109zCpLzgmh2tHEN8BaJxYJI+pF01xBOBs0+VRSH5G0JfQ9sipS8r8CT3NPdOWTAQoMcLcaJw0teYj5VMYcbx2+VZ40h2F2ir45VAXhMU0+BZuS+3suPwFrq7yVg5hHGAVhvhABz08QKhqO0naNqUXhKftj22kjoi5mUtdtML5X0lBWeSZq4FNMzFtj1KW9QxvKGklC0gmxjTyzvq5zEICrf/bQ/kAzIUogyxcSsEaFMQ2UPNUnPOFA3u+f64VqywFmLlzajiwteWF8m/8gewvrwKRpSzW0sK9bP/3w3r7RjRE1oA911xJJU+DuHadgIoCN1vEdJ00C8BDbVPtXRQBiv8NncQ5XnmKdNq9QZs2ZbDnmeH9ZK+ugsqcfk4J1k+NwXmUscx3rqI7RheTiYKiNHcXtn3nUT9VQ4yXkgL6mBJuKl+BdIt9s8adGaUek3Lpd79H3AI2e2qvjxbGbcUabqbHLKNSOghpO0JKCQIfCquMEiZRueC9FjyXMTsJxkvQySKx3ddJQOWFB48JgNCeZqxrb0jQ6b/7Nz7WrmmOrSw1PVJSIQXrr5BRdKBl2uLxp/uNQt9zTCcBwhvEPdsx/FyLEm0H1e+451Q7ijCejSMjAAnHqzsZMMCJo0GyeauXdU7A+TFQuaTC4KH1CnYuwUifZUoRaOZvO93aXGgY1HxGlxjE1glbwOQdQYdRIpwyzdxxGYfv9pwM+dSr5q4cqlB6hgilalGGj/S6ITC+2lSjsJIGtnkYUsGAru+ZnNyHRav8miKmIrUjrC9c5TK1MxY5u9cgP67WYa3JNiPmO5ZtW7lOdpww+rt5eefLBYSCyvqL4hRpH3YHxV/tHccsZTXMsdvmJSBHjMlqW6Nx1sOegZA/dM/w4PDvcGQxrFXXSeYZyrLEqYrcaMGzhNUqp5+23o9C9sNFfvqPU5ksDx1uwRi11smaLes1M7wDMtyS+ur+gaVGdmbI78GJrzM243COlTyVUXiRYGbKAOOxCFE7R7eM6qCTEedZqooXOdoGauEYhFyiS+wt6clJohRM4M3IcLn1wV/a7jmqoJ8aNhfbmz59jsT3epDjeA9eZGQjAZGanWNQpAyj8N89HgcoIsBPK79sRS8tDWqdBDHX6knczuQmoVb2B5BFrbegt3HmesSVgel2pGdLMFuWIYqzaT9XB7u2XkZuGAUa0jTyj26Dt175xeX8R4NoDpPKo4BnZKQXheQ+S5qjHXFX8yf6hTeF0LW6bgTQSoBAdf1+KMUKxr/xGjQGD4COM2CARm+YJO4K40H2VUHnuO7aLZuMa1KlLDdhmZ/th+/UPnumjr9RWHK85iCy4wZq2BSSn6NwgAh1hrJ2vhKFT8Tl2GShdoBJ7aXJhWUzgKW6mHStGcgR9fgJITJZr6n8zrlxpeTB3rZgxjhmXANZCUy85AMlwyaBqKMH/tWk6toOLalblYX7F576qo94bSUDpr0GdllGMoC9egIesirK2H3qyXpS2FotlDnxbgtGpJ0S2xh7NOtxFvw2shzAPHyePyxvjbtDXn31qu5KrNxOWEXpzcspxLFM0j1bg7QYKgE2vA/VA5qyen7py5oJO1kfrPQmYt8HJCmX+NpCkucrUu6wRA3e9xpPHNGIhc1t5xDEELswnjDDqIiyVHzVgyz9zakGEU3JopJitRouj4AYk2XIp25h640ydudsM24HnJHyhuev7bVfRC9EcD7fzdj4QMn+QZwiiTz/yvJ9rHBCMooDS9sMrMKzGQrHe51MnaOUIJMG56Z5T/RF6c8L85353uRx5x3EwTxMVL7qMNG9qrXsLQEL+B9TYNbILWJ2RPkYZyOt34mMqD08klDCzRQQ9puB5KzeiZVkCUIlWDIsedlNmd6aL/lWaSuj9PNTz9tpiEhI9aTOcOzHEc4nsbI9pzsr/eX865I2UNuYfdVGy8gzkCZ0Q3x2Z080KTYCX6t2tsD2o6yO/h8uFuxqWn1zxIiebjhDEsDJqeTfhQyAFEWVlu3lcZmdG61KZNx+I/pvRw9zobdwIDVE4hVvzUygqHYHs033pEri8JyhdKv0PVuuGCtNOg1MvOI9q2f+eDxET3mQgSfwSkh15jYsm/MCD9amGNGTZqsCygANJ1hlCDsX0gHT+BBWUTpg+Sb2n1we+G8qQcU3yVwDOJQKpsLEWxXBNKCbEIMQAFog9tqJKYV6GJhuOumZkwJjtAqd0EBxBD4PoPmrECpKUMOxRPhOGyE47lHpFCb1fZun1ARrs9Y8ewS0AqpmrGiV1fr/WcTUHmFyId2ltVqhA7zQXhWvDU47nFM5QJXOjQyj4drYHrE9lulmRn0PJaaps0uhFAHlKjqUJ17+HusszMIrHWpkDZsIW9M2vMTfNLYxr7nSB4XC4mBl/7xpVOMJIRbODyTOJRM01ZS/3UyUZ/ZTLI3AjOhKuEt7YIiKyOoEgiHbgqtGsfoCMWAQ9HKyKDF6jelZ1uvASEREKrIevOcgTsX1GuoWskpVhzumlG685vMShoYiULoYPCSw3E6WZRJ0fyo+wLjGXQfCVmcIkwfOy/s3aB/kpNU0YDoNhEC1wkckkE1/2sQ5a/NEUSKPiISAASrVNjvFobiiMrBY0h4kQzJ4uANYYFUKSrwywNtkSgD3ULiY5cUrp4tdlZgekafhHKIUvKAUQwLodMZqY3JBLoBMW2YEoSvPodwo1eTAC9oA/3IuphOYYAxy41B66BEL1HMQVCKr6s2SHu9xOSPcqIRAkXlCcC04/T7bkVThJ9mENBXtCCvIwb2o8YVhPnwomEviC5CbkBzpsG9UqTOAfTZZKyIkijjJBbEL9j0MOEIpmNozLfMHfVgswNZSErAgu/4VOMX7nubLlrAKNSJZzXGekKUQFFk+UcUaut8iq/BBtnnKG+f8GHZYuGrWSyNo0UmeFEkCgHM1tqYWUIFS0OcrJRRcD4iLKYizqgOs9pGEsUPiubAO1Ru8J3YL6PpWIiJEIVMm4EjUkeJ8bA9HqvxXZGFcYMuMACgxYiiedAitjR8GNk0Yw1qKKXjPWPsZjaWNX81ARcnzTUTnDvp03umF4FEpjHm+aE/jKiCAyw4vhwQWcpvDGcXI/NOCiVECyF2KlCkPCv/KkG0EnMF3pG3qitMUPA/Y1Z9O3XlnGVUU5sAJfk3mOmwSrBRihjDnbKUfO2eer/47fB9Y4wuQwEEL5eEvmwhJ3DQBEPbyXZ+E1ZkXl56FRDMmoBgsV2KRDEfisGc9bnkmiCewIpf0obt3J6AKZjdOFsWQIBIJCHxw/YdN8QaKZM6HGyeq0/Mn6inkqROxS+v8HnvUiFb/sxc0AAAAASUVORK5CYII=;container=0;rounded=1;" vertex="1" parent="30KggWmX4pOPK8MYpUQ7-123">
          <mxGeometry width="64" height="64" as="geometry" />
        </mxCell>
        <mxCell id="30KggWmX4pOPK8MYpUQ7-125" value="Beanstakld" style="text;html=1;strokeColor=none;fillColor=none;align=center;verticalAlign=middle;whiteSpace=wrap;rounded=1;container=0;" vertex="1" parent="30KggWmX4pOPK8MYpUQ7-123">
          <mxGeometry x="8" y="70" width="48" height="20" as="geometry" />
        </mxCell>
        <mxCell id="30KggWmX4pOPK8MYpUQ7-129" value="" style="group;rounded=1;" vertex="1" connectable="0" parent="1">
          <mxGeometry x="120" y="280" width="72" height="86.22000000000003" as="geometry" />
        </mxCell>
        <mxCell id="30KggWmX4pOPK8MYpUQ7-127" value="" style="shape=image;verticalLabelPosition=bottom;labelBackgroundColor=default;verticalAlign=top;aspect=fixed;imageAspect=0;image=data:image/png,iVBORw0KGgoAAAANSUhEUgAAAGgAAABoCAYAAAAdHLWhAAAACXBIWXMAAAsTAAALEwEAmpwYAAAAAXNSR0IArs4c6QAAAARnQU1BAACxjwv8YQUAACqoSURBVHgBhX1N0GZXcV73O4OQhGYkDSgCUkAV3gXBxnZVKkjeBLOIwIssIBFVcSobS8oGXKSi8corJG8C2UhikaqQKpTIqUqVscUCexWJFfYiIGcVqJKEQYDQzEggDUj6Ovfc08/TT5/3lX3h0/d+9733nD798/TTfX/Gf/jFC2fmZmHmHhbh46/tj/w8vor919hCD93+69uXMY7ev82/8pzcaRhknLsdMU5fNh0Tc4+Dg9/NA+r4OQ5/5wQl2DxXxhKhx87tYwTnTpkp2X742Hs4eM6OxUKEKephjoNzOVbk8RjH3VQvbieUIGuEXsdxh5irpGSqtfzgfjRQnrCNMrUauR+HjnOcw0AZahzXP1Zx9yl9+buMtc87Fz/9Kb1k/3yoc32K5DAAjIP5oI05vHPGcXykEaeY+Gz4cZN1jY9OG9k07FTrPo6JUXRV+FMNI+vbd5z3aH7Bg7bdc9Ah9xlOwMhUiu1RRneOVEi047zZOJ3I56pjfuIQObc1kaIMNcMq+HceWxOkXD6PKpvi9Iiy0zg0undMmc8gdKhBoYLIdcvfXKLPMQM7ZS1ptG6n8sQpUMk9xzqE04U4qYhDKJjf7d7pmB3HByDFEcUUPYzgeKTUFpyAKxjKVRxEaqjxnFDscMZ0u8g/5hiM56BnJhj5ahj+cXCg4vxungdpcGTifC7bWkjNSMa6jCA65c1dU5HpRYG00OY6OMxNsaPhOxRZURPENxNF7tHQsDJnN29rL3hOxUvU+Ap2TBRqyISg1EhhaNCA64IzO7kx9qjI8IpbrMvq3DnsmQSOaZ6Yy8b0IfCTUTS/WBHHGJ0FcXGEfnP/Qb8IyR39wCnAxOV0VZ44I2ISCjeFlflFhDrWPv5ZCdsdwiC4EQYZic5VOr0uo0XEgfYAO8DTNJNVSmh5G/vKJSXV1C7AVPOSsjQIk5djUh+VR0Gl4CylmwlQOG+3/oFKE9MjL3mpFG4wol+OjiUKVHmGdU9Nh1WENV/x5fPUaiZnEw6iJ1nnLp7GCIplqQgqMWSJmZEKEuc6DgVflUuBHiSzIf7N9coUQSGIkQmvpuksJDfi1LN0ZgDDNvWBK8nctTuGK6cMuGrgUAuxiiO5OYGNXovokggjE4+CyjJeSadwl95J6g70iMT0VLCorey45wL6PubJfCcIukczvbqggEyO1NxLvRLV69ZcXuSeKcFIeBnKSlwriGyPB2jXiwFZ4blzxlppRkWG+wpVXeF5OjRyEEgEZC9YDBIki+0Znfu9DF/SlWGhFRkbblTyFwqUqp2OpvrAqC62gfN6i3O3gtPa6csaMazPCONUUyfTIw4TvXItTj9jkZo0uQvbFp9ekWxqX9aBeK6cex5wBklIT1wVrv/DPq64HWOc2xhPlRrSUw3K4FknDM1zPD3NhEki9QixOBMFF/xn4o8yokWIrGVAr6BmBMGEJMIJNIcUx1UtrG2QhOGF5HjRjtuPcaGVFL6ircKYpHQeEwhgF2+numkWHFvfGdTRIg2GSdm5P1etaG5HzPEsJFIlDSu8zkgQm7BlYA2bYBTFRWsAieFM8pQV+Zw6OyD5BycRMxsSWwGmEgIVOAQUFBbbFrKQlUI3/m3KtmpHDUuniCbD1JqJsRPv0U0IFYcswBh2LobFOAmjJrAoSogGjNFlKcNwodOmIgjFdkUAnHUoYSfUNQoUVuQzbQ2nJYnwsiZRmQAb3eNpp5Doy0O9CFfhe/RzrKg8rCoO4zgO43F/DnNG72dMpC7nQEGFiX0MDudWrryswwhsRBRNG65jsT5KtVeUCqRiCWkgpwXLTSM7Baw8XIw3waEgLZVHBXqP9ZZTCGnW8xzRO/K8BQrNOxypJ9f3AGlED+Wr8JNoojLSwQoo5lrPymmVTNSY0IY4BwfJrpSTiOwHnVkrSsOpzxznrCHLrIMqRLuHVBvF6L0uYrXaxpAjZIF0uuBPMT6BArelzVRgXFkPhqs8lYcGlVBVR66l8gwji0iatJl+QNwBtrJPWEYDdsbwbBHdJKlEL2AjGKZlkD0ycn2YsozAPiHqICaBUChS/wwrpbDmSS+VwY2K8eJZNiMxFytrVsBtG/LLqfEh1a6Y7dxz7/6Q3/hP7rVzN94ahNSEq5vu+pS988P3tHOaIp0ymhV9iOAacresCfvPrBxNXIPIkJOq7++/C4PkeCvWWXqc35znuYxOUvvEAHgAWaRn9JCr5zqXJJ4mAeQMiQ5JeUMdc4laeGo2lDtxqe/9xtv8lnsesAv3PGh+4632i2ces6vf+I9c4zDOu//NE/vn1/76CXvlLx+2t64+v+OO1MhrUjf4rwmgVIstFN7mMaH5i4aV3pWLZWa3WpazztfDBxDHOLQJzIAppJ05aeUJekl6q0ZCcTkTWqw4mShxBhgLekyLShYEZXmM887fuMfu/MIzdvF3L+/GGds73neXK1Iecv/Ybv6t++y9l79nF/75QwbdsfChVbxBIXYry0S8NYNK2aBRoE5ANDaSB5kkfSQRVsjnHhQH9GmiAWFhMibfDefVoFKlAsao3iz4QALKoDKDN65ppN+6Kgmhcfr52z9k77n/m37HHzxl527/oLXNCzEpyrJd/ORlu/Pys7vBzL1V83sfjBGtEREaRl5qMcReCb4YIo9r7PQsFRSIPgJOdijolXPph7bCHB5FY2uNFzILT0AsqkdGFnyzHiFGI5rGGYcEUzEgvBfH7+di9JtutQu/+9AeBe/88N2U+NUNtt688rysoKBIt188/ai9deW5/fP5zbC3f+ax/ef8pQ+VUpL2o2TXcZyqbz5WQF6+KVIAI20dy4qpVV5DpcUomxFrh4Kj4MUtM4aNMRcJDkOaEq7oHiLHljZQtAwFAKdwa1I1QOrNv3mf3fn5CWfYfvWDp+3Fh++ya5uBSll5nqASttf/71/YT//zPXsewrbD3kMb7A2YvOlWlgfUfK6lyE6YwjFmRU5KETRnurmyXoNKFE1AEJhmihvNVHPIKOTg2r0daptCDmUlIw4MOhXoS22AqBDP8modTcVTUoua1AANU/Z3vP9j/p4Hvum3f/YxwtmIgpe++i/ipcfujbeuvNCMgFVaCP6L8c5euxpbxMWLD390Iw1f51fD8Hd+/tsT9qyfy+JZLR4VCa47rMeX05eXdpLXuYmZ1iwYwVw0pj1U18+5mPTtJFxVvU1YqjwE+rx6Vyk6SuxDFXD7L5CKZASMwBsv2m2/94j9oy1qAGdx/eru/T/98t1x/fvPOFe/brFASdsm7r+1QeKVP30gth/C3rmEvTu/8O0d9tpZ5pW5l7SJohMQzayc31mp1AudKl1l3DGlAdoxyt78nx4foTDLDJhD1QgTBnEN161QQaOoFCUozBA1luzVpp/ROCjz+/7oWbvl7gephet/+xf2ky/fM/JNvHX9GmDSzewIygpE1/0KQ3M9g3pv0TSiioe9430f3WHv9s887mWoHXp8L0ylsyB1QpTSG6EwdB7KpOXKBwFlECS3BqWREYQJnGrGQWBpE9ZY0ggul0pCIcub+zSczqNn2yrZzA0fvmeHs1s//Qhp8/D0lx6/11762n0bEXjOgLlcuPtJKJPuxlGINaTKr7fIjB9v+ey1v3mCxw+4e8/GFN/1W5+zVL7USZUyZEqrXG5hy3fpTYZ0e6gU3y5cNhmzPDqwMFLebkUIQrCvEnpqiIIK21GklKj3NuaMwMPGzga03HH/Uw3Orn7jIXvxS3fF9Y0MNKHP0jBe13hE46atGVGopHRr7SvsOrvyfLz85P3+880ZVrY3mOO5Sx9yaC+sG7oQJMfzoui6Sf/YZq3pLqWIHmiI1vHngdnIJ5M7OgHKp1tKJOy0tPfr6DaG9oUj+aEi24/dYMzH4qeXzm148Y+/9LGtK/Bo1+JZukHWLgWNsvmiiaMV5DEHcBhiEyHq+t8+tcPetc1B3kr6PvLTgL1Lm7HOXfqgKaR3ffhiOP7ubQkKme5uFlJbFbbl2eeTEqNs8ZZmq8Egl5Z3zPPKRQABSCQ3IUbyEUTR9sUNH757Z2bnpdD81feftlf/6pGNADztffEgJsE7DpUVhvoqAKBqK+rJczVFuNqty6kjT6br/urmIK9vxrq41V43pwON3zdsHYxRUw0HSr04fiP31uLREHXvAG9Umanv7FXptFQwoUTS7BoiXBO790WTzSQ1Zn6K48Q8KbeTBZ7bugCX/u0TPuAMxonr13Y4e+mr9+7GScUSC3hRnGMKWonDHG++dEaW/aD1UehQgTc/vPXyczvT+8nDdwWiacg9GOZ7t27EjXd9ymVMU7kA+mcG+CgjuCgXiJOeyFuNXZLoDncevLNGHCA4IZQTXjd8sF3hFb4M/+A1n60ndjH2WmPrnd30kU9xIcMTR5755dbkZFKyvKGC4WCM4LXtsxIPmsCk+Cu1hY7LKJOE3GA6Bxp/vnHleR8kQmn5MNRoxF76zOM7BALK25gpZ1QU8zoH/l/6jTYtomR8Me/NJu2dyR9WXPtnvGaHXDD5OUWKRZej1X/ps4+59s1GF+Dan1+2N/7uu/NU5ECTxihyIThrYk8luwBT7PKdkPnYgG5kQhENkjAGW1ZWyPDLrbj91fefWWDvvv1nY4K+QfTMCNXFOeFAUFckvKQnxYSiFhip10O/xpo5SxYKb8VJqoC6AhtF12Im1jv+4Js7O6suwFYgPvmA/ezxT9kbP/wum4TKMKh8ymP9/jlETha3Y985dK0r6YQOt2/bpYmuKGkoStbVcRQm8f0WQfHyFkmjzfTGj7/HU3aEeKgTHmOnJfOhC7xWrT8j6uDieH4McVB3peWStAonJ4bCyRzOKCoZwu5Nzd+opuboAvzkyx8fLI1MMc+gAgLNVUaKExa02w6Hv2Eb/47Pf3tvpEJ8HOeL677n95+YlyY0uFp7qVnIsSih0LyqMn6PNtPW1bCNmh/R8gF743OUb3tA99ZLhILypBKY8OBsQPsLX7xw5tRENJrHgEt/d8aoC9erG0lGuA86im2ws6tbW+XNKy8sOkvqaB1OC96qqtYzxneHm26zC5+87Lfc/UDpequdfrYVtb/+0fcoz6ix7rj/m3t3ANvofI/OwS+zF7fPordasZdTlaY2gTM8K6eME266OC4axoVPXKb1N7oeL33tXzcduuDbHK5FuwuLhPdMiGPoWXogYI6hAZOIRiFwGFmHpxdhG0Xfz766wdmWZI9TeWTAZio4yi2LcZJlblHjd3zhmWacQXlH7fTG332v1Ubx+iv20//08R2SVi9/9+//9/3aEi5nkE0ZECPJisI5YZV23FVy9vo1e+VbDze2txlNjFjRJ6ufSDLdXsgPNGpMyodsNZHjIctFQ/UoOEKl7oIYfoQqidEydo41T2qtfTpmQV9GJzB8yzPv3mBqRMR56WyPqLn2Zw/FoOusIayuZw25Xt9g9SdfubtdarjpI/fuMDyMde72D8gyl4hdPpMdHsOjD0d882W9NlWs1EiAJIf4gUi0r/sM/s8DZgQlgQqlzgmcGNSKLImgAX1mrl/6D34mvQ2aBthemnAJ9PpcRrzld2bHQSn6zGn37IyQlwSqC5I9EiKmxWvX4tVvHV9qGEl9GH2wMq57ocl0TwOcr5tU+NiijOdLhmvnexvG+xxhiCChtKFB5jpOUcCwNQIKu0UQibQQlzZrl4x7X298k4zmfDLB0UDF/QXDID/9ysd3A51teUcVacp1LKtn7DtMojEgaEDey//tvtBLDSNvvm8rPt/x/o8aWkk5GHNuwo+QBWsOqBDGT6muUKwpCSkfPSx/VTsxcxCg0AizlfjDisdRHaEsuQsqJrIeH4buKvMXR2zjbEzwEw/thS2YIDoOJAIshAVn3cl1YDROclY3vIxvXn/2KX/x4Y/Z2nMb16AuffbxvTlaAE9dOFJDy3UuHWvZkKwq+qwyeli7SdK8rivNAwu8Dq3NKvCDq6XqDgz41HtozPtx0Zhg6KxfMt8UFAVuAtgHGIXtHePy9ifrbp09ar788RhkgEDpdZGQ7iNdoTUh6oVFEwAZPbdhdIW9cYl9vwNoc5IwvQkliCxholBjbqmQgEatX03dIU+L0zR8QGaHE6TY7rj1N9olaii8ASimBz/PPEVlLQEUS9GBaCOcZrsBwTxuChmF7Q3vn7R4RM3P/+t9uwIHTZ+KhxVYYNCZhIFSJtRtPdqkRNg+jGtNV/70wVF8xlp8vneHvY+ZmfYgDephNISZ3jVCfSEIZz+tLv9H8yF0a/knrvDs8TFpdqTSqmi3AnEJRQthZMZFpm2XjedNWVc6b9Tc6BK73hSyU+ctoY+bPTRJa63Ev1u0hPVc4E0ZGkEl5TTYVnz6KKbXntvFjCQ4V/QoMckuLQdhjeOPs4wBfhWtaQq9OHyvljdeZJFjJ4sz5A0qgyGeBWpW9qqkaJKa6ms6dPQwx5cyDLdRUwzqPOoLzpt0G0NSJxmJJau3qAE8wTga+XCqbrzZcxu0HNF0uPnWdJKF5UUVs87EsRgvD2S0YfXClpm/EqdFj/uCDlkwWSlNPbMeIWdSE6yP7ALPbvgxSdD2BRSkhiJGi23fuvo8us2mkVPJvyBsrb8I1ch+1p0acqiD0aBCPOL6K+MuICzDVJms9tO+xVD7ZKVmqWoZ30FZqCx+wPgzoA6VZ5DIc6mClYSk/OzSvzYRxFffUQWbZQO3qDY80xbTJpy2NIYcWqRD6pNIwiE5IX+LErx1Bsx1H5w7rPKpy3FmClFg3zQKo6jUwiWdnZVseSjkk8MzsI3hiXUd3KyyfA+m/ttwE0mHMjXg37d14wEd3O1ovLkfwipmzxrlqIpnbiITysjlPXtAgzgqSaKUX/T8SKB5eDmUK2QST2I16kQjjLt4L485jnIz522Ih4CslVvQbsWCjewn4GPWWBrYWAPQoGPMc4negfVx1GO5s4EKYcW7wpWnKMaF1EBzZjJMr94aYDVMCEWDyuNLSojQQgnneZSpp1f8oWsLGATjSw7SFSk8x4HnoYB0Z+vfmD3Kczl4FG53paU06cFgTo0OhEmyteMtxAFazjRqGIujI1lBlOYX/a3TGyOr4JPyeBcMERqSRZiTgI8qrHMOtTQnUGLiGnrIV3MR+56DyBQajiAlZEEM8UR2J6cXhUu45qqF4+rqa5f7Eaq4BCNaL+w2aFtInFZl5ffeWYSLUUAoAKF6vSYbl7aqFWOkDlAlROuoyFwkQdbExL7W+di3fCQnWd5+0IHF4t4NbmkV3VhKWbG/atTVCrKVEhqJcFztzby3nFaXPAqqLAkGsR9e5v0WZCdGOY1ECioN1XSpMl6YtCKWrshqeLNydBeioWuQ4zyXpM6aBnAgczFeuSvKeD0I9NEKRBlw0QTFwc5oz6mOIE65PkHDC+qqsra32yJCMdo59jQYjoGCc72p8KKy3Csv2Ag6ceUTP3KVEgTrn7+1V9xbZaW+47Xws1f7S1G5RWGWNu1lSlrwTVUC7U3LW3cUh9GfulskEjjICc2KLlmcOCflXy7khclKzNq4lNkLZNl+yaP5+awzOUAVSUKLnNBPmglzbNwJVVYzOQhyehoEzui25Eq+V86ikMXT92N/Pog4T6GTyU1PCTY1W3IL9L9OCFhKMkHc9FaFi+PaaSodzSjoRgiCLaCuC06XSp3kzFHnetU7hJVKR1bQEtHyqSmhqPqNOYwnuFoUsBLMo+bMQcBjyG/mel2TznLQyEDsgzDk++FKIwLRIA1U4lH8iIxu5TG67AjWFUdnW7CjkGadecxRCzC2q3WTyCz+XoYW3ZGRAZ3Ec+PEQsrwWoOVJ4TZCZheLqX3FMSn3qEoJRTVC7U4zxeKlo4zzwYLi2ExelB3VKtaYE2sjJvmju2uHicl60sjllVvNOliVEh1lgQQr2Na/E6lRj05DgSYx9QFLrcOaathTVCEs5XMPK9DsPGenBX228KBsiQzPh7DN2ltpB+lanEjoyXEYdBeHWPSvuUEAZYSuc+s5rJjf002UNfmgx4opCBlgxFRjWCVPcfsYmS9Vmy48m1Ua8irLD/Sm8DsSWJzwtNo0ChYjQb8FbkO66BJkB/rCbtUnAsrmQJDHupj7kuMAD09FQkzlJ1e6hQsIH7D4lqoiYJloQZAZIx41SDBNSAnad4w6W/hhyNab+rqNu7+wcNcsb8N+Ng4hVQ9bxEfy2Mk4sVoOmuyCuDXwVx7UEkGMoOCpUCdzFcxFT9JglSaInpVw0HVwsS6tHW5LmfMBBxcUE2QCmHXo/KRQlt1rUEGpjYhtxxLpSIfxHa5Y2x4/GRcUIRO3JbLFitUFdS2vFE2snm7zpjorIrcNBTruTHEAVY0NtoiYyJ1iakT2uR41kTHQDUlUkpbiqjD6cFyekIbn+oLM94H7hItLLBNc0LCBV2ymqY0WjuXjikJZRr86p8/xBscx4YrrDf/9ud4OUPzk4kstdMzrlwVL1MZI8bLxZQV+gEpMuhAMhkOA9tCrop60s0IDX3blUuHlOSYQxBgwnrkmee5zuCZMFD3Auzju5Ee9yIzjs1tlTsoN4+IBnMYZtyHffXJ/WHjOHrHwmcfd9zeS8q+WCxDIL1Qo0TXOYUPghwMiapuvBJTKthcbFrR4wi+UrEQjJ5yIoRA3tIlo6OAG8vKpRIqL+t9rALGsmbLGy4wMimsNh2nHNHlWGeGDqDbAUNbFPm4/P7qXz3MY+erZZ7douqPjA7ua6unHGkaPmPFrN7OJctprSYr1DxMrHaJ86kNxPoKr8YCsAwDMrEKyDyeq2blHVIR2NvBd3q+V4hqTgKUgQVxqIB3RkVJ1mxFq+EyCS0h6wGpE740tmvfesRfXB42vphvPxk3QE65jtYS+plRA8gFacsw1EABNT1kcMf0OTFD+pq3PmhzEgsJsLClDprKY6U9DeVuUuGTui4sfVp9BjpJpYVpU5IML41ET/UqSbTOof+mA9TlEGvRN7YRIbd9+k92BldoGNvl+BfsypP3540l9dRdvlrGx4393UKloMpBoqaz4OUaHMNUkKeeN6oosiCNaAgtpnMoT8rPie1LfBvdhZ1ljAeBmBO232evXePp407Sc7d90MejKnwPTwSDILS83J+VTaly9ZSHRhCaS1hBbQe7zLprGObWT17mM0033nXv/iTgL595NEKS9Wvf+XqMe+nG/Xt4quHm9mwQMnX4us8k7wryeCNrVuic7+qZNAmL2oN19s5MVT/PBKVw5qPjG0Ywv6GnZy1iBGzHfG9efY63Oo3HRsbC33P/fIjXmbxr4DI2aEsxIGvOIp90TuuN2hs+fPcOVZfktTNjwzOpd15+1sf9cXsUMEmZX/vWwxP2hO2JBlznTglnLmoietVygGgpl/O1zEhozF6VUthGnz/6uCSid8Xr1AJhRwvayHm0Gz5usXrxSx+Nl59c7kkbT64B40MSk8CGOEwxPMJfdT0sDUmdbL/Ge+fwJGA92DxfO3PlyQ5j44VO+8NZW9EKwjG+e3N/tcyDDfbGb6HzbCFgH5mfVUMNEAhY5xp++B8uHjWEKvkjbxFGrGE5PWRG3lAobkAcTxLsEAUotGIuDFmrNpEbUWq//fbiJx/anwzHNhb9Ch++cspZLZslLzliPBmQHD8Mc/ETl9tTgMMwrz79mP3y6Uf3V86Mc7f5XZ9JhUF+8b8ftV98+zEr+ev3eCHHGz/6np1dv0aniIp2NhfXjoTuZ1YYf76wGchObMw3zXa4YumEU0w8hh2LoYG+dJe9efV5Gclbo7TnCvbZmu1H5IzxFHaGgsbNja//zdcz1os0tEWGeG4aa7xyZoynhhnbyDPD+HH9muoQatty4gfijgee8tVhxmtq3vjRd5u2ThlEHdPsuHPusvLV4Of+8OM3/LGyGysqmiQOcDYZmMG8sF5eAhhTDM8cP/uin3ksvUgysSOwq1XjveUSKuUbP37Wx9s/xn3aA1pGfho/432km1f7tt/H0+LwOvRRKddU2x4x4wVJI7edv1TGHtF45Wv3xWv/53+5vXG9HCYXijy3QbCP9bz18vN2wz/+GOW45Z/+ux3+3vzRd+dDZKl975YwsKz0JFPM7V31bpzx+9wf/rN3/rE6uYvy992uSU0SPUhAzjn+fufmoWWgR/c7NNGncUOHuiId2FaXF4wW81RyvH41rv/g27uhxrE3fPC390N3Q33kU3vrZUDKePEE/TjXMZL/pX/1+B6FapjxBq2X/su/tNf/+okNzl7p3CIdsC5NIEWYbw6znzseXL5hv6l+f6/dcJj9uF8//x0EXYpPm4mb0jhTJzCOTm+ocLb/7RAXpJ+VWIneME3lGhIJ2m0ee0Eg7qdfuTuf5YnKZ2kbGl8itkGhVT6xrDhB18/f/oH9LYnvWmjteIfBgKlf/eCZ3RhDjpHL2jE/eHo75hH79f97OhQadVP6X1AJJywI3SInNnLRYO/NfEPXcBZLmU+Nt17qsBMbwqRykKAgARhG40IKWTVDIQI2xe0wgm3kilHP7AJPb1RknlR/zWdgDSmKL5kJgp9K4DDUmmNgmF9thtG2HUnEkrSRv+IECVBHGk/+DQb4jvfXk+TDScaPIHdubG57M8OaO/l1tjRe+OIFdE9NC9CW+Jr1nS0gYAMiYX9scX95RfeqUSeMZ0QjM4OytnTNOBa8jJmcjymmDF10fDUUDPPqXz4y39JoZt0Q3cmsoLsplZdCzeoi3/b3Lff8e7+wMU19/fOY78r/eCDenO/n5jk5bvn4Qh5EgkDugr63CLoQkvBLdGVsUVVu0IwFWdUymYu5aUvgty40me8o+M7XKUz3Upk3y7GVidmRCuuYwfQGxA7o2yPmW4/sv7n4If9ZtItnNaIfs0Dtk41nXM+mQwwafdvv/UmLmreSWW6O2CMRaOT9ji5fGF7raSppGEeMf4m47hqtrgBZllX+wUqP/A5FpFe0jT9HDngbQ8XoEp9qy2B85Cg/NZ+tkFtKPtx4m529frU5QBnEJW461e2G4iGMgPF45krRUTsNmn62ESKFKyjcrMO0d4L3tvQaxyKCihFUZTsPovd2QkBGJnkEszIUUxkXd8++73REoU2iWvsH4Kd7XRWiHKdFxmIMhgrWJ5FcJT4RZOa6y3wrMLaNdscWNT6fNj8d1UpONX8dEQ9lT7qWccbIQYnz5a2K/aZeHUEbtf1SDuJ80egQ6NxWx2yLbI86jm0k9Sv/8wF78+XnxByioUK8DAKXZ5tdYNFOMKLV0LZ4aGvV20oAxhtNbvmdB4/zzJPj9TbPu8paNdTcubI26GElI0c1UNtn8109zCpLzgmh2tHEN8BaJxYJI+pF01xBOBs0+VRSH5G0JfQ9sipS8r8CT3NPdOWTAQoMcLcaJw0teYj5VMYcbx2+VZ40h2F2ir45VAXhMU0+BZuS+3suPwFrq7yVg5hHGAVhvhABz08QKhqO0naNqUXhKftj22kjoi5mUtdtML5X0lBWeSZq4FNMzFtj1KW9QxvKGklC0gmxjTyzvq5zEICrf/bQ/kAzIUogyxcSsEaFMQ2UPNUnPOFA3u+f64VqywFmLlzajiwteWF8m/8gewvrwKRpSzW0sK9bP/3w3r7RjRE1oA911xJJU+DuHadgIoCN1vEdJ00C8BDbVPtXRQBiv8NncQ5XnmKdNq9QZs2ZbDnmeH9ZK+ugsqcfk4J1k+NwXmUscx3rqI7RheTiYKiNHcXtn3nUT9VQ4yXkgL6mBJuKl+BdIt9s8adGaUek3Lpd79H3AI2e2qvjxbGbcUabqbHLKNSOghpO0JKCQIfCquMEiZRueC9FjyXMTsJxkvQySKx3ddJQOWFB48JgNCeZqxrb0jQ6b/7Nz7WrmmOrSw1PVJSIQXrr5BRdKBl2uLxp/uNQt9zTCcBwhvEPdsx/FyLEm0H1e+451Q7ijCejSMjAAnHqzsZMMCJo0GyeauXdU7A+TFQuaTC4KH1CnYuwUifZUoRaOZvO93aXGgY1HxGlxjE1glbwOQdQYdRIpwyzdxxGYfv9pwM+dSr5q4cqlB6hgilalGGj/S6ITC+2lSjsJIGtnkYUsGAru+ZnNyHRav8miKmIrUjrC9c5TK1MxY5u9cgP67WYa3JNiPmO5ZtW7lOdpww+rt5eefLBYSCyvqL4hRpH3YHxV/tHccsZTXMsdvmJSBHjMlqW6Nx1sOegZA/dM/w4PDvcGQxrFXXSeYZyrLEqYrcaMGzhNUqp5+23o9C9sNFfvqPU5ksDx1uwRi11smaLes1M7wDMtyS+ur+gaVGdmbI78GJrzM243COlTyVUXiRYGbKAOOxCFE7R7eM6qCTEedZqooXOdoGauEYhFyiS+wt6clJohRM4M3IcLn1wV/a7jmqoJ8aNhfbmz59jsT3epDjeA9eZGQjAZGanWNQpAyj8N89HgcoIsBPK79sRS8tDWqdBDHX6knczuQmoVb2B5BFrbegt3HmesSVgel2pGdLMFuWIYqzaT9XB7u2XkZuGAUa0jTyj26Dt175xeX8R4NoDpPKo4BnZKQXheQ+S5qjHXFX8yf6hTeF0LW6bgTQSoBAdf1+KMUKxr/xGjQGD4COM2CARm+YJO4K40H2VUHnuO7aLZuMa1KlLDdhmZ/th+/UPnumjr9RWHK85iCy4wZq2BSSn6NwgAh1hrJ2vhKFT8Tl2GShdoBJ7aXJhWUzgKW6mHStGcgR9fgJITJZr6n8zrlxpeTB3rZgxjhmXANZCUy85AMlwyaBqKMH/tWk6toOLalblYX7F576qo94bSUDpr0GdllGMoC9egIesirK2H3qyXpS2FotlDnxbgtGpJ0S2xh7NOtxFvw2shzAPHyePyxvjbtDXn31qu5KrNxOWEXpzcspxLFM0j1bg7QYKgE2vA/VA5qyen7py5oJO1kfrPQmYt8HJCmX+NpCkucrUu6wRA3e9xpPHNGIhc1t5xDEELswnjDDqIiyVHzVgyz9zakGEU3JopJitRouj4AYk2XIp25h640ydudsM24HnJHyhuev7bVfRC9EcD7fzdj4QMn+QZwiiTz/yvJ9rHBCMooDS9sMrMKzGQrHe51MnaOUIJMG56Z5T/RF6c8L85353uRx5x3EwTxMVL7qMNG9qrXsLQEL+B9TYNbILWJ2RPkYZyOt34mMqD08klDCzRQQ9puB5KzeiZVkCUIlWDIsedlNmd6aL/lWaSuj9PNTz9tpiEhI9aTOcOzHEc4nsbI9pzsr/eX865I2UNuYfdVGy8gzkCZ0Q3x2Z080KTYCX6t2tsD2o6yO/h8uFuxqWn1zxIiebjhDEsDJqeTfhQyAFEWVlu3lcZmdG61KZNx+I/pvRw9zobdwIDVE4hVvzUygqHYHs033pEri8JyhdKv0PVuuGCtNOg1MvOI9q2f+eDxET3mQgSfwSkh15jYsm/MCD9amGNGTZqsCygANJ1hlCDsX0gHT+BBWUTpg+Sb2n1we+G8qQcU3yVwDOJQKpsLEWxXBNKCbEIMQAFog9tqJKYV6GJhuOumZkwJjtAqd0EBxBD4PoPmrECpKUMOxRPhOGyE47lHpFCb1fZun1ARrs9Y8ewS0AqpmrGiV1fr/WcTUHmFyId2ltVqhA7zQXhWvDU47nFM5QJXOjQyj4drYHrE9lulmRn0PJaaps0uhFAHlKjqUJ17+HusszMIrHWpkDZsIW9M2vMTfNLYxr7nSB4XC4mBl/7xpVOMJIRbODyTOJRM01ZS/3UyUZ/ZTLI3AjOhKuEt7YIiKyOoEgiHbgqtGsfoCMWAQ9HKyKDF6jelZ1uvASEREKrIevOcgTsX1GuoWskpVhzumlG685vMShoYiULoYPCSw3E6WZRJ0fyo+wLjGXQfCVmcIkwfOy/s3aB/kpNU0YDoNhEC1wkckkE1/2sQ5a/NEUSKPiISAASrVNjvFobiiMrBY0h4kQzJ4uANYYFUKSrwywNtkSgD3ULiY5cUrp4tdlZgekafhHKIUvKAUQwLodMZqY3JBLoBMW2YEoSvPodwo1eTAC9oA/3IuphOYYAxy41B66BEL1HMQVCKr6s2SHu9xOSPcqIRAkXlCcC04/T7bkVThJ9mENBXtCCvIwb2o8YVhPnwomEviC5CbkBzpsG9UqTOAfTZZKyIkijjJBbEL9j0MOEIpmNozLfMHfVgswNZSErAgu/4VOMX7nubLlrAKNSJZzXGekKUQFFk+UcUaut8iq/BBtnnKG+f8GHZYuGrWSyNo0UmeFEkCgHM1tqYWUIFS0OcrJRRcD4iLKYizqgOs9pGEsUPiubAO1Ru8J3YL6PpWIiJEIVMm4EjUkeJ8bA9HqvxXZGFcYMuMACgxYiiedAitjR8GNk0Yw1qKKXjPWPsZjaWNX81ARcnzTUTnDvp03umF4FEpjHm+aE/jKiCAyw4vhwQWcpvDGcXI/NOCiVECyF2KlCkPCv/KkG0EnMF3pG3qitMUPA/Y1Z9O3XlnGVUU5sAJfk3mOmwSrBRihjDnbKUfO2eer/47fB9Y4wuQwEEL5eEvmwhJ3DQBEPbyXZ+E1ZkXl56FRDMmoBgsV2KRDEfisGc9bnkmiCewIpf0obt3J6AKZjdOFsWQIBIJCHxw/YdN8QaKZM6HGyeq0/Mn6inkqROxS+v8HnvUiFb/sxc0AAAAASUVORK5CYII=;container=0;rounded=1;" vertex="1" parent="30KggWmX4pOPK8MYpUQ7-129">
          <mxGeometry x="4" width="64" height="64" as="geometry" />
        </mxCell>
        <mxCell id="30KggWmX4pOPK8MYpUQ7-128" value="Grpc - Proxy" style="text;html=1;strokeColor=none;fillColor=none;align=center;verticalAlign=middle;whiteSpace=wrap;rounded=1;container=0;" vertex="1" parent="30KggWmX4pOPK8MYpUQ7-129">
          <mxGeometry y="64" width="72" height="22.22" as="geometry" />
        </mxCell>
        <mxCell id="30KggWmX4pOPK8MYpUQ7-132" value="" style="group;rounded=1;" vertex="1" connectable="0" parent="1">
          <mxGeometry x="200" y="910" width="100" height="90" as="geometry" />
        </mxCell>
        <mxCell id="30KggWmX4pOPK8MYpUQ7-133" value="" style="shape=image;verticalLabelPosition=bottom;labelBackgroundColor=default;verticalAlign=top;aspect=fixed;imageAspect=0;image=data:image/png,iVBORw0KGgoAAAANSUhEUgAAAG8AAABvCAYAAADixZ5gAAAACXBIWXMAAAsTAAALEwEAmpwYAAAAAXNSR0IArs4c6QAAAARnQU1BAACxjwv8YQUAAATRSURBVHgB7d3PbhtVFMfxc+7YTlqVyhUgqChiLFEkUCGxBF0nT1B4gqRPkPQJ4rxBWbIibNk0EQ8QZ1UJkMZIVbNA1UwFKCBAcaso/+y5h3sHxTIex61RsOeI32dTdzxJnHwzd27uODHTCFEUV9MZWmKx88S0IEQhwX9MWkScBGw26Zh26vVact6ePGyjj2ZnaUWsXXV7VAmmQ6jNxtw3x+3P6/V6e/DuXLxvH8XzgbEPcJQVh2uRiE0/u33rvVb/dtP/n2g3XjJstxGuWNwRFhoTRL7PwPa/+SPOGBsRFFnb2nTx7AjMjjx/jvNDJUHRVdkED6IoyuYhWTw7a1cwVOrgh9Bu5epqdvthFIflihsuMavUpB2cPK+ZcjldQDh1qt2ZK8uGmO8QqGPYzLlznoQE+ggt+CNvnkAdP8Es0Zgetyv0y2FAcLHeutylD6qdsd5m7Hg/u3C7zyoEF2/ceIZALcRTDPEUQzzFEE8xxFMM8RRDPMUQTzHEUwzxFEM8xRBPMcRTDPEUQzzFEE8xxFMM8RRDPMUQTzHEUwzxFEM8xRBPMcRTDPEUQzzFEE8xxFMM8RRDPMUQTzHEUwzxFEM8xRBPMcRTDPEUQzzFEE8xxFMM8RRDPMUQTzHEUwzxFEM8xRBPMcRTDPEUQzzFEE+xsf+6+0wg9ErZElysyr94tQP+/vETIVDJMFFCoI7vZkSoRaCOEGfxdgjUCZg3TKljNgg02jH1eq1tSb4iUIOZNurv15Ls57zySbDqX1CdoPD8a6YbMuv+dhYvO/pE7hEUXolNwx91/nZvheX2rXc3ROw6QWG5yeW6C9c7xfHgDt89erLqxtQ1vAhwgfhTmhsZP3YHWP9mHrbvw904DCRtGOIlgimTZsDB3bOhsh+PerNeRKE5vLbs5PjVE7GyJSKbn3x4szliv5cXRXFIE/bD0x+33ZAR0oQxc/LROzcXafLafgL5MjuOdVXBvdOEJuyLr79x32FjfY9dEJnK5zsOXM9TDPEUQzzFEE+xsZ8GMWnhjRtu7jD5p1242SYVXeHjvVa9StN4nkbx02HYVA3xFEM8xRBPsXMnLHG8X6XZ9FM31Qtpio6OT6dzacpdEov3fm/QNFlukQlatevXkmF35yZV7gEvuEsQa0KyQFAILtJGKmZ9MOI/4v302/6aFdsgKCTDpvH2G9d6z3boxUM4HfoDZvHivT+WDfOXBCq49aZ7tTdfvZ/Fe/rrn7H7JyTQgaltD02t5I86ekG4SrnkDtf8gtFpt0vW5hevjDFUKeV/Zym1ljrdNP9Y3PueKQ+f+J50uu5CuuAx9ROq0qXOcilgsyQvWD28NFOh8pAPcnB4RMen3dx2/4CuXJ7Nbe+4T+LZwVFuu/9CDdvfO31+QEO+Tv/Lx9QvoNIdIyx4YpFCvpvJDkHQx3XD8phiLh4nBPqwtErWpltu1rMyaj8/+wlsfhZlz5nnWHc2tzZ/9VtGzIuG7Y/HdD4WbrFfy3Q/tW8TqGLF1Ezt+utNJm4SqOEXqv0idTZhSYXvEv4qhBaJv8Lgb/QG6HhvPzRs/fAZEhRV4obLxbNLQ70fFfwGf4c7ieL30wvIrYI1+8N5Q5/h5o9CN5g23ArRnDsfYgVmehI3G91ylTb93GTwzr8AKLXSw3RHkJ4AAAAASUVORK5CYII=;rounded=1;" vertex="1" parent="30KggWmX4pOPK8MYpUQ7-132">
          <mxGeometry x="25" width="50" height="50" as="geometry" />
        </mxCell>
        <mxCell id="30KggWmX4pOPK8MYpUQ7-134" value="Legacy Admin" style="text;html=1;strokeColor=none;fillColor=none;align=center;verticalAlign=middle;whiteSpace=wrap;rounded=1;" vertex="1" parent="30KggWmX4pOPK8MYpUQ7-132">
          <mxGeometry y="60" width="100" height="30" as="geometry" />
        </mxCell>
        <mxCell id="30KggWmX4pOPK8MYpUQ7-135" style="edgeStyle=orthogonalEdgeStyle;rounded=1;orthogonalLoop=1;jettySize=auto;html=1;entryX=0.5;entryY=1;entryDx=0;entryDy=0;" edge="1" parent="1" source="30KggWmX4pOPK8MYpUQ7-19" target="30KggWmX4pOPK8MYpUQ7-128">
          <mxGeometry relative="1" as="geometry" />
        </mxCell>
        <mxCell id="30KggWmX4pOPK8MYpUQ7-136" style="edgeStyle=orthogonalEdgeStyle;rounded=1;orthogonalLoop=1;jettySize=auto;html=1;entryX=0;entryY=0.5;entryDx=0;entryDy=0;" edge="1" parent="1" source="30KggWmX4pOPK8MYpUQ7-127" target="30KggWmX4pOPK8MYpUQ7-2">
          <mxGeometry relative="1" as="geometry" />
        </mxCell>
        <mxCell id="30KggWmX4pOPK8MYpUQ7-140" value="Text" style="text;html=1;strokeColor=none;fillColor=none;align=center;verticalAlign=middle;whiteSpace=wrap;rounded=1;" vertex="1" parent="1">
          <mxGeometry x="170" y="540" width="60" height="30" as="geometry" />
        </mxCell>
        <mxCell id="30KggWmX4pOPK8MYpUQ7-148" style="edgeStyle=orthogonalEdgeStyle;rounded=1;orthogonalLoop=1;jettySize=auto;html=1;entryX=0.997;entryY=0.374;entryDx=0;entryDy=0;entryPerimeter=0;" edge="1" parent="1" source="30KggWmX4pOPK8MYpUQ7-141" target="30KggWmX4pOPK8MYpUQ7-120">
          <mxGeometry relative="1" as="geometry">
            <Array as="points">
              <mxPoint x="640" y="254" />
              <mxPoint x="555" y="254" />
            </Array>
          </mxGeometry>
        </mxCell>
        <mxCell id="30KggWmX4pOPK8MYpUQ7-141" value="on schedule" style="text;strokeColor=none;fillColor=none;spacingLeft=0;spacingRight=0;overflow=hidden;rotatable=0;points=[[0,0.5],[1,0.5]];portConstraint=eastwest;fontSize=12;whiteSpace=wrap;html=1;align=center;verticalAlign=middle;spacing=2;" vertex="1" parent="1">
          <mxGeometry x="680" y="310" width="80" height="30" as="geometry" />
        </mxCell>
        <mxCell id="30KggWmX4pOPK8MYpUQ7-155" style="edgeStyle=orthogonalEdgeStyle;rounded=0;orthogonalLoop=1;jettySize=auto;html=1;entryX=0;entryY=0.5;entryDx=0;entryDy=0;" edge="1" parent="1" source="30KggWmX4pOPK8MYpUQ7-149" target="30KggWmX4pOPK8MYpUQ7-121">
          <mxGeometry relative="1" as="geometry" />
        </mxCell>
        <mxCell id="30KggWmX4pOPK8MYpUQ7-149" value="instant" style="text;strokeColor=none;fillColor=none;spacingLeft=0;spacingRight=0;overflow=hidden;rotatable=0;points=[[0,0.5],[1,0.5]];portConstraint=eastwest;fontSize=12;whiteSpace=wrap;html=1;align=center;verticalAlign=middle;spacing=2;" vertex="1" parent="1">
          <mxGeometry x="420" y="237" width="80" height="30" as="geometry" />
        </mxCell>
        <mxCell id="30KggWmX4pOPK8MYpUQ7-150" style="edgeStyle=orthogonalEdgeStyle;rounded=1;orthogonalLoop=1;jettySize=auto;html=1;" edge="1" parent="1" source="30KggWmX4pOPK8MYpUQ7-2" target="30KggWmX4pOPK8MYpUQ7-149">
          <mxGeometry relative="1" as="geometry">
            <Array as="points">
              <mxPoint x="370" y="300" />
              <mxPoint x="370" y="250" />
            </Array>
          </mxGeometry>
        </mxCell>
        <mxCell id="30KggWmX4pOPK8MYpUQ7-154" style="edgeStyle=orthogonalEdgeStyle;rounded=0;orthogonalLoop=1;jettySize=auto;html=1;entryX=0;entryY=0.5;entryDx=0;entryDy=0;" edge="1" parent="1" source="30KggWmX4pOPK8MYpUQ7-152" target="30KggWmX4pOPK8MYpUQ7-124">
          <mxGeometry relative="1" as="geometry" />
        </mxCell>
        <mxCell id="30KggWmX4pOPK8MYpUQ7-152" value="scheduled" style="text;strokeColor=none;fillColor=none;spacingLeft=0;spacingRight=0;overflow=hidden;rotatable=0;points=[[0,0.5],[1,0.5]];portConstraint=eastwest;fontSize=12;whiteSpace=wrap;html=1;align=center;verticalAlign=middle;spacing=2;" vertex="1" parent="1">
          <mxGeometry x="420" y="381" width="80" height="30" as="geometry" />
        </mxCell>
        <mxCell id="30KggWmX4pOPK8MYpUQ7-153" style="edgeStyle=orthogonalEdgeStyle;rounded=1;orthogonalLoop=1;jettySize=auto;html=1;" edge="1" parent="1" source="30KggWmX4pOPK8MYpUQ7-2" target="30KggWmX4pOPK8MYpUQ7-152">
          <mxGeometry relative="1" as="geometry">
            <Array as="points">
              <mxPoint x="370" y="320" />
              <mxPoint x="370" y="396" />
            </Array>
          </mxGeometry>
        </mxCell>
        <mxCell id="30KggWmX4pOPK8MYpUQ7-156" style="edgeStyle=orthogonalEdgeStyle;rounded=1;orthogonalLoop=1;jettySize=auto;html=1;entryX=0.498;entryY=1.048;entryDx=0;entryDy=0;entryPerimeter=0;" edge="1" parent="1" source="30KggWmX4pOPK8MYpUQ7-124" target="30KggWmX4pOPK8MYpUQ7-141">
          <mxGeometry relative="1" as="geometry">
            <Array as="points">
              <mxPoint x="720" y="396" />
            </Array>
          </mxGeometry>
        </mxCell>
      </root>
    </mxGraphModel>
  </diagram>
</mxfile>
